<svg width="1920" height="6405" viewBox="0 0 1920 6405" fill="none" xmlns="http://www.w3.org/2000/svg">
<g clip-path="url(#clip0_136_376)">
<rect width="1920" height="6405" fill="#1B1B1B"/>
<path fill-rule="evenodd" clip-rule="evenodd" d="M1609.86 5364.24C1716.39 5411.69 1758.38 5547.84 1774.11 5663.38C1787.14 5759.12 1700.37 5836.75 1687.24 5932.47C1674.05 6028.56 1765.54 6146.25 1698.25 6216.1C1630.97 6285.94 1506.08 6184.04 1414.4 6215.68C1290.87 6258.3 1219.5 6461.27 1094.07 6424.59C977.223 6390.41 976.492 6209.63 977.564 6087.91C978.368 5996.75 1053.31 5929.23 1099.13 5850.42C1125.59 5804.91 1167.54 5773.23 1188.56 5724.97C1229.03 5632.1 1200.14 5507.9 1277.09 5442.01C1365.78 5366.07 1503.19 5316.73 1609.86 5364.24Z" fill="#6E1FD1"/>
<path fill-rule="evenodd" clip-rule="evenodd" d="M412.946 4495.03C500.337 4515.79 562.373 4582.38 637.833 4631.07C719.32 4683.66 858.95 4695.27 872.086 4791.32C885.956 4892.73 738.074 4939.5 692.559 5031.2C657.66 5101.5 680.669 5187.01 641.813 5255.21C582.366 5359.55 533.09 5520.68 412.946 5521.99C293.278 5523.3 251.227 5356.67 180.406 5260.26C132.6 5195.18 81.9708 5131.93 67.992 5052.41C55.2736 4980.07 103.2 4914.33 106.69 4840.96C112.198 4725.17 17.314 4588.76 94.1755 4501.94C166.367 4420.39 306.951 4469.85 412.946 4495.03Z" fill="#6E1FD1"/>
<path fill-rule="evenodd" clip-rule="evenodd" d="M81.6488 3076.92C105.403 3082.33 109.82 3114.53 126.679 3132.09C139.232 3145.16 163.477 3148.46 167.349 3166.14C171.242 3183.92 156.899 3200.84 144.695 3214.37C135.619 3224.42 118.735 3221.98 108.722 3231.11C96.3646 3242.37 98.198 3269.33 81.6488 3271.85C66.0251 3274.22 61.2981 3248.62 47.8423 3240.35C32.4398 3230.89 9.00285 3235.63 -1.3527 3220.83C-12.0907 3205.49 -7.35813 3184.56 -4.09411 3166.13C-0.346511 3144.97 3.8111 3123.01 18.7181 3107.5C35.2732 3090.28 58.3302 3071.61 81.6488 3076.92Z" fill="#6E1FD1"/>
<path fill-rule="evenodd" clip-rule="evenodd" d="M145.155 3919.73C194.805 3903.86 244.261 3834.07 287.144 3862.91C330.918 3892.35 289.464 3962.73 285.267 4013.97C283.036 4041.2 264.261 4065.56 268.33 4092.6C275.096 4137.56 324.701 4173.36 315.973 4218.01C306.662 4265.64 271.807 4336.94 222.258 4328.28C159.635 4317.33 167.305 4213.66 112.545 4182.44C78.1757 4162.84 21.6899 4229.37 -3.52049 4199.54C-29.1583 4169.21 50.1482 4127.09 35.072 4090.78C11.6362 4034.34 -106.816 4028.33 -99.6916 3967.93C-93.7039 3917.17 1.12634 3947.97 53.1271 3937.73C84.4292 3931.57 114.834 3929.42 145.155 3919.73Z" fill="#6E1FD1"/>
<path fill-rule="evenodd" clip-rule="evenodd" d="M1453.4 3977C1516.54 3977.16 1560.2 4041.16 1620.21 4061.59C1709.07 4091.85 1826.04 4052.39 1888.17 4125.03C1948.07 4195.07 1952.5 4317.35 1909.32 4399.62C1865.93 4482.29 1739.21 4464.67 1675.02 4531.12C1618.58 4589.56 1637.41 4703.02 1571.44 4749.43C1502.51 4797.92 1409.88 4791.1 1328.08 4775.18C1240.61 4758.16 1156.46 4720.97 1092.83 4656.29C1026.09 4588.45 941.457 4498.96 963.596 4404.68C987.783 4301.69 1126.46 4285.94 1197.63 4210.03C1237.68 4167.31 1242.91 4100.06 1286.05 4060.75C1333.58 4017.45 1390.21 3976.84 1453.4 3977Z" fill="#6E1FD1"/>
<path fill-rule="evenodd" clip-rule="evenodd" d="M1222.62 2964.31C1300.75 2937.85 1386.51 2975.09 1464.61 2948.52C1560.62 2915.86 1619.3 2806.07 1720.12 2795.07C1844.57 2781.49 2013.16 2774.37 2077.81 2881.61C2144.53 2992.29 2025.62 3126.68 1995.78 3252.39C1975.48 3337.9 1967.88 3422.81 1930.44 3502.32C1890.63 3586.86 1859.94 3694.37 1772.34 3726.89C1684.08 3759.65 1596.47 3676.12 1503.57 3660.78C1421.19 3647.17 1329.56 3686.58 1258.89 3642.1C1187 3596.86 1181.01 3496.48 1132.12 3427.02C1060.11 3324.7 880.336 3261.06 904.344 3138.3C928.033 3017.17 1105.73 3003.91 1222.62 2964.31Z" fill="#6E1FD1"/>
<path fill-rule="evenodd" clip-rule="evenodd" d="M238.757 1262.54C267.174 1276.02 285.271 1225.71 307.824 1203.86C316.931 1195.03 320.008 1182.73 329.638 1174.48C356.353 1151.59 419.067 1149.22 411.772 1114.79C404.828 1082.02 347.636 1115.98 315.334 1106.97C294.67 1101.21 284.668 1071.45 263.313 1073.41C240.12 1075.54 216.75 1093.74 211.794 1116.48C207.11 1137.96 237.714 1150.87 241.707 1172.5C247.375 1203.21 210.51 1249.15 238.757 1262.54Z" fill="#6E1FD1"/>
<path fill-rule="evenodd" clip-rule="evenodd" d="M1721.07 1152.21C1822.38 1171.38 1927.12 1252.16 1957.38 1346.67C1990.49 1450.12 1891.25 1542.54 1879.55 1647.35C1872.23 1712.96 1894.16 1777.9 1901.81 1844.42C1912.29 1935.51 1979.26 2037.31 1933.28 2114.25C1889.5 2187.53 1778.02 2212.85 1686.73 2204.41C1594.91 2195.91 1530.1 2109.13 1445.81 2069.15C1396.56 2045.79 1344.26 2036.14 1293.04 2017.67C1235.65 1996.98 1175.82 1985.63 1124.15 1953.16C1061.36 1913.7 1002.48 1867.82 960.264 1808.55C909.132 1736.77 843.694 1657.02 854.279 1574.32C864.712 1492.79 943.767 1436.45 1013.66 1391.3C1076.72 1350.57 1160.75 1355.04 1232.9 1329.73C1300.54 1306 1359.57 1270.79 1426.87 1246.32C1524.54 1210.81 1614.9 1132.13 1721.07 1152.21Z" fill="#6E1FD1"/>
<path fill-rule="evenodd" clip-rule="evenodd" d="M398.169 2079.33C502.606 2038.71 610.328 1977.67 729.731 1989.49C842.391 2000.65 917.512 2075.95 985.124 2137.47C1051.53 2197.88 1112.46 2266.57 1116.72 2341.6C1120.87 2414.53 1078.06 2489.22 1008.3 2545.19C944.172 2596.64 792.573 2578.73 746.836 2638.37C683.998 2720.31 851.44 2871.17 727.705 2911.09C603.909 2951.03 530.153 2776.39 398.169 2750.86C314.02 2734.59 236.186 2794.22 148.925 2799.16C22.4114 2806.32 -125.862 2838.03 -226.694 2786.24C-319.71 2738.46 -326.188 2639.21 -314.818 2560.95C-304.088 2487.11 -204.906 2434.66 -165.539 2365.33C-132.227 2306.66 -178.058 2220.06 -101.033 2184.45C-14.1702 2144.29 110.613 2212.32 211.248 2191.13C291.883 2174.15 325.044 2107.77 398.169 2079.33Z" fill="#6E1FD1"/>
<g filter="url(#filter0_i_136_376)">
<path d="M-49.6978 696.532C-70.6079 661.149 -24.6492 634.831 0.943947 626.094C8.56744 622.272 30.6295 616.489 53.2193 608.075C110.395 586.78 66.2881 542.552 136.533 536C162.671 549.105 143.068 596.609 120.197 614.628C97.3266 632.646 125.098 660.494 136.533 689.979C147.968 719.465 138.167 758.778 110.395 766.969C82.6242 775.159 76.0898 732.569 53.2193 709.636C30.3488 686.703 -23.5601 740.76 -49.6978 696.532Z" fill="#6E1FD1"/>
</g>
<g filter="url(#filter1_i_136_376)">
<path d="M1004.35 184.18C1149.17 81.1887 1315.98 15.3286 1637.47 119.889C1723.15 153.801 1727.54 348.51 1742.1 451.94C1760.3 581.229 1707.98 653.997 1723.9 780.459C1736.64 881.629 1671.59 907.392 1637.47 907.628C1585.15 911.16 1462.17 854.782 1273.52 1072.95C1037.71 1345.65 1069.56 995.233 1004.35 907.628C939.144 820.023 939.144 773.394 941.419 687.909C943.694 602.423 818.587 600.304 813.28 512.699C807.972 425.094 878.487 273.691 1004.35 184.18Z" fill="#6E1FD1"/>
</g>
<g filter="url(#filter2_i_136_376)">
<path d="M342.997 135.785C310.644 140.76 282.763 145.047 270 167C263.236 178.635 256.715 192.157 250.06 205.958C219.822 268.666 186.807 337.134 115.5 260.5C74.97 216.942 33.2643 192.408 0 179.512L0 0L498.046 0C472.003 115.949 400.449 126.951 342.997 135.785Z" fill="#6E1FD1"/>
</g>
</g>
<defs>
<filter id="filter0_i_136_376" x="-55" y="536" width="204" height="232" filterUnits="userSpaceOnUse" color-interpolation-filters="sRGB">
<feFlood flood-opacity="0" result="BackgroundImageFix"/>
<feBlend mode="normal" in="SourceGraphic" in2="BackgroundImageFix" result="shape"/>
<feColorMatrix in="SourceAlpha" type="matrix" values="0 0 0 0 0 0 0 0 0 0 0 0 0 0 0 0 0 0 127 0" result="hardAlpha"/>
<feOffset/>
<feGaussianBlur stdDeviation="7.5"/>
<feComposite in2="hardAlpha" operator="arithmetic" k2="-1" k3="1"/>
<feColorMatrix type="matrix" values="0 0 0 0 0.691667 0 0 0 0 0.691667 0 0 0 0 0.691667 0 0 0 0.17 0"/>
<feBlend mode="normal" in2="shape" result="effect1_innerShadow_136_376"/>
</filter>
<filter id="filter1_i_136_376" x="813" y="67" width="933" height="1108" filterUnits="userSpaceOnUse" color-interpolation-filters="sRGB">
<feFlood flood-opacity="0" result="BackgroundImageFix"/>
<feBlend mode="normal" in="SourceGraphic" in2="BackgroundImageFix" result="shape"/>
<feColorMatrix in="SourceAlpha" type="matrix" values="0 0 0 0 0 0 0 0 0 0 0 0 0 0 0 0 0 0 127 0" result="hardAlpha"/>
<feOffset/>
<feGaussianBlur stdDeviation="10.8805"/>
<feComposite in2="hardAlpha" operator="arithmetic" k2="-1" k3="1"/>
<feColorMatrix type="matrix" values="0 0 0 0 0.691667 0 0 0 0 0.691667 0 0 0 0 0.691667 0 0 0 0.17 0"/>
<feBlend mode="normal" in2="shape" result="effect1_innerShadow_136_376"/>
</filter>
<filter id="filter2_i_136_376" x="0" y="0" width="498.046" height="294.442" filterUnits="userSpaceOnUse" color-interpolation-filters="sRGB">
<feFlood flood-opacity="0" result="BackgroundImageFix"/>
<feBlend mode="normal" in="SourceGraphic" in2="BackgroundImageFix" result="shape"/>
<feColorMatrix in="SourceAlpha" type="matrix" values="0 0 0 0 0 0 0 0 0 0 0 0 0 0 0 0 0 0 127 0" result="hardAlpha"/>
<feOffset/>
<feGaussianBlur stdDeviation="7.5"/>
<feComposite in2="hardAlpha" operator="arithmetic" k2="-1" k3="1"/>
<feColorMatrix type="matrix" values="0 0 0 0 0.691667 0 0 0 0 0.691667 0 0 0 0 0.691667 0 0 0 0.17 0"/>
<feBlend mode="normal" in2="shape" result="effect1_innerShadow_136_376"/>
</filter>
<clipPath id="clip0_136_376">
<rect width="1920" height="6405" fill="white"/>
</clipPath>
</defs>
</svg>
