<svg width="390" height="3784" viewBox="0 0 390 3784" fill="none" xmlns="http://www.w3.org/2000/svg">
<g clip-path="url(#clip0_112_429)">
<rect width="390" height="3784" fill="#1B1B1B"/>
<path fill-rule="evenodd" clip-rule="evenodd" d="M180.155 2925.73C229.805 2909.86 279.261 2840.07 322.144 2868.91C365.918 2898.35 324.464 2968.73 320.267 3019.97C318.036 3047.2 299.261 3071.56 303.33 3098.6C310.096 3143.56 359.701 3179.36 350.973 3224.01C341.662 3271.64 306.807 3342.94 257.258 3334.28C194.635 3323.33 202.305 3219.66 147.545 3188.44C113.176 3168.84 56.6899 3235.37 31.4795 3205.54C5.84167 3175.21 85.1482 3133.09 70.072 3096.78C46.6362 3040.34 -71.8159 3034.33 -64.6916 2973.93C-58.7039 2923.17 36.1263 2953.97 88.1271 2943.73C119.429 2937.57 149.834 2935.42 180.155 2925.73Z" fill="#6E1FD1"/>
<path fill-rule="evenodd" clip-rule="evenodd" d="M107.625 2079.74C154.753 2054.95 203.363 2017.69 257.244 2024.91C308.082 2031.72 341.98 2077.68 372.491 2115.22C402.456 2152.1 429.951 2194.02 431.875 2239.81C433.746 2284.33 414.43 2329.91 382.947 2364.07C354.011 2395.47 285.601 2384.54 264.962 2420.94C236.606 2470.95 312.165 2563.03 256.329 2587.39C200.466 2611.77 167.183 2505.18 107.625 2489.6C69.6526 2479.67 34.5295 2516.06 -4.84732 2519.08C-61.9369 2523.45 -128.846 2542.8 -174.347 2511.19C-216.321 2482.03 -219.244 2421.45 -214.113 2373.69C-209.271 2328.62 -164.515 2296.61 -146.75 2254.3C-131.718 2218.49 -152.4 2165.63 -117.642 2143.9C-78.4445 2119.39 -22.1354 2160.91 23.2763 2147.98C59.6631 2137.61 74.6271 2097.1 107.625 2079.74Z" fill="#6E1FD1"/>
<path fill-rule="evenodd" clip-rule="evenodd" d="M8.75659 1794.54C37.1737 1808.02 55.2705 1757.71 77.8238 1735.86C86.9305 1727.03 90.0084 1714.73 99.6384 1706.48C126.353 1683.59 189.067 1681.22 181.772 1646.79C174.828 1614.02 117.636 1647.98 85.3342 1638.97C64.6696 1633.21 54.6676 1603.45 33.3134 1605.41C10.1198 1607.53 -13.2497 1625.74 -18.2059 1648.48C-22.8897 1669.96 7.71368 1682.87 11.7066 1704.5C17.3752 1735.21 -19.4896 1781.15 8.75659 1794.54Z" fill="#6E1FD1"/>
<path fill-rule="evenodd" clip-rule="evenodd" d="M296.523 930.114C341.917 938.7 388.846 974.892 402.4 1017.24C417.237 1063.59 372.774 1105 367.532 1151.96C364.25 1181.35 374.075 1210.45 377.504 1240.26C382.201 1281.07 412.203 1326.68 391.605 1361.15C371.991 1393.98 322.04 1405.33 281.138 1401.55C239.996 1397.74 210.958 1358.86 173.194 1340.95C151.129 1330.48 127.693 1326.15 104.745 1317.88C79.0323 1308.61 52.2243 1303.52 29.0756 1288.98C0.940333 1271.3 -25.4369 1250.74 -44.3537 1224.18C-67.2634 1192.02 -96.5826 1156.29 -91.8401 1119.24C-87.1654 1082.71 -51.7452 1057.47 -20.4279 1037.23C7.82213 1018.99 45.4739 1020.99 77.8009 1009.65C108.105 999.015 134.556 983.243 164.71 972.278C208.471 956.366 248.956 921.117 296.523 930.114Z" fill="#6E1FD1"/>
<g filter="url(#filter0_i_112_429)">
<path d="M80.807 440.361C134.396 402.25 196.121 377.88 315.083 416.571C346.787 429.119 348.414 501.169 353.801 539.442C360.535 587.283 341.176 614.21 347.068 661.006C351.781 698.442 327.708 707.975 315.083 708.063C295.723 709.37 250.215 688.508 180.409 769.237C93.1521 870.148 104.936 740.48 80.807 708.063C56.678 675.646 56.678 658.391 57.5197 626.759C58.3614 595.126 12.0674 594.342 10.1034 561.925C8.13945 529.508 34.2324 473.483 80.807 440.361Z" fill="#6E1FD1"/>
</g>
<g filter="url(#filter1_i_112_429)">
<path d="M214.997 65.7854C182.644 70.76 154.763 75.047 142 97C135.236 108.635 128.715 122.157 122.06 135.958C91.8223 198.666 58.8066 267.134 -12.5 190.5C-53.03 146.942 -94.7357 122.408 -128 109.512L-128 -70L370.046 -70C344.003 45.9491 272.449 56.9514 214.997 65.7854Z" fill="#6E1FD1"/>
</g>
</g>
<defs>
<filter id="filter0_i_112_429" x="10" y="397" width="345.244" height="410" filterUnits="userSpaceOnUse" color-interpolation-filters="sRGB">
<feFlood flood-opacity="0" result="BackgroundImageFix"/>
<feBlend mode="normal" in="SourceGraphic" in2="BackgroundImageFix" result="shape"/>
<feColorMatrix in="SourceAlpha" type="matrix" values="0 0 0 0 0 0 0 0 0 0 0 0 0 0 0 0 0 0 127 0" result="hardAlpha"/>
<feOffset/>
<feGaussianBlur stdDeviation="4.02618"/>
<feComposite in2="hardAlpha" operator="arithmetic" k2="-1" k3="1"/>
<feColorMatrix type="matrix" values="0 0 0 0 0.691667 0 0 0 0 0.691667 0 0 0 0 0.691667 0 0 0 0.17 0"/>
<feBlend mode="normal" in2="shape" result="effect1_innerShadow_112_429"/>
</filter>
<filter id="filter1_i_112_429" x="-128" y="-70" width="498.045" height="294.441" filterUnits="userSpaceOnUse" color-interpolation-filters="sRGB">
<feFlood flood-opacity="0" result="BackgroundImageFix"/>
<feBlend mode="normal" in="SourceGraphic" in2="BackgroundImageFix" result="shape"/>
<feColorMatrix in="SourceAlpha" type="matrix" values="0 0 0 0 0 0 0 0 0 0 0 0 0 0 0 0 0 0 127 0" result="hardAlpha"/>
<feOffset/>
<feGaussianBlur stdDeviation="7.5"/>
<feComposite in2="hardAlpha" operator="arithmetic" k2="-1" k3="1"/>
<feColorMatrix type="matrix" values="0 0 0 0 0.691667 0 0 0 0 0.691667 0 0 0 0 0.691667 0 0 0 0.17 0"/>
<feBlend mode="normal" in2="shape" result="effect1_innerShadow_112_429"/>
</filter>
<clipPath id="clip0_112_429">
<rect width="390" height="3784" fill="white"/>
</clipPath>
</defs>
</svg>
