<svg width="448" height="427" viewBox="0 0 448 427" fill="none" xmlns="http://www.w3.org/2000/svg">
<g clip-path="url(#clip0_302_995)">
<path d="M257.274 64.8663C261.016 72.8297 253.087 75.0854 244.004 79.3536C234.92 83.6219 228.123 88.2866 224.381 80.3231C220.639 72.3597 217.603 56.5538 230.452 50.5155C243.745 44.2693 253.532 56.9029 257.274 64.8663Z" fill="#2F2E41"/>
<path d="M238.743 80.5272C245.496 80.5272 250.971 75.0525 250.971 68.2991C250.971 61.5457 245.496 56.071 238.743 56.071C231.989 56.071 226.515 61.5457 226.515 68.2991C226.515 75.0525 231.989 80.5272 238.743 80.5272Z" fill="#FFB8B8"/>
<path d="M299.323 122.528C298.9 121.975 298.476 121.433 298.048 120.905C297.496 120.218 296.94 119.553 296.381 118.909C290.043 111.595 283.302 106.99 275.879 106.497H275.869L275.759 106.487L260.967 120.905L255.939 125.804L256.049 126.073L258.762 132.829H306.303C304.161 129.274 301.831 125.835 299.323 122.528Z" fill="#2F2E41"/>
<path d="M225.445 73.2222L229.822 71.1653L229.212 64.8507L232.139 70.0764L234.231 69.0933L233.876 65.4098L235.583 68.4581L251.129 61.1532C249.669 58.046 247.034 55.6462 243.805 54.4815C240.575 53.3168 237.015 53.4828 233.908 54.9429L231.655 56.0016C228.548 57.4616 226.148 60.0962 224.983 63.3257C223.819 66.5552 223.985 70.1151 225.445 73.2222Z" fill="#2F2E41"/>
<path d="M326.755 295.181H71.4306C69.2527 295.179 67.1646 294.313 65.6246 292.773C64.0846 291.233 63.2183 289.145 63.2158 286.967V133.548C63.2176 131.952 63.8522 130.422 64.9804 129.294C66.1087 128.166 67.6384 127.531 69.234 127.529H328.847C330.47 127.531 332.027 128.177 333.174 129.325C334.322 130.472 334.968 132.029 334.969 133.652V286.967C334.967 289.145 334.101 291.233 332.561 292.773C331.021 294.313 328.933 295.179 326.755 295.181Z" fill="#F2F2F2"/>
<path d="M79.3965 286.967H318.789C320.902 286.967 322.928 286.128 324.422 284.634C325.916 283.14 326.755 281.114 326.755 279.001V148.786C326.755 146.673 325.916 144.647 324.422 143.153C322.928 141.659 320.902 140.82 318.789 140.82H79.3965C77.2838 140.82 75.2577 141.659 73.7638 143.153C72.2699 144.647 71.4307 146.673 71.4307 148.786V279.001C71.4307 281.114 72.2699 283.14 73.7638 284.634C75.2577 286.128 77.2838 286.967 79.3965 286.967Z" fill="white"/>
<path d="M334.855 133.078H63.1006V128.896C63.1037 126.711 63.9736 124.616 65.5192 123.071C67.0648 121.527 69.1601 120.658 71.3453 120.656H326.611C328.796 120.658 330.891 121.527 332.437 123.071C333.982 124.616 334.852 126.711 334.855 128.896V133.078Z" fill="#6E1FD1"/>
<path d="M78.0837 129.012C79.2615 129.012 80.2163 128.057 80.2163 126.88C80.2163 125.702 79.2615 124.747 78.0837 124.747C76.906 124.747 75.9512 125.702 75.9512 126.88C75.9512 128.057 76.906 129.012 78.0837 129.012Z" fill="white"/>
<path d="M86.178 129.012C87.3558 129.012 88.3105 128.057 88.3105 126.88C88.3105 125.702 87.3558 124.747 86.178 124.747C85.0002 124.747 84.0454 125.702 84.0454 126.88C84.0454 128.057 85.0002 129.012 86.178 129.012Z" fill="white"/>
<path d="M94.2727 129.012C95.4505 129.012 96.4053 128.057 96.4053 126.88C96.4053 125.702 95.4505 124.747 94.2727 124.747C93.0949 124.747 92.1401 125.702 92.1401 126.88C92.1401 128.057 93.0949 129.012 94.2727 129.012Z" fill="white"/>
<path d="M206.562 258.727H185.154C183.9 258.726 182.698 258.227 181.811 257.34C180.925 256.454 180.426 255.252 180.424 253.998V232.589C180.426 231.335 180.925 230.133 181.811 229.247C182.698 228.36 183.9 227.861 185.154 227.86H206.562C207.816 227.861 209.018 228.36 209.905 229.247C210.792 230.133 211.29 231.335 211.292 232.589V253.998C211.29 255.252 210.792 256.454 209.905 257.34C209.018 258.227 207.816 258.726 206.562 258.727ZM185.154 228.855C184.164 228.857 183.215 229.25 182.515 229.95C181.815 230.65 181.421 231.599 181.42 232.589V253.998C181.421 254.988 181.815 255.937 182.515 256.637C183.215 257.337 184.164 257.731 185.154 257.732H206.562C207.552 257.731 208.501 257.337 209.201 256.637C209.901 255.937 210.295 254.988 210.296 253.998V232.589C210.295 231.599 209.901 230.65 209.201 229.95C208.501 229.25 207.552 228.857 206.562 228.855H185.154Z" fill="#CCCCCC"/>
<path d="M202.331 252.753H189.386C188.99 252.752 188.611 252.595 188.331 252.315C188.051 252.035 187.893 251.655 187.893 251.259V235.328C187.893 234.932 188.051 234.552 188.331 234.272C188.611 233.992 188.99 233.834 189.386 233.834H198.766C199.106 233.834 199.436 233.95 199.701 234.163L203.266 237.028C203.441 237.168 203.582 237.345 203.678 237.546C203.775 237.748 203.825 237.969 203.824 238.192V251.259C203.824 251.655 203.666 252.035 203.386 252.315C203.106 252.595 202.727 252.752 202.331 252.753ZM189.386 234.83C189.254 234.83 189.128 234.882 189.034 234.976C188.941 235.069 188.888 235.196 188.888 235.328V251.259C188.888 251.391 188.941 251.518 189.034 251.611C189.128 251.704 189.254 251.757 189.386 251.757H202.331C202.463 251.757 202.589 251.704 202.683 251.611C202.776 251.518 202.828 251.391 202.829 251.259V238.192C202.829 238.118 202.812 238.044 202.78 237.977C202.748 237.91 202.701 237.851 202.643 237.804L199.077 234.939C198.989 234.868 198.879 234.83 198.766 234.83H189.386Z" fill="#CCCCCC"/>
<path d="M199.841 240.804H191.875C191.743 240.804 191.617 240.752 191.523 240.658C191.43 240.565 191.377 240.438 191.377 240.306C191.377 240.174 191.43 240.048 191.523 239.954C191.617 239.861 191.743 239.808 191.875 239.808H199.841C199.973 239.808 200.1 239.861 200.193 239.954C200.287 240.048 200.339 240.174 200.339 240.306C200.339 240.438 200.287 240.565 200.193 240.658C200.1 240.752 199.973 240.804 199.841 240.804Z" fill="#CCCCCC"/>
<path d="M199.841 243.792H191.875C191.743 243.792 191.617 243.739 191.523 243.646C191.43 243.552 191.377 243.426 191.377 243.294C191.377 243.162 191.43 243.035 191.523 242.942C191.617 242.848 191.743 242.796 191.875 242.796H199.841C199.973 242.796 200.1 242.848 200.193 242.942C200.287 243.035 200.339 243.162 200.339 243.294C200.339 243.426 200.287 243.552 200.193 243.646C200.1 243.739 199.973 243.792 199.841 243.792Z" fill="#CCCCCC"/>
<path d="M199.841 246.779H191.875C191.743 246.779 191.617 246.726 191.523 246.633C191.43 246.539 191.377 246.413 191.377 246.281C191.377 246.149 191.43 246.022 191.523 245.929C191.617 245.835 191.743 245.783 191.875 245.783H199.841C199.973 245.783 200.1 245.835 200.193 245.929C200.287 246.022 200.339 246.149 200.339 246.281C200.339 246.413 200.287 246.539 200.193 246.633C200.1 246.726 199.973 246.779 199.841 246.779Z" fill="#CCCCCC"/>
<path d="M257.344 258.727H235.936C234.682 258.726 233.48 258.227 232.593 257.34C231.707 256.454 231.208 255.252 231.207 253.998V232.589C231.208 231.335 231.707 230.133 232.593 229.247C233.48 228.36 234.682 227.861 235.936 227.86H257.344C258.598 227.861 259.801 228.36 260.687 229.247C261.574 230.133 262.073 231.335 262.074 232.589V253.998C262.073 255.252 261.574 256.454 260.687 257.34C259.801 258.227 258.598 258.726 257.344 258.727ZM235.936 228.855C234.946 228.857 233.997 229.25 233.297 229.95C232.597 230.65 232.203 231.599 232.202 232.589V253.998C232.203 254.988 232.597 255.937 233.297 256.637C233.997 257.337 234.946 257.731 235.936 257.732H257.344C258.334 257.731 259.284 257.337 259.984 256.637C260.684 255.937 261.077 254.988 261.078 253.998V232.589C261.077 231.599 260.684 230.65 259.984 229.95C259.284 229.25 258.334 228.857 257.344 228.855H235.936Z" fill="#CCCCCC"/>
<path d="M253.61 248.77H239.67C239.274 248.77 238.894 248.612 238.614 248.332C238.334 248.052 238.177 247.672 238.176 247.276V239.311C238.177 238.915 238.334 238.535 238.614 238.255C238.894 237.975 239.274 237.817 239.67 237.817H253.61C254.006 237.817 254.386 237.975 254.666 238.255C254.946 238.535 255.103 238.915 255.104 239.311V247.276C255.103 247.672 254.946 248.052 254.666 248.332C254.386 248.612 254.006 248.77 253.61 248.77ZM239.67 238.813C239.538 238.813 239.411 238.865 239.318 238.959C239.225 239.052 239.172 239.179 239.172 239.311V247.276C239.172 247.408 239.225 247.535 239.318 247.628C239.411 247.722 239.538 247.774 239.67 247.774H253.61C253.742 247.774 253.869 247.722 253.962 247.628C254.055 247.535 254.108 247.408 254.108 247.276V239.311C254.108 239.179 254.055 239.052 253.962 238.959C253.869 238.865 253.742 238.813 253.61 238.813H239.67Z" fill="#CCCCCC"/>
<path d="M246.64 244.607C246.361 244.607 246.086 244.529 245.849 244.382L238.41 239.733C238.299 239.663 238.219 239.551 238.19 239.423C238.16 239.294 238.183 239.159 238.253 239.047C238.323 238.935 238.434 238.856 238.563 238.826C238.691 238.796 238.826 238.819 238.938 238.888L246.377 243.537C246.456 243.586 246.547 243.612 246.641 243.612C246.734 243.612 246.825 243.586 246.904 243.537L254.342 238.888C254.454 238.819 254.589 238.796 254.718 238.826C254.846 238.856 254.958 238.935 255.028 239.047C255.097 239.159 255.12 239.294 255.091 239.423C255.061 239.551 254.982 239.663 254.87 239.733L247.432 244.382C247.195 244.529 246.92 244.607 246.64 244.607Z" fill="#CCCCCC"/>
<path d="M155.78 258.727H134.372C133.118 258.726 131.916 258.227 131.029 257.34C130.143 256.454 129.644 255.252 129.643 253.998V232.589C129.644 231.335 130.143 230.133 131.029 229.247C131.916 228.36 133.118 227.861 134.372 227.86H155.78C157.034 227.861 158.237 228.36 159.123 229.247C160.01 230.133 160.509 231.335 160.51 232.589V253.998C160.509 255.252 160.01 256.454 159.123 257.34C158.237 258.227 157.034 258.726 155.78 258.727ZM134.372 228.855C133.382 228.857 132.433 229.25 131.733 229.95C131.033 230.65 130.639 231.599 130.638 232.589V253.998C130.639 254.988 131.033 255.937 131.733 256.637C132.433 257.337 133.382 257.731 134.372 257.732H155.78C156.77 257.731 157.72 257.337 158.42 256.637C159.12 255.937 159.513 254.988 159.514 253.998V232.589C159.513 231.599 159.12 230.65 158.42 229.95C157.72 229.25 156.77 228.857 155.78 228.855H134.372Z" fill="#CCCCCC"/>
<path d="M152.046 248.77H138.106C137.71 248.77 137.33 248.612 137.05 248.332C136.77 248.052 136.613 247.672 136.612 247.276V239.311C136.613 238.915 136.77 238.535 137.05 238.255C137.33 237.975 137.71 237.817 138.106 237.817H152.046C152.442 237.817 152.822 237.975 153.102 238.255C153.382 238.535 153.539 238.915 153.54 239.311V247.276C153.539 247.672 153.382 248.052 153.102 248.332C152.822 248.612 152.442 248.77 152.046 248.77ZM138.106 238.813C137.974 238.813 137.847 238.865 137.754 238.959C137.661 239.052 137.608 239.179 137.608 239.311V247.276C137.608 247.408 137.661 247.535 137.754 247.628C137.847 247.722 137.974 247.774 138.106 247.774H152.046C152.178 247.774 152.305 247.722 152.398 247.628C152.491 247.535 152.544 247.408 152.544 247.276V239.311C152.544 239.179 152.491 239.052 152.398 238.959C152.305 238.865 152.178 238.813 152.046 238.813H138.106Z" fill="#CCCCCC"/>
<path d="M149.836 248.77H139.817C139.642 248.77 139.471 248.724 139.319 248.637C139.168 248.549 139.042 248.424 138.955 248.272C138.867 248.121 138.821 247.949 138.821 247.774C138.821 247.6 138.867 247.428 138.955 247.276L141.973 242.049C142.06 241.898 142.186 241.772 142.337 241.684C142.489 241.597 142.66 241.551 142.835 241.551C143.01 241.551 143.182 241.597 143.333 241.684C143.484 241.772 143.61 241.898 143.697 242.049L145.647 245.425L146.776 243.469C146.863 243.318 146.989 243.192 147.14 243.105C147.292 243.017 147.463 242.971 147.638 242.971C147.813 242.971 147.985 243.017 148.136 243.105C148.287 243.192 148.413 243.318 148.501 243.469L150.699 247.276C150.786 247.428 150.832 247.6 150.832 247.774C150.832 247.949 150.786 248.121 150.699 248.272C150.611 248.424 150.485 248.549 150.334 248.637C150.183 248.724 150.011 248.77 149.836 248.77ZM149.836 247.774L147.638 243.967L146.078 246.67C146.034 246.745 145.971 246.808 145.896 246.852C145.82 246.896 145.734 246.919 145.647 246.919C145.559 246.919 145.473 246.896 145.398 246.852C145.322 246.808 145.259 246.745 145.215 246.67L142.835 242.547L139.817 247.774H149.836Z" fill="#CCCCCC"/>
<path d="M150.552 241.8C151.102 241.8 151.548 241.354 151.548 240.804C151.548 240.254 151.102 239.808 150.552 239.808C150.002 239.808 149.556 240.254 149.556 240.804C149.556 241.354 150.002 241.8 150.552 241.8Z" fill="#CCCCCC"/>
<path d="M388.639 371.529L382.535 371.528L379.631 347.985L388.64 347.986L388.639 371.529Z" fill="#FFB8B8"/>
<path d="M390.195 377.446L370.515 377.445V377.196C370.515 376.19 370.713 375.194 371.098 374.264C371.483 373.335 372.047 372.491 372.758 371.779C373.47 371.068 374.314 370.504 375.244 370.119C376.173 369.734 377.169 369.536 378.175 369.536H378.176L390.196 369.536L390.195 377.446Z" fill="#2F2E41"/>
<path d="M413.531 371.529L407.427 371.528L404.524 347.985L413.532 347.986L413.531 371.529Z" fill="#FFB8B8"/>
<path d="M415.088 377.446L395.407 377.445V377.196C395.407 376.19 395.605 375.194 395.99 374.264C396.375 373.335 396.94 372.491 397.651 371.779C398.362 371.068 399.207 370.504 400.136 370.119C401.065 369.734 402.062 369.536 403.068 369.536H403.068L415.088 369.536L415.088 377.446Z" fill="#2F2E41"/>
<path d="M411.702 361.323L406.049 359.603C405.627 359.475 405.253 359.226 404.973 358.887C404.692 358.547 404.518 358.133 404.472 357.695L399.202 307.746C399.198 307.686 399.171 307.629 399.127 307.588C399.083 307.546 399.024 307.523 398.964 307.523C398.903 307.517 398.843 307.536 398.795 307.574C398.748 307.612 398.717 307.667 398.71 307.727L389.882 356.119C389.828 356.413 389.717 356.693 389.553 356.942C389.39 357.192 389.179 357.407 388.931 357.574C388.684 357.741 388.405 357.857 388.113 357.915C387.82 357.973 387.518 357.971 387.226 357.911L380.001 356.423C379.471 356.312 378.999 356.014 378.672 355.583C378.344 355.152 378.183 354.617 378.218 354.077L383.588 274.761L420.001 270.832L414.59 359.316C414.555 359.885 414.304 360.419 413.89 360.81C413.475 361.201 412.927 361.419 412.357 361.421C412.135 361.42 411.914 361.388 411.702 361.323Z" fill="#2F2E41"/>
<path d="M411.667 205.689C418.42 205.689 423.895 200.215 423.895 193.461C423.895 186.708 418.42 181.233 411.667 181.233C404.914 181.233 399.439 186.708 399.439 193.461C399.439 200.215 404.914 205.689 411.667 205.689Z" fill="#FFB8B8"/>
<path d="M383.532 275.227L391.427 225.515C391.847 222.871 392.825 220.348 394.296 218.112C395.767 215.876 397.697 213.979 399.958 212.548C402.219 211.116 404.759 210.182 407.409 209.808C410.059 209.434 412.758 209.629 415.327 210.38C419.819 211.679 423.664 214.606 426.113 218.588C428.562 222.571 429.439 227.324 428.571 231.918L420.311 276.314L383.532 275.227Z" fill="#6E1FD1"/>
<path d="M415.043 284.122C415.653 283.718 416.168 283.186 416.551 282.562C416.934 281.938 417.175 281.238 417.258 280.511C417.341 279.784 417.264 279.047 417.031 278.353C416.799 277.659 416.417 277.025 415.913 276.494L424.076 260.687L414.883 261.668L408.54 276.529C407.705 277.435 407.232 278.616 407.209 279.848C407.187 281.08 407.617 282.277 408.419 283.213C409.22 284.149 410.337 284.759 411.558 284.926C412.779 285.094 414.019 284.807 415.043 284.122Z" fill="#FFB8B8"/>
<path d="M416.791 273.706C416.339 273.642 415.918 273.442 415.583 273.133L412.46 270.247C412.122 269.934 411.889 269.524 411.792 269.074C411.695 268.624 411.738 268.155 411.916 267.731L418.158 252.935L417.273 223.701C417.4 222.761 417.711 221.855 418.188 221.036C418.666 220.217 419.3 219.499 420.055 218.925C420.81 218.351 421.67 217.931 422.587 217.69C423.505 217.448 424.46 217.39 425.4 217.518C426.34 217.647 427.245 217.959 428.064 218.437C428.883 218.915 429.599 219.55 430.173 220.305C430.746 221.061 431.165 221.922 431.406 222.839C431.646 223.756 431.704 224.712 431.575 225.652L433.089 244.029C433.549 249.606 431.968 255.161 428.639 259.66L418.905 272.82C418.717 273.073 418.479 273.284 418.205 273.438C417.931 273.593 417.627 273.688 417.314 273.718C417.14 273.735 416.964 273.731 416.791 273.706Z" fill="#6E1FD1"/>
<path d="M341.25 186.799C341.383 187.518 341.672 188.2 342.098 188.796C342.523 189.392 343.074 189.887 343.711 190.247C344.348 190.607 345.057 190.822 345.786 190.879C346.516 190.935 347.249 190.831 347.934 190.574L359.308 204.254L361.989 195.406L350.777 183.771C350.268 182.649 349.365 181.753 348.24 181.252C347.114 180.751 345.843 180.68 344.669 181.053C343.494 181.426 342.498 182.217 341.868 183.276C341.237 184.335 341.018 185.589 341.25 186.799Z" fill="#FFB8B8"/>
<path d="M350.159 192.47C350.394 192.079 350.742 191.768 351.158 191.58L355.033 189.83C355.453 189.641 355.921 189.586 356.373 189.672C356.825 189.758 357.24 189.981 357.562 190.31L368.753 201.827L396.019 212.41C396.835 212.893 397.548 213.533 398.116 214.292C398.685 215.051 399.099 215.915 399.333 216.834C399.568 217.753 399.619 218.709 399.483 219.648C399.348 220.587 399.029 221.49 398.545 222.305C398.06 223.121 397.42 223.833 396.66 224.4C395.9 224.968 395.036 225.381 394.117 225.614C393.197 225.848 392.241 225.898 391.302 225.761C390.364 225.625 389.461 225.305 388.646 224.819L371.133 219.048C365.818 217.298 361.319 213.676 358.474 208.856L350.151 194.761C349.991 194.49 349.89 194.189 349.854 193.876C349.819 193.563 349.849 193.247 349.944 192.946C349.997 192.78 350.069 192.619 350.159 192.47Z" fill="#6E1FD1"/>
<path opacity="0.1" d="M421.586 235.862L421.088 251.793L411.917 267.731L419.575 249.97L421.586 235.862Z" fill="black"/>
<path d="M410.267 195.759C409.499 195.859 408.721 195.677 408.077 195.246C407.433 194.816 406.968 194.166 406.767 193.418C406.573 192.557 406.148 191.765 405.539 191.127C404.929 190.49 404.157 190.03 403.306 189.797C401.063 189.284 398.321 190.34 396.678 188.641C396.326 188.253 396.071 187.787 395.935 187.281C395.798 186.775 395.784 186.244 395.893 185.732C396.196 184.08 397.377 182.833 398.663 181.835C401.369 179.745 404.643 178.521 408.056 178.325C409.823 178.274 411.591 178.361 413.344 178.588C415.179 178.704 416.994 179.035 418.752 179.576C420.755 180.332 422.535 181.58 423.927 183.206C425.319 184.831 426.28 186.782 426.719 188.876C427.121 190.978 427.059 193.141 426.538 195.216C426.017 197.291 425.05 199.228 423.703 200.89C422.091 202.897 420.013 204.48 417.649 205.5C417.086 205.765 416.441 205.798 415.854 205.591C414.381 205.005 414.622 203.181 415.293 201.965C416.012 200.663 417.117 199.403 416.539 197.818C416.25 197.084 415.694 196.485 414.982 196.143C413.519 195.396 411.882 195.573 410.308 195.754L410.267 195.759Z" fill="#2F2E41"/>
<path d="M337.164 202.665H185.813C183.635 202.662 181.547 201.796 180.007 200.256C178.467 198.716 177.601 196.628 177.598 194.45V162.089C177.601 159.911 178.467 157.823 180.007 156.283C181.547 154.743 183.635 153.876 185.813 153.874H337.164C339.342 153.876 341.43 154.743 342.97 156.283C344.51 157.823 345.376 159.911 345.379 162.089V194.45C345.376 196.628 344.51 198.716 342.97 200.256C341.43 201.796 339.342 202.662 337.164 202.665Z" fill="white"/>
<path d="M337.163 202.914H185.812C183.568 202.911 181.417 202.019 179.83 200.432C178.243 198.845 177.351 196.694 177.348 194.45V162.089C177.351 159.845 178.243 157.693 179.83 156.107C181.417 154.52 183.568 153.628 185.812 153.625H337.163C339.407 153.628 341.558 154.52 343.145 156.107C344.731 157.693 345.624 159.845 345.626 162.089V194.45C345.624 196.694 344.731 198.845 343.145 200.432C341.558 202.019 339.407 202.911 337.163 202.914ZM185.812 154.621C183.832 154.623 181.934 155.41 180.534 156.811C179.134 158.211 178.346 160.109 178.344 162.089V194.45C178.346 196.43 179.134 198.328 180.534 199.728C181.934 201.128 183.832 201.916 185.812 201.918H337.163C339.143 201.916 341.041 201.128 342.441 199.728C343.841 198.328 344.628 196.43 344.631 194.45V162.089C344.628 160.109 343.841 158.211 342.441 156.811C341.041 155.41 339.143 154.623 337.163 154.621H185.812Z" fill="#3F3D56"/>
<path d="M318.743 194.699H204.234C202.056 194.696 199.968 193.83 198.428 192.29C196.888 190.75 196.022 188.662 196.019 186.484V169.557C196.022 167.379 196.888 165.291 198.428 163.751C199.968 162.211 202.056 161.344 204.234 161.342H318.743C320.921 161.344 323.009 162.211 324.549 163.751C326.089 165.291 326.955 167.379 326.957 169.557V186.484C326.955 188.662 326.089 190.75 324.549 192.29C323.009 193.83 320.921 194.696 318.743 194.699Z" fill="#F2F2F2"/>
<path d="M228.876 185.575C234.301 185.575 238.7 181.177 238.7 175.751C238.7 170.325 234.301 165.927 228.876 165.927C223.45 165.927 219.052 170.325 219.052 175.751C219.052 181.177 223.45 185.575 228.876 185.575Z" fill="#D765FF"/>
<path d="M311.626 193.707L297.759 182.077L284.132 170.648C283.772 170.347 283.317 170.182 282.848 170.183C282.379 170.184 281.925 170.35 281.566 170.653L267.983 182.135L264.665 184.939L259.662 180.744L244.459 167.993C244.099 167.691 243.645 167.527 243.176 167.527C242.706 167.528 242.252 167.695 241.894 167.998L226.74 180.807L211.347 193.818C211.269 193.884 211.214 193.972 211.187 194.071C211.161 194.17 211.166 194.274 211.201 194.37C211.237 194.466 211.3 194.549 211.384 194.607C211.468 194.665 211.568 194.696 211.67 194.696L243.228 194.635L253.217 194.616L253.119 194.699L282.895 194.641L311.307 194.587C311.409 194.587 311.509 194.555 311.592 194.496C311.676 194.438 311.739 194.355 311.774 194.259C311.809 194.163 311.813 194.058 311.787 193.96C311.76 193.861 311.704 193.773 311.626 193.707Z" fill="#3F3D56"/>
<path d="M441.634 378.162H346.044C345.912 378.162 345.786 378.109 345.692 378.016C345.599 377.923 345.546 377.796 345.546 377.664C345.546 377.532 345.599 377.405 345.692 377.312C345.786 377.219 345.912 377.166 346.044 377.166H441.634C441.766 377.166 441.893 377.219 441.986 377.312C442.08 377.405 442.132 377.532 442.132 377.664C442.132 377.796 442.08 377.923 441.986 378.016C441.893 378.109 441.766 378.162 441.634 378.162Z" fill="#CCCCCC"/>
<path d="M306.606 114.513C306.208 113.866 305.683 113.308 305.062 112.871C304.442 112.435 303.739 112.129 302.996 111.973C302.724 111.916 302.448 111.881 302.17 111.869L264.237 77.9543C263.492 77.1885 262.498 76.7136 261.434 76.6151C261.224 76.5909 261.013 76.5843 260.802 76.5951C259.927 76.6349 259.082 76.9288 258.371 77.441C257.661 77.9531 257.114 78.6613 256.8 79.4788C256.485 80.2964 256.415 81.188 256.599 82.0446C256.783 82.9012 257.212 83.6857 257.835 84.3021L272.357 96.9628L296.205 117.749C296.225 118.14 296.283 118.529 296.379 118.909C296.665 120.009 297.278 120.997 298.138 121.742C298.998 122.486 300.063 122.951 301.194 123.076C302.225 123.196 303.269 123.024 304.206 122.578C304.949 122.23 305.608 121.726 306.138 121.099C306.192 121.035 306.242 120.975 306.292 120.905C306.988 119.998 307.391 118.9 307.447 117.758C307.503 116.616 307.21 115.484 306.606 114.513Z" fill="#FFB8B8"/>
<path d="M241.724 147.197L241.371 132.829L241.072 120.905L240.868 112.561L240.465 96.2956C240.385 95.4248 240.053 94.596 239.51 93.9105C238.968 93.2249 238.237 92.7122 237.407 92.4351C236.578 92.1579 235.686 92.1282 234.84 92.3496C233.994 92.571 233.231 93.0339 232.643 93.6818C232.505 93.8299 232.38 93.9898 232.27 94.1598C231.657 95.0376 231.381 96.1071 231.493 97.1719L232.379 120.905L232.823 132.829L233.39 148.039C233.226 148.262 233.078 148.497 232.947 148.741C232.593 149.412 232.379 150.148 232.318 150.905C232.258 151.662 232.351 152.423 232.594 153.142C232.847 153.896 233.256 154.588 233.796 155.173C234.336 155.757 234.994 156.22 235.725 156.532C236.457 156.844 237.247 156.997 238.042 156.982C238.838 156.967 239.621 156.783 240.34 156.443C241.176 156.048 241.901 155.453 242.452 154.711C243.003 153.969 243.363 153.103 243.5 152.189C243.636 151.275 243.546 150.342 243.236 149.471C242.927 148.601 242.408 147.82 241.724 147.197Z" fill="#FFB8B8"/>
<path d="M275.878 106.497L272.358 96.9628L266.662 81.519C266.251 80.3953 265.593 79.3786 264.735 78.5443C263.877 77.71 262.843 77.0795 261.708 76.6997C261.619 76.6698 261.524 76.6399 261.435 76.615C260.336 76.2814 259.177 76.1897 258.04 76.3461C256.902 76.5025 255.811 76.9034 254.843 77.5211L235.66 89.6889C233.903 90.8008 232.648 92.5519 232.158 94.5725C231.668 96.5931 231.983 98.7249 233.036 100.517C235.435 104.666 238.049 108.686 240.868 112.561C243.103 115.603 247.265 115.926 247.987 120.905H262.132L276.45 108.05L275.878 106.497Z" fill="#CCCCCC"/>
<path d="M56.2336 223.018C62.605 223.018 67.77 217.853 67.77 211.482C67.77 205.11 62.605 199.945 56.2336 199.945C49.8623 199.945 44.6973 205.11 44.6973 211.482C44.6973 217.853 49.8623 223.018 56.2336 223.018Z" fill="#A0616A"/>
<path d="M84.5558 203.54C84.6695 203.631 84.7797 203.727 84.8864 203.828C85.4164 204.327 85.8349 204.933 86.1145 205.605C86.3941 206.277 86.5285 207.001 86.5089 207.729C86.4893 208.457 86.3161 209.172 86.0007 209.829C85.6853 210.485 85.2348 211.067 84.6788 211.537C84.5491 211.646 84.4139 211.748 84.2736 211.842L85.0544 238.202C85.0766 239.065 84.82 239.912 84.3227 240.617C83.8254 241.323 83.1139 241.849 82.2937 242.118L82.2461 242.129L60.8436 244.408C60.2617 244.47 59.6733 244.416 59.1125 244.249C58.5516 244.082 58.0293 243.806 57.5757 243.436C57.1222 243.066 56.7464 242.611 56.47 242.095C56.1937 241.579 56.0222 241.014 55.9656 240.431C55.909 239.849 55.9683 239.261 56.1401 238.702C56.312 238.142 56.5929 237.622 56.9667 237.172C57.3405 236.722 57.7998 236.35 58.3181 236.079C58.8363 235.807 59.4033 235.641 59.9862 235.589L75.2429 234.246L77.8814 211.418C77.7088 211.265 77.5471 211.101 77.3977 210.925C76.5704 209.946 76.1365 208.694 76.1803 207.413C76.224 206.132 76.7423 204.913 77.6344 203.993C78.5266 203.073 79.7289 202.517 81.008 202.433C82.287 202.349 83.5515 202.744 84.5558 203.54Z" fill="#A0616A"/>
<path d="M75.2344 372.039H80.9932L83.7324 349.827H75.2334L75.2344 372.039Z" fill="#A0616A"/>
<path d="M73.7651 370.159L85.1055 370.158C86.0546 370.158 86.9948 370.345 87.8716 370.708C88.7485 371.072 89.5452 371.604 90.2163 372.275C90.8874 372.946 91.4197 373.743 91.7829 374.62C92.1461 375.496 92.333 376.436 92.333 377.385V377.62L73.7655 377.621L73.7651 370.159Z" fill="#2F2E41"/>
<path d="M17.998 364.077L22.9458 367.023L36.6635 349.34L29.3608 344.992L17.998 364.077Z" fill="#A0616A"/>
<path d="M17.6978 361.71L27.4418 367.512C28.2573 367.997 28.9695 368.639 29.5371 369.4C30.1047 370.16 30.5169 371.025 30.7501 371.945C30.9834 372.865 31.0332 373.822 30.8967 374.761C30.7601 375.7 30.4399 376.604 29.9543 377.419L29.8342 377.621L13.8804 368.122L17.6978 361.71Z" fill="#2F2E41"/>
<path d="M82.3509 364.194H75.9027C75.3805 364.195 74.8766 364.002 74.4884 363.653C74.1002 363.304 73.8553 362.823 73.8009 362.304L67.3002 301.197C67.2838 301.043 67.2173 300.899 67.1108 300.787C67.0044 300.675 66.8639 300.6 66.7112 300.576C66.5585 300.551 66.4019 300.578 66.2657 300.651C66.1295 300.724 66.0211 300.84 65.9574 300.981L54.23 326.949L33.4673 360.805C33.1985 361.24 32.7825 361.562 32.2953 361.715C31.808 361.867 31.2823 361.839 30.8142 361.635L22.5197 357.985C22.2454 357.865 21.9999 357.687 21.7996 357.464C21.5992 357.241 21.4484 356.979 21.3574 356.693C21.2663 356.408 21.2369 356.106 21.2712 355.808C21.3055 355.511 21.4027 355.224 21.5564 354.966L40.6431 323.007L46.4968 296.08C44.6557 284.403 52.5483 267.042 52.6284 266.868L52.6675 266.783L74.408 258.285L74.517 258.419C83.0908 286.555 88.3153 316.834 84.4577 362.257C84.4102 362.784 84.168 363.275 83.7784 363.633C83.3889 363.991 82.8799 364.191 82.3509 364.194Z" fill="#2F2E41"/>
<path d="M51.7923 269.628L51.691 269.415C51.6426 269.313 46.8085 259.117 43.082 248.22C42.3658 246.113 42.095 243.88 42.2869 241.662C42.4787 239.445 43.129 237.292 44.1965 235.339C45.2778 233.366 46.7572 231.638 48.5409 230.267C50.3245 228.895 52.3736 227.909 54.5583 227.371C58.351 226.462 62.3441 226.945 65.8101 228.734C69.2761 230.522 71.9842 233.496 73.4412 237.114C76.3971 244.506 75.4551 252.396 74.5685 258.6L74.5509 258.725L74.4378 258.779L51.7923 269.628Z" fill="#3F3D56"/>
<path d="M70.2212 204.965H51.9028V196.98C55.9235 195.383 59.8579 194.024 62.2363 196.98C64.354 196.98 66.385 197.821 67.8824 199.319C69.3799 200.816 70.2212 202.847 70.2212 204.965Z" fill="#2F2E41"/>
<path d="M50.8893 195.571C39.9383 195.571 36.873 209.298 36.873 217.042C36.873 221.36 38.8262 222.905 41.8953 223.428L42.9792 217.647L45.5178 223.676C46.3799 223.681 47.2856 223.664 48.2245 223.647L49.0853 221.874L51.0047 223.615C58.6921 223.626 64.9054 224.747 64.9054 217.042C64.9054 209.298 62.2172 195.571 50.8893 195.571Z" fill="#2F2E41"/>
<path d="M101.956 378.162H6.36554C6.2335 378.162 6.10686 378.109 6.0135 378.016C5.92013 377.923 5.86768 377.796 5.86768 377.664C5.86768 377.532 5.92013 377.405 6.0135 377.312C6.10686 377.219 6.2335 377.166 6.36554 377.166H101.956C102.088 377.166 102.214 377.219 102.308 377.312C102.401 377.405 102.453 377.532 102.453 377.664C102.453 377.796 102.401 377.923 102.308 378.016C102.214 378.109 102.088 378.162 101.956 378.162Z" fill="#CCCCCC"/>
<path d="M103.753 214.364H82.3449C81.091 214.363 79.8888 213.864 79.0021 212.978C78.1154 212.091 77.6167 210.889 77.6152 209.635V188.227C77.6167 186.973 78.1154 185.77 79.0021 184.884C79.8888 183.997 81.091 183.498 82.3449 183.497H103.753C105.007 183.498 106.209 183.997 107.096 184.884C107.983 185.77 108.481 186.973 108.483 188.227V209.635C108.481 210.889 107.983 212.091 107.096 212.978C106.209 213.864 105.007 214.363 103.753 214.364Z" fill="white"/>
<path d="M103.753 214.364H82.3449C81.091 214.363 79.8888 213.864 79.0021 212.978C78.1154 212.091 77.6167 210.889 77.6152 209.635V188.227C77.6167 186.973 78.1154 185.77 79.0021 184.884C79.8888 183.997 81.091 183.498 82.3449 183.497H103.753C105.007 183.498 106.209 183.997 107.096 184.884C107.983 185.77 108.481 186.973 108.483 188.227V209.635C108.481 210.889 107.983 212.091 107.096 212.978C106.209 213.864 105.007 214.363 103.753 214.364ZM82.3449 184.493C81.355 184.494 80.4059 184.887 79.7058 185.587C79.0058 186.287 78.6121 187.237 78.611 188.227V209.635C78.6121 210.625 79.0058 211.574 79.7058 212.274C80.4059 212.974 81.355 213.368 82.3449 213.369H103.753C104.743 213.368 105.692 212.974 106.392 212.274C107.092 211.574 107.486 210.625 107.487 209.635V188.227C107.486 187.237 107.092 186.287 106.392 185.587C105.692 184.887 104.743 184.494 103.753 184.493H82.3449Z" fill="#3F3D56"/>
<path d="M100.019 205.652H86.0786C85.6826 205.652 85.3029 205.494 85.0229 205.214C84.7429 204.934 84.5854 204.554 84.585 204.158V193.703C84.5854 193.307 84.7429 192.928 85.0229 192.648C85.3029 192.368 85.6826 192.21 86.0786 192.21H90.0029C90.2581 192.209 90.5093 192.274 90.7322 192.398C90.955 192.523 91.142 192.702 91.275 192.92L92.3694 194.699H100.019C100.415 194.699 100.794 194.857 101.074 195.137C101.354 195.417 101.512 195.797 101.512 196.193V204.158C101.512 204.554 101.354 204.934 101.074 205.214C100.794 205.494 100.415 205.652 100.019 205.652Z" fill="#6E1FD1"/>
<path d="M99.5652 210.934C99.6349 211.061 99.6992 211.192 99.7582 211.327C100.053 211.993 100.204 212.714 100.2 213.442C100.197 214.17 100.04 214.889 99.7399 215.552C99.4394 216.215 99.0021 216.807 98.4568 217.29C97.9115 217.772 97.2704 218.134 96.5755 218.351C96.4138 218.401 96.2496 218.443 96.0836 218.476L86.5747 243.073C86.2603 243.876 85.6951 244.558 84.963 245.015C84.2309 245.472 83.3708 245.681 82.5105 245.611L82.4627 245.602L61.8527 239.398C61.2924 239.229 60.771 238.951 60.3187 238.579C59.8665 238.208 59.4922 237.751 59.2176 237.234C58.9431 236.717 58.7736 236.151 58.719 235.569C58.6644 234.986 58.7258 234.398 58.8997 233.84C59.0735 233.281 59.3563 232.762 59.7317 232.313C60.1072 231.864 60.5679 231.494 61.0871 231.224C61.6064 230.954 62.174 230.79 62.7571 230.741C63.3402 230.692 63.9273 230.758 64.4845 230.937L79.0671 235.619L90.3569 215.604C90.2571 215.396 90.1721 215.182 90.1024 214.962C89.7199 213.739 89.8057 212.417 90.3432 211.253C90.8806 210.09 91.8313 209.167 93.0106 208.665C94.1899 208.163 95.5138 208.117 96.725 208.537C97.9363 208.956 98.9485 209.81 99.5652 210.934Z" fill="#A0616A"/>
</g>
<defs>
<clipPath id="clip0_302_995">
<rect width="436.265" height="329.324" fill="white" transform="translate(5.86768 48.8379)"/>
</clipPath>
</defs>
</svg>
