<svg width="448" height="427" viewBox="0 0 448 427" fill="none" xmlns="http://www.w3.org/2000/svg">
<g clip-path="url(#clip0_302_1519)">
<path d="M259.474 112.262C267.533 112.262 274.066 105.729 274.066 97.6701C274.066 89.6111 267.533 83.078 259.474 83.078C251.415 83.078 244.882 89.6111 244.882 97.6701C244.882 105.729 251.415 112.262 259.474 112.262Z" fill="#F2F2F2"/>
<path d="M372.67 328.825C394.359 312.305 404.719 284.544 398.233 258.062C398.072 257.404 397.902 256.748 397.723 256.093C393.423 240.373 382.786 225.434 367.283 220.411C354.265 216.193 340.056 219.437 326.475 217.759C299.816 214.467 279.148 192.897 264.605 170.312C250.062 147.728 238.886 122.448 219.561 103.79C187.709 73.035 135.749 66.4135 96.2557 86.4325C56.7627 106.452 31.6062 150.866 32.679 195.13C33.7519 239.394 60.0295 281.713 98.1911 304.166C112.21 312.415 128.424 318.258 144.561 316.213C158.562 314.439 171.285 306.916 185.22 304.682C207.13 301.171 228.9 311.077 247.851 322.621C266.801 334.164 285.106 347.847 306.641 353.199C327.551 358.395 353.456 343.459 372.67 328.825Z" fill="#F2F2F2"/>
<path d="M341.507 87.362C341.032 87.0451 340.551 86.7445 340.075 86.4384C326.331 77.6484 311.6 70.5074 296.186 65.1631L292.611 114.469H269.953V57.9656C268.527 57.6705 267.09 57.3918 265.652 57.1295V114.469H238.726C223.903 114.469 209.687 108.58 199.205 98.0986C188.724 87.617 182.835 73.4009 182.835 58.5778C181.392 58.8893 179.961 59.2226 178.529 59.5778V114.469H156.598L153.193 67.4529C137.352 73.528 122.314 81.5171 108.412 91.2422C108.172 91.4062 107.931 91.5756 107.696 91.7395C106.489 92.5866 105.297 93.4501 104.111 94.3245V282.426H168.746L167.604 266.604L161.319 179.738H287.884L281.599 266.604L280.457 282.426H344.376V89.2639C343.425 88.619 342.469 87.9851 341.507 87.362ZM178.529 165.392H160.281L156.909 118.775H178.529V165.392ZM265.652 165.392H235.004V164.468C235.004 164.024 234.917 163.585 234.747 163.174C234.577 162.764 234.328 162.392 234.013 162.078C233.699 161.764 233.326 161.516 232.916 161.346C232.505 161.177 232.066 161.09 231.622 161.091H218.298C217.854 161.091 217.415 161.178 217.005 161.348C216.595 161.517 216.223 161.766 215.909 162.08C215.596 162.393 215.347 162.766 215.177 163.176C215.008 163.585 214.92 164.025 214.92 164.468V165.392H182.835V118.775H265.652V165.392ZM269.953 165.392V118.775H292.3L288.928 165.392H269.953Z" fill="#3F3D56"/>
<path d="M9 294.471C13.7476 300.097 18.8827 305.383 24.3677 310.292L423.632 310.839C429.117 305.93 434.252 300.643 439 295.018L9 294.471Z" fill="#3F3D56"/>
<path d="M279.754 243.81V290.648C279.754 291.245 279.992 291.817 280.414 292.239C280.836 292.661 281.408 292.899 282.005 292.899H351.413C352.01 292.899 352.583 292.661 353.005 292.239C353.427 291.817 353.664 291.245 353.664 290.648V243.81C353.663 243.214 353.425 242.643 353.003 242.221C352.582 241.8 352.01 241.563 351.413 241.562H282.005C281.409 241.563 280.837 241.8 280.415 242.221C279.993 242.643 279.755 243.214 279.754 243.81Z" fill="#3F3D56"/>
<path d="M281.383 244.393V290.07C281.383 290.389 281.51 290.695 281.736 290.92C281.961 291.146 282.267 291.273 282.586 291.273H350.836C351.155 291.273 351.461 291.146 351.686 290.92C351.912 290.695 352.039 290.389 352.039 290.07V244.393C352.039 244.074 351.913 243.768 351.687 243.542C351.462 243.316 351.156 243.188 350.836 243.188H282.586C282.267 243.188 281.961 243.316 281.735 243.542C281.51 243.768 281.383 244.074 281.383 244.393Z" fill="#6E1FD1"/>
<path d="M278.303 299.783C278.43 299.942 278.591 300.07 278.775 300.159C278.959 300.247 279.161 300.292 279.365 300.291H353.685C353.888 300.29 354.089 300.245 354.272 300.157C354.456 300.07 354.617 299.942 354.745 299.785C354.873 299.627 354.965 299.442 355.012 299.245C355.06 299.047 355.063 298.842 355.022 298.643L353.868 293.163C353.82 292.939 353.717 292.731 353.568 292.558C353.42 292.384 353.23 292.251 353.016 292.169C352.862 292.109 352.697 292.078 352.531 292.078H280.514C280.348 292.078 280.183 292.109 280.029 292.169C279.815 292.251 279.625 292.384 279.476 292.558C279.328 292.731 279.225 292.939 279.177 293.163L278.023 298.643C277.982 298.841 277.986 299.047 278.034 299.244C278.083 299.441 278.174 299.625 278.303 299.783Z" fill="#2F2E41"/>
<path d="M349.981 294.438H351.736C351.883 294.438 352.003 294.319 352.003 294.171V293.331C352.003 293.184 351.883 293.065 351.736 293.065H349.981C349.833 293.065 349.714 293.184 349.714 293.331V294.171C349.714 294.319 349.833 294.438 349.981 294.438Z" fill="#3F3D56"/>
<path d="M345.403 294.438H347.158C347.306 294.438 347.425 294.319 347.425 294.171V293.331C347.425 293.184 347.306 293.065 347.158 293.065H345.403C345.256 293.065 345.136 293.184 345.136 293.331V294.171C345.136 294.319 345.256 294.438 345.403 294.438Z" fill="#3F3D56"/>
<path d="M340.825 294.438H342.58C342.728 294.438 342.847 294.319 342.847 294.171V293.331C342.847 293.184 342.728 293.065 342.58 293.065H340.825C340.678 293.065 340.558 293.184 340.558 293.331V294.171C340.558 294.319 340.678 294.438 340.825 294.438Z" fill="#3F3D56"/>
<path d="M336.247 294.438H338.002C338.15 294.438 338.269 294.319 338.269 294.171V293.331C338.269 293.184 338.15 293.065 338.002 293.065H336.247C336.099 293.065 335.98 293.184 335.98 293.331V294.171C335.98 294.319 336.099 294.438 336.247 294.438Z" fill="#3F3D56"/>
<path d="M331.669 294.438H333.424C333.571 294.438 333.691 294.319 333.691 294.171V293.331C333.691 293.184 333.571 293.065 333.424 293.065H331.669C331.521 293.065 331.402 293.184 331.402 293.331V294.171C331.402 294.319 331.521 294.438 331.669 294.438Z" fill="#3F3D56"/>
<path d="M327.091 294.438H328.846C328.993 294.438 329.113 294.319 329.113 294.171V293.331C329.113 293.184 328.993 293.065 328.846 293.065H327.091C326.943 293.065 326.824 293.184 326.824 293.331V294.171C326.824 294.319 326.943 294.438 327.091 294.438Z" fill="#3F3D56"/>
<path d="M322.512 294.438H324.268C324.415 294.438 324.535 294.319 324.535 294.171V293.331C324.535 293.184 324.415 293.065 324.268 293.065H322.512C322.365 293.065 322.246 293.184 322.246 293.331V294.171C322.246 294.319 322.365 294.438 322.512 294.438Z" fill="#3F3D56"/>
<path d="M317.935 294.438H319.69C319.838 294.438 319.957 294.319 319.957 294.171V293.331C319.957 293.184 319.838 293.065 319.69 293.065H317.935C317.787 293.065 317.668 293.184 317.668 293.331V294.171C317.668 294.319 317.787 294.438 317.935 294.438Z" fill="#3F3D56"/>
<path d="M313.357 294.438H315.112C315.259 294.438 315.379 294.319 315.379 294.171V293.331C315.379 293.184 315.259 293.065 315.112 293.065H313.357C313.209 293.065 313.09 293.184 313.09 293.331V294.171C313.09 294.319 313.209 294.438 313.357 294.438Z" fill="#3F3D56"/>
<path d="M308.779 294.438H310.534C310.681 294.438 310.801 294.319 310.801 294.171V293.331C310.801 293.184 310.681 293.065 310.534 293.065H308.779C308.631 293.065 308.512 293.184 308.512 293.331V294.171C308.512 294.319 308.631 294.438 308.779 294.438Z" fill="#3F3D56"/>
<path d="M304.2 294.438H305.956C306.103 294.438 306.223 294.319 306.223 294.171V293.331C306.223 293.184 306.103 293.065 305.956 293.065H304.2C304.053 293.065 303.934 293.184 303.934 293.331V294.171C303.934 294.319 304.053 294.438 304.2 294.438Z" fill="#3F3D56"/>
<path d="M299.622 294.438H301.378C301.525 294.438 301.645 294.319 301.645 294.171V293.331C301.645 293.184 301.525 293.065 301.378 293.065H299.622C299.475 293.065 299.355 293.184 299.355 293.331V294.171C299.355 294.319 299.475 294.438 299.622 294.438Z" fill="#3F3D56"/>
<path d="M295.045 294.438H296.8C296.947 294.438 297.067 294.319 297.067 294.171V293.331C297.067 293.184 296.947 293.065 296.8 293.065H295.045C294.897 293.065 294.778 293.184 294.778 293.331V294.171C294.778 294.319 294.897 294.438 295.045 294.438Z" fill="#3F3D56"/>
<path d="M290.467 294.438H292.222C292.369 294.438 292.489 294.319 292.489 294.171V293.331C292.489 293.184 292.369 293.065 292.222 293.065H290.467C290.319 293.065 290.2 293.184 290.2 293.331V294.171C290.2 294.319 290.319 294.438 290.467 294.438Z" fill="#3F3D56"/>
<path d="M285.888 294.438H287.644C287.791 294.438 287.911 294.319 287.911 294.171V293.331C287.911 293.184 287.791 293.065 287.644 293.065H285.888C285.741 293.065 285.622 293.184 285.622 293.331V294.171C285.622 294.319 285.741 294.438 285.888 294.438Z" fill="#3F3D56"/>
<path d="M281.31 294.438H283.066C283.213 294.438 283.333 294.319 283.333 294.171V293.331C283.333 293.184 283.213 293.065 283.066 293.065H281.31C281.163 293.065 281.044 293.184 281.044 293.331V294.171C281.044 294.319 281.163 294.438 281.31 294.438Z" fill="#3F3D56"/>
<path d="M350.035 296.727H351.791C351.938 296.727 352.058 296.608 352.058 296.46V295.62C352.058 295.473 351.938 295.354 351.791 295.354H350.035C349.888 295.354 349.769 295.473 349.769 295.62V296.46C349.769 296.608 349.888 296.727 350.035 296.727Z" fill="#3F3D56"/>
<path d="M345.457 296.727H347.213C347.36 296.727 347.479 296.608 347.479 296.46V295.62C347.479 295.473 347.36 295.354 347.213 295.354H345.457C345.31 295.354 345.19 295.473 345.19 295.62V296.46C345.19 296.608 345.31 296.727 345.457 296.727Z" fill="#3F3D56"/>
<path d="M340.879 296.727H342.635C342.782 296.727 342.901 296.608 342.901 296.46V295.62C342.901 295.473 342.782 295.354 342.635 295.354H340.879C340.732 295.354 340.612 295.473 340.612 295.62V296.46C340.612 296.608 340.732 296.727 340.879 296.727Z" fill="#3F3D56"/>
<path d="M336.301 296.727H338.056C338.204 296.727 338.323 296.608 338.323 296.46V295.62C338.323 295.473 338.204 295.354 338.056 295.354H336.301C336.154 295.354 336.034 295.473 336.034 295.62V296.46C336.034 296.608 336.154 296.727 336.301 296.727Z" fill="#3F3D56"/>
<path d="M331.723 296.727H333.479C333.626 296.727 333.746 296.608 333.746 296.46V295.62C333.746 295.473 333.626 295.354 333.479 295.354H331.723C331.576 295.354 331.457 295.473 331.457 295.62V296.46C331.457 296.608 331.576 296.727 331.723 296.727Z" fill="#3F3D56"/>
<path d="M327.145 296.727H328.901C329.048 296.727 329.167 296.608 329.167 296.46V295.62C329.167 295.473 329.048 295.354 328.901 295.354H327.145C326.998 295.354 326.878 295.473 326.878 295.62V296.46C326.878 296.608 326.998 296.727 327.145 296.727Z" fill="#3F3D56"/>
<path d="M322.567 296.727H324.323C324.47 296.727 324.589 296.608 324.589 296.46V295.62C324.589 295.473 324.47 295.354 324.323 295.354H322.567C322.42 295.354 322.3 295.473 322.3 295.62V296.46C322.3 296.608 322.42 296.727 322.567 296.727Z" fill="#3F3D56"/>
<path d="M317.989 296.727H319.744C319.892 296.727 320.011 296.608 320.011 296.46V295.62C320.011 295.473 319.892 295.354 319.744 295.354H317.989C317.842 295.354 317.722 295.473 317.722 295.62V296.46C317.722 296.608 317.842 296.727 317.989 296.727Z" fill="#3F3D56"/>
<path d="M313.41 296.727H315.166C315.313 296.727 315.433 296.608 315.433 296.46V295.62C315.433 295.473 315.313 295.354 315.166 295.354H313.41C313.263 295.354 313.144 295.473 313.144 295.62V296.46C313.144 296.608 313.263 296.727 313.41 296.727Z" fill="#3F3D56"/>
<path d="M308.833 296.727H310.589C310.736 296.727 310.855 296.608 310.855 296.46V295.62C310.855 295.473 310.736 295.354 310.589 295.354H308.833C308.686 295.354 308.566 295.473 308.566 295.62V296.46C308.566 296.608 308.686 296.727 308.833 296.727Z" fill="#3F3D56"/>
<path d="M304.255 296.727H306.01C306.157 296.727 306.277 296.608 306.277 296.46V295.62C306.277 295.473 306.157 295.354 306.01 295.354H304.255C304.107 295.354 303.988 295.473 303.988 295.62V296.46C303.988 296.608 304.107 296.727 304.255 296.727Z" fill="#3F3D56"/>
<path d="M299.676 296.727H301.432C301.579 296.727 301.699 296.608 301.699 296.46V295.62C301.699 295.473 301.579 295.354 301.432 295.354H299.676C299.529 295.354 299.41 295.473 299.41 295.62V296.46C299.41 296.608 299.529 296.727 299.676 296.727Z" fill="#3F3D56"/>
<path d="M295.098 296.727H296.854C297.001 296.727 297.121 296.608 297.121 296.46V295.62C297.121 295.473 297.001 295.354 296.854 295.354H295.098C294.951 295.354 294.832 295.473 294.832 295.62V296.46C294.832 296.608 294.951 296.727 295.098 296.727Z" fill="#3F3D56"/>
<path d="M290.52 296.727H292.276C292.423 296.727 292.542 296.608 292.542 296.46V295.62C292.542 295.473 292.423 295.354 292.276 295.354H290.52C290.373 295.354 290.253 295.473 290.253 295.62V296.46C290.253 296.608 290.373 296.727 290.52 296.727Z" fill="#3F3D56"/>
<path d="M285.942 296.727H287.698C287.845 296.727 287.964 296.608 287.964 296.46V295.62C287.964 295.473 287.845 295.354 287.698 295.354H285.942C285.795 295.354 285.675 295.473 285.675 295.62V296.46C285.675 296.608 285.795 296.727 285.942 296.727Z" fill="#3F3D56"/>
<path d="M281.364 296.727H283.12C283.267 296.727 283.387 296.608 283.387 296.46V295.62C283.387 295.473 283.267 295.354 283.12 295.354H281.364C281.217 295.354 281.098 295.473 281.098 295.62V296.46C281.098 296.608 281.217 296.727 281.364 296.727Z" fill="#3F3D56"/>
<path d="M312.037 299.474H329.816C329.963 299.474 330.083 299.354 330.083 299.207V298.367C330.083 298.22 329.963 298.1 329.816 298.1H312.037C311.89 298.1 311.77 298.22 311.77 298.367V299.207C311.77 299.354 311.89 299.474 312.037 299.474Z" fill="#3F3D56"/>
<path d="M293.202 253.181H291.648C291.176 253.181 290.794 253.563 290.794 254.034C290.794 254.505 291.176 254.887 291.648 254.887H293.202C293.673 254.887 294.055 254.505 294.055 254.034C294.055 253.563 293.673 253.181 293.202 253.181Z" fill="white"/>
<path d="M310.976 253.181H309.422C308.95 253.181 308.568 253.563 308.568 254.034C308.568 254.505 308.95 254.887 309.422 254.887H310.976C311.447 254.887 311.829 254.505 311.829 254.034C311.829 253.563 311.447 253.181 310.976 253.181Z" fill="white"/>
<path d="M316.012 253.181H314.458C313.986 253.181 313.604 253.563 313.604 254.034C313.604 254.505 313.986 254.887 314.458 254.887H316.012C316.483 254.887 316.865 254.505 316.865 254.034C316.865 253.563 316.483 253.181 316.012 253.181Z" fill="white"/>
<path d="M306.141 253.038H296.482C296.011 253.038 295.629 253.42 295.629 253.892C295.629 254.363 296.011 254.745 296.482 254.745H306.141C306.612 254.745 306.994 254.363 306.994 253.892C306.994 253.42 306.612 253.038 306.141 253.038Z" fill="white"/>
<path d="M329.84 253.038H320.181C319.71 253.038 319.328 253.42 319.328 253.892C319.328 254.363 319.71 254.745 320.181 254.745H329.84C330.311 254.745 330.693 254.363 330.693 253.892C330.693 253.42 330.311 253.038 329.84 253.038Z" fill="white"/>
<path d="M297.941 257.032H296.387C295.916 257.032 295.534 257.414 295.534 257.885C295.534 258.356 295.916 258.738 296.387 258.738H297.941C298.413 258.738 298.795 258.356 298.795 257.885C298.795 257.414 298.413 257.032 297.941 257.032Z" fill="white"/>
<path d="M315.715 257.032H314.161C313.69 257.032 313.308 257.414 313.308 257.885C313.308 258.356 313.69 258.738 314.161 258.738H315.715C316.187 258.738 316.568 258.356 316.568 257.885C316.568 257.414 316.187 257.032 315.715 257.032Z" fill="white"/>
<path d="M320.751 257.032H319.197C318.726 257.032 318.344 257.414 318.344 257.885C318.344 258.356 318.726 258.738 319.197 258.738H320.751C321.223 258.738 321.605 258.356 321.605 257.885C321.605 257.414 321.223 257.032 320.751 257.032Z" fill="white"/>
<path d="M310.881 256.889H301.222C300.751 256.889 300.369 257.271 300.369 257.743C300.369 258.214 300.751 258.596 301.222 258.596H310.881C311.352 258.596 311.734 258.214 311.734 257.743C311.734 257.271 311.352 256.889 310.881 256.889Z" fill="white"/>
<path d="M334.579 256.889H324.921C324.449 256.889 324.067 257.271 324.067 257.743C324.067 258.214 324.449 258.596 324.921 258.596H334.579C335.051 258.596 335.433 258.214 335.433 257.743C335.433 257.271 335.051 256.889 334.579 256.889Z" fill="white"/>
<path d="M302.681 260.883H301.127C300.656 260.883 300.274 261.265 300.274 261.736C300.274 262.207 300.656 262.589 301.127 262.589H302.681C303.152 262.589 303.534 262.207 303.534 261.736C303.534 261.265 303.152 260.883 302.681 260.883Z" fill="white"/>
<path d="M320.455 260.883H318.901C318.43 260.883 318.048 261.265 318.048 261.736C318.048 262.207 318.43 262.589 318.901 262.589H320.455C320.926 262.589 321.308 262.207 321.308 261.736C321.308 261.265 320.926 260.883 320.455 260.883Z" fill="white"/>
<path d="M325.491 260.883H323.937C323.466 260.883 323.084 261.265 323.084 261.736C323.084 262.207 323.466 262.589 323.937 262.589H325.491C325.962 262.589 326.344 262.207 326.344 261.736C326.344 261.265 325.962 260.883 325.491 260.883Z" fill="white"/>
<path d="M315.62 260.74H305.962C305.49 260.74 305.108 261.122 305.108 261.594C305.108 262.065 305.49 262.447 305.962 262.447H315.62C316.092 262.447 316.474 262.065 316.474 261.594C316.474 261.122 316.092 260.74 315.62 260.74Z" fill="white"/>
<path d="M339.319 260.74H329.66C329.189 260.74 328.807 261.122 328.807 261.594C328.807 262.065 329.189 262.447 329.66 262.447H339.319C339.79 262.447 340.172 262.065 340.172 261.594C340.172 261.122 339.79 260.74 339.319 260.74Z" fill="white"/>
<path d="M307.421 264.734H305.867C305.396 264.734 305.014 265.116 305.014 265.587C305.014 266.058 305.396 266.44 305.867 266.44H307.421C307.892 266.44 308.274 266.058 308.274 265.587C308.274 265.116 307.892 264.734 307.421 264.734Z" fill="white"/>
<path d="M325.195 264.734H323.641C323.17 264.734 322.788 265.116 322.788 265.587C322.788 266.058 323.17 266.44 323.641 266.44H325.195C325.666 266.44 326.048 266.058 326.048 265.587C326.048 265.116 325.666 264.734 325.195 264.734Z" fill="white"/>
<path d="M330.231 264.734H328.677C328.206 264.734 327.824 265.116 327.824 265.587C327.824 266.058 328.206 266.44 328.677 266.44H330.231C330.702 266.44 331.084 266.058 331.084 265.587C331.084 265.116 330.702 264.734 330.231 264.734Z" fill="white"/>
<path d="M320.36 264.591H310.701C310.23 264.591 309.848 264.973 309.848 265.445C309.848 265.916 310.23 266.298 310.701 266.298H320.36C320.831 266.298 321.213 265.916 321.213 265.445C321.213 264.973 320.831 264.591 320.36 264.591Z" fill="white"/>
<path d="M310.976 280.047H309.422C308.95 280.047 308.568 280.429 308.568 280.9C308.568 281.371 308.95 281.753 309.422 281.753H310.976C311.447 281.753 311.829 281.371 311.829 280.9C311.829 280.429 311.447 280.047 310.976 280.047Z" fill="white"/>
<path d="M316.012 280.047H314.458C313.986 280.047 313.604 280.429 313.604 280.9C313.604 281.371 313.986 281.753 314.458 281.753H316.012C316.483 281.753 316.865 281.371 316.865 280.9C316.865 280.429 316.483 280.047 316.012 280.047Z" fill="white"/>
<path d="M329.84 280.189H320.181C319.71 280.189 319.328 280.571 319.328 281.042C319.328 281.514 319.71 281.895 320.181 281.895H329.84C330.311 281.895 330.693 281.514 330.693 281.042C330.693 280.571 330.311 280.189 329.84 280.189Z" fill="white"/>
<path d="M293.202 280.047H291.648C291.176 280.047 290.794 280.429 290.794 280.9C290.794 281.371 291.176 281.753 291.648 281.753H293.202C293.673 281.753 294.055 281.371 294.055 280.9C294.055 280.429 293.673 280.047 293.202 280.047Z" fill="white"/>
<path d="M306.141 280.189H296.482C296.011 280.189 295.629 280.571 295.629 281.042C295.629 281.514 296.011 281.895 296.482 281.895H306.141C306.612 281.895 306.994 281.514 306.994 281.042C306.994 280.571 306.612 280.189 306.141 280.189Z" fill="white"/>
<path d="M297.941 276.196H296.387C295.916 276.196 295.534 276.578 295.534 277.049C295.534 277.52 295.916 277.902 296.387 277.902H297.941C298.413 277.902 298.795 277.52 298.795 277.049C298.795 276.578 298.413 276.196 297.941 276.196Z" fill="white"/>
<path d="M315.715 276.196H314.161C313.69 276.196 313.308 276.578 313.308 277.049C313.308 277.52 313.69 277.902 314.161 277.902H315.715C316.187 277.902 316.568 277.52 316.568 277.049C316.568 276.578 316.187 276.196 315.715 276.196Z" fill="white"/>
<path d="M320.751 276.196H319.197C318.726 276.196 318.344 276.578 318.344 277.049C318.344 277.52 318.726 277.902 319.197 277.902H320.751C321.223 277.902 321.605 277.52 321.605 277.049C321.605 276.578 321.223 276.196 320.751 276.196Z" fill="white"/>
<path d="M310.881 276.338H301.222C300.751 276.338 300.369 276.72 300.369 277.191C300.369 277.663 300.751 278.045 301.222 278.045H310.881C311.352 278.045 311.734 277.663 311.734 277.191C311.734 276.72 311.352 276.338 310.881 276.338Z" fill="white"/>
<path d="M302.681 272.345H301.127C300.656 272.345 300.274 272.727 300.274 273.198C300.274 273.669 300.656 274.051 301.127 274.051H302.681C303.152 274.051 303.534 273.669 303.534 273.198C303.534 272.727 303.152 272.345 302.681 272.345Z" fill="white"/>
<path d="M320.455 272.345H318.901C318.43 272.345 318.048 272.727 318.048 273.198C318.048 273.669 318.43 274.051 318.901 274.051H320.455C320.926 274.051 321.308 273.669 321.308 273.198C321.308 272.727 320.926 272.345 320.455 272.345Z" fill="white"/>
<path d="M325.491 272.345H323.937C323.466 272.345 323.084 272.727 323.084 273.198C323.084 273.669 323.466 274.051 323.937 274.051H325.491C325.962 274.051 326.344 273.669 326.344 273.198C326.344 272.727 325.962 272.345 325.491 272.345Z" fill="white"/>
<path d="M315.62 272.487H305.962C305.49 272.487 305.108 272.869 305.108 273.34C305.108 273.811 305.49 274.193 305.962 274.193H315.62C316.092 274.193 316.474 273.811 316.474 273.34C316.474 272.869 316.092 272.487 315.62 272.487Z" fill="white"/>
<path d="M307.421 268.494H305.867C305.396 268.494 305.014 268.876 305.014 269.347C305.014 269.818 305.396 270.2 305.867 270.2H307.421C307.892 270.2 308.274 269.818 308.274 269.347C308.274 268.876 307.892 268.494 307.421 268.494Z" fill="white"/>
<path d="M325.195 268.494H323.641C323.17 268.494 322.788 268.876 322.788 269.347C322.788 269.818 323.17 270.2 323.641 270.2H325.195C325.666 270.2 326.048 269.818 326.048 269.347C326.048 268.876 325.666 268.494 325.195 268.494Z" fill="white"/>
<path d="M330.231 268.494H328.677C328.206 268.494 327.824 268.876 327.824 269.347C327.824 269.818 328.206 270.2 328.677 270.2H330.231C330.702 270.2 331.084 269.818 331.084 269.347C331.084 268.876 330.702 268.494 330.231 268.494Z" fill="white"/>
<path d="M320.36 268.636H310.701C310.23 268.636 309.848 269.018 309.848 269.489C309.848 269.96 310.23 270.342 310.701 270.342H320.36C320.831 270.342 321.213 269.96 321.213 269.489C321.213 269.018 320.831 268.636 320.36 268.636Z" fill="white"/>
<path d="M284.939 325.18L277.644 313.647L300.543 295.393L309.995 284.921C311.223 283.561 312.787 282.546 314.529 281.979C316.272 281.412 318.133 281.313 319.927 281.691C321.72 282.068 323.383 282.91 324.749 284.132C326.115 285.353 327.137 286.912 327.712 288.653C328.564 291.231 328.38 294.04 327.201 296.486C326.021 298.933 323.937 300.825 321.389 301.764L306.442 307.27L284.939 325.18Z" fill="#FFB6B6"/>
<path d="M113.76 241.564V297.613H153.026V241.564C153.027 241.161 152.898 240.768 152.659 240.444C152.42 240.119 152.083 239.88 151.698 239.761C151.517 239.701 151.326 239.671 151.135 239.673H115.656C115.407 239.673 115.161 239.721 114.931 239.816C114.701 239.911 114.492 240.05 114.316 240.226C114.14 240.401 114 240.61 113.905 240.839C113.809 241.069 113.76 241.315 113.76 241.564ZM129.084 260.823C129.094 259.718 129.54 258.662 130.325 257.884C131.11 257.106 132.17 256.67 133.275 256.67C134.38 256.67 135.441 257.106 136.226 257.884C137.011 258.662 137.457 259.718 137.467 260.823V267.326C137.461 268.434 137.017 269.495 136.232 270.276C135.446 271.058 134.383 271.497 133.275 271.497C132.167 271.497 131.104 271.058 130.319 270.276C129.534 269.495 129.089 268.434 129.084 267.326V260.823Z" fill="#2F2E41"/>
<path d="M113.639 295.821V301.226C113.64 301.506 113.751 301.774 113.948 301.973C114.146 302.171 114.413 302.284 114.693 302.286H152.091C152.371 302.285 152.639 302.172 152.837 301.974C153.035 301.775 153.145 301.506 153.145 301.226V295.821H113.639Z" fill="#3F3D56"/>
<path d="M51.9878 157.118V259.457C51.9888 260.761 52.5074 262.011 53.4295 262.933C54.3517 263.856 55.6022 264.374 56.9063 264.375H208.561C209.865 264.374 211.116 263.856 212.038 262.933C212.96 262.011 213.479 260.761 213.48 259.457V157.118C213.477 155.815 212.957 154.567 212.035 153.646C211.113 152.725 209.864 152.207 208.561 152.205H56.9063C55.6033 152.207 54.354 152.725 53.4322 153.646C52.5103 154.567 51.9909 155.815 51.9878 157.118Z" fill="#3F3D56"/>
<path d="M55.5459 158.392V258.194C55.5471 258.891 55.8244 259.559 56.3171 260.052C56.8099 260.544 57.4778 260.822 58.1746 260.823H207.299C207.996 260.822 208.664 260.544 209.156 260.052C209.649 259.559 209.927 258.891 209.928 258.194V158.392C209.928 157.694 209.651 157.025 209.158 156.531C208.665 156.037 207.997 155.759 207.299 155.757H58.1746C57.4769 155.759 56.8084 156.037 56.3156 156.531C55.8228 157.025 55.546 157.694 55.5459 158.392Z" fill="white"/>
<path d="M83.2211 301.92C83.3728 302.11 83.5658 302.264 83.7854 302.369C84.005 302.474 84.2455 302.528 84.489 302.527H173.208C173.451 302.526 173.691 302.472 173.909 302.367C174.128 302.263 174.321 302.111 174.474 301.922C174.627 301.734 174.736 301.514 174.793 301.278C174.85 301.042 174.854 300.797 174.804 300.559L173.427 294.017C173.37 293.751 173.247 293.502 173.069 293.295C172.892 293.088 172.665 292.929 172.41 292.832C172.226 292.759 172.029 292.722 171.831 292.722H85.8607C85.6624 292.722 85.4659 292.759 85.2814 292.832C85.0265 292.929 84.7999 293.088 84.6224 293.295C84.4449 293.502 84.322 293.751 84.2649 294.017L82.8877 300.559C82.8387 300.796 82.8432 301.042 82.9009 301.277C82.9585 301.513 83.0679 301.732 83.2211 301.92Z" fill="#2F2E41"/>
<path d="M202.459 169.506H62.924C62.779 169.503 62.641 169.443 62.5396 169.339C62.4381 169.235 62.3813 169.096 62.3813 168.951C62.3813 168.806 62.4381 168.666 62.5396 168.563C62.641 168.459 62.779 168.399 62.924 168.396H202.459C202.604 168.399 202.742 168.459 202.844 168.563C202.945 168.666 203.002 168.806 203.002 168.951C203.002 169.096 202.945 169.235 202.844 169.339C202.742 169.443 202.604 169.503 202.459 169.506Z" fill="#3F3D56"/>
<path d="M72.4223 165.563C74.2183 165.563 75.6743 164.074 75.6743 162.238C75.6743 160.402 74.2183 158.914 72.4223 158.914C70.6263 158.914 69.1704 160.402 69.1704 162.238C69.1704 164.074 70.6263 165.563 72.4223 165.563Z" fill="#3F3D56"/>
<path d="M83.6567 165.563C85.4527 165.563 86.9086 164.074 86.9086 162.238C86.9086 160.402 85.4527 158.914 83.6567 158.914C81.8607 158.914 80.4048 160.402 80.4048 162.238C80.4048 164.074 81.8607 165.563 83.6567 165.563Z" fill="#3F3D56"/>
<path d="M94.8906 165.563C96.6866 165.563 98.1425 164.074 98.1425 162.238C98.1425 160.402 96.6866 158.914 94.8906 158.914C93.0946 158.914 91.6387 160.402 91.6387 162.238C91.6387 164.074 93.0946 165.563 94.8906 165.563Z" fill="#3F3D56"/>
<path d="M195.694 159.736H187.715C187.558 159.74 187.408 159.805 187.297 159.918C187.187 160.031 187.125 160.182 187.125 160.34C187.125 160.498 187.187 160.649 187.297 160.762C187.408 160.875 187.558 160.94 187.715 160.944H195.694C195.853 160.942 196.005 160.877 196.116 160.764C196.227 160.651 196.29 160.499 196.29 160.34C196.29 160.181 196.227 160.029 196.116 159.916C196.005 159.803 195.853 159.738 195.694 159.736Z" fill="#3F3D56"/>
<path d="M195.695 162.004H187.716C187.558 162.008 187.408 162.073 187.297 162.186C187.187 162.298 187.125 162.45 187.125 162.608C187.125 162.766 187.187 162.917 187.297 163.03C187.408 163.143 187.558 163.208 187.716 163.212H195.695C195.854 163.21 196.005 163.145 196.117 163.032C196.229 162.919 196.291 162.767 196.291 162.608C196.291 162.449 196.229 162.296 196.117 162.183C196.005 162.07 195.854 162.006 195.695 162.004Z" fill="#3F3D56"/>
<path d="M195.694 164.272H187.715C187.558 164.276 187.408 164.341 187.297 164.454C187.187 164.567 187.125 164.718 187.125 164.876C187.125 165.034 187.187 165.185 187.297 165.298C187.408 165.411 187.558 165.476 187.715 165.48H195.694C195.853 165.478 196.005 165.413 196.116 165.3C196.227 165.187 196.29 165.035 196.29 164.876C196.29 164.717 196.227 164.565 196.116 164.452C196.005 164.339 195.853 164.274 195.694 164.272Z" fill="#3F3D56"/>
<path d="M388.053 298.193C388.293 298.894 388.75 299.501 389.357 299.926C389.964 300.351 390.691 300.573 391.432 300.56L405.909 300.187C406.656 300.173 407.378 299.917 407.967 299.458C408.556 299 408.981 298.362 409.178 297.642L411.227 275.734C411.954 276.064 412.745 276.226 413.543 276.21C414.236 276.193 414.919 276.039 415.553 275.758C416.186 275.476 416.759 275.073 417.236 274.571C417.714 274.068 418.088 273.477 418.338 272.829C418.587 272.182 418.706 271.493 418.689 270.799C418.671 270.106 418.518 269.423 418.236 268.79C417.955 268.156 417.551 267.584 417.049 267.106C416.547 266.628 415.955 266.254 415.308 266.005C414.661 265.756 413.971 265.636 413.278 265.654C412.959 265.653 412.641 265.686 412.329 265.752C411.99 265.385 411.578 265.094 411.119 264.896C410.66 264.698 410.165 264.598 409.665 264.603L387.395 265.178C387.21 265.185 387.027 265.208 386.846 265.246C386.357 265.337 385.894 265.532 385.487 265.817C385.08 266.102 384.739 266.471 384.487 266.899C384.235 267.327 384.077 267.804 384.024 268.298C383.972 268.792 384.026 269.292 384.183 269.763L388.053 298.193ZM411.647 274.247L413.105 269.026C413.271 268.423 413.275 267.787 413.116 267.182C413.187 267.182 413.249 267.148 413.32 267.148C414.319 267.128 415.287 267.504 416.009 268.195C416.731 268.887 417.15 269.836 417.174 270.836C417.197 271.835 416.823 272.803 416.134 273.527C415.445 274.252 414.496 274.673 413.497 274.699C412.85 274.719 412.211 274.563 411.647 274.247Z" fill="#2F2E41"/>
<path d="M386.846 265.246C387.32 267.959 392.655 269.866 399.069 269.535C404.967 269.263 409.79 267.192 410.673 264.737C410.346 264.641 410.006 264.595 409.665 264.603L387.395 265.178C387.21 265.185 387.027 265.208 386.846 265.246Z" fill="#3F3D56"/>
<path d="M400.244 286.154C400.274 286.147 400.301 286.135 400.327 286.118L403.471 284.06C403.509 284.035 403.54 284.002 403.562 283.962C403.583 283.922 403.595 283.877 403.595 283.832C403.595 283.786 403.583 283.742 403.562 283.702C403.54 283.662 403.509 283.628 403.471 283.603L400.203 281.463C400.173 281.443 400.139 281.429 400.104 281.422C400.069 281.416 400.033 281.416 399.997 281.423C399.962 281.43 399.929 281.444 399.899 281.465C399.869 281.485 399.844 281.511 399.824 281.541C399.804 281.571 399.791 281.604 399.784 281.64C399.777 281.675 399.778 281.711 399.785 281.747C399.793 281.782 399.807 281.815 399.827 281.845C399.848 281.875 399.873 281.9 399.904 281.92L402.822 283.831L400.028 285.661C399.974 285.696 399.934 285.75 399.915 285.812C399.897 285.874 399.901 285.94 399.927 285.999C399.953 286.059 399.999 286.107 400.057 286.135C400.115 286.163 400.182 286.17 400.244 286.154Z" fill="#6E1FD1"/>
<path d="M395.279 286.383C395.331 286.37 395.379 286.341 395.415 286.301C395.452 286.26 395.475 286.21 395.482 286.156C395.49 286.102 395.481 286.047 395.457 285.998C395.433 285.949 395.395 285.909 395.348 285.882L392.449 284.22L395.251 282.139C395.279 282.118 395.304 282.091 395.322 282.06C395.34 282.03 395.353 281.995 395.358 281.96C395.363 281.925 395.361 281.888 395.353 281.854C395.344 281.819 395.328 281.786 395.307 281.757C395.285 281.729 395.259 281.704 395.228 281.686C395.197 281.667 395.163 281.655 395.128 281.65C395.092 281.645 395.056 281.647 395.021 281.655C394.986 281.664 394.954 281.68 394.925 281.701L391.789 284.031C391.752 284.058 391.723 284.093 391.704 284.134C391.685 284.175 391.676 284.221 391.679 284.266C391.681 284.311 391.695 284.355 391.719 284.394C391.743 284.432 391.776 284.464 391.816 284.487L395.076 286.356C395.137 286.391 395.21 286.401 395.279 286.383Z" fill="#6E1FD1"/>
<path d="M399.931 287.958C399.958 287.951 399.983 287.941 400.006 287.926C400.037 287.908 400.064 287.883 400.085 287.854C400.106 287.825 400.121 287.792 400.13 287.758C400.138 287.723 400.14 287.686 400.135 287.651C400.129 287.616 400.117 287.581 400.098 287.551L395.641 280.223C395.603 280.161 395.542 280.117 395.472 280.1C395.402 280.083 395.327 280.095 395.265 280.132C395.204 280.17 395.159 280.231 395.142 280.301C395.125 280.371 395.136 280.446 395.174 280.508L399.631 287.835C399.661 287.885 399.707 287.924 399.761 287.946C399.815 287.968 399.875 287.972 399.931 287.958Z" fill="#6E1FD1"/>
<path d="M149.364 199.672H125.213C124.228 199.672 123.429 200.471 123.429 201.456V203.816C123.429 204.801 124.228 205.6 125.213 205.6H149.364C150.349 205.6 151.147 204.801 151.147 203.816V201.456C151.147 200.471 150.349 199.672 149.364 199.672Z" fill="#6E1FD1"/>
<path d="M163.441 211.527H111.136C110.151 211.527 109.352 212.326 109.352 213.311V215.67C109.352 216.655 110.151 217.454 111.136 217.454H163.441C164.426 217.454 165.225 216.655 165.225 215.67V213.311C165.225 212.326 164.426 211.527 163.441 211.527Z" fill="#E6E6E6"/>
<path d="M163.441 223.381H111.136C110.151 223.381 109.352 224.18 109.352 225.165V227.525C109.352 228.51 110.151 229.309 111.136 229.309H163.441C164.426 229.309 165.225 228.51 165.225 227.525V225.165C165.225 224.18 164.426 223.381 163.441 223.381Z" fill="#E6E6E6"/>
<path d="M167.875 263.077L167.993 263.451L167.999 263.464L171.565 274.305L175.667 286.799L183.386 310.277L183.46 313.924V313.937L184.034 343.276L182.444 347.253L184.233 353.774C184.233 353.774 183.41 343.917 178.997 349.578C176.497 352.795 173.573 356.086 171.172 359.172C174.67 360.588 178.224 361.868 181.833 363.013C182.613 363.262 183.398 363.499 184.184 363.736C184.352 363.786 184.52 363.836 184.689 363.886C196.654 367.424 209.024 369.413 221.496 369.802C222.144 369.821 222.78 369.833 223.397 369.846C223.616 369.852 223.828 369.858 224.04 369.858C224.738 369.864 225.43 369.871 226.128 369.871C227.537 369.871 228.94 369.85 230.336 369.808C240.672 369.517 250.948 368.127 260.99 365.662C260.922 361.517 260.735 356.672 260.467 351.498C260.342 348.961 257.543 346.211 257.375 343.555C257.256 341.56 259.769 339.684 259.638 337.658C258.79 325.183 257.73 329.972 256.944 321.138C256.863 320.271 256.789 319.442 256.72 318.65C256.215 312.977 255.866 309.429 255.866 309.429L259.22 288.289L264.488 255.097L264.083 254.43L263.628 254.206L235.841 240.453L234.332 236.588C233.893 235.474 233.13 234.517 232.143 233.841C231.155 233.164 229.987 232.798 228.79 232.791L210.486 232.716C209.536 232.712 208.599 232.934 207.752 233.364C206.905 233.795 206.173 234.421 205.617 235.191L200.661 242.055L167.875 263.077Z" fill="#3F3D56"/>
<path d="M187.607 305.053L183.461 313.924L180.63 319.984L175.761 345.476L173.324 348.064L171.235 338.905L149.376 343.758C148.659 339.774 149.184 343.893 148.742 339.523C148.866 339.398 148.997 339.273 149.128 339.148C149.477 338.824 149.77 338.519 149.764 338.226C149.515 323.151 150.263 297.497 156.51 281.955C157.488 279.417 158.778 277.011 160.35 274.791C160.475 274.623 160.593 274.455 160.712 274.286C163.592 270.253 165.412 266.282 167.993 263.457V263.451C168.009 263.438 168.024 263.424 168.037 263.408C168.046 263.403 168.055 263.397 168.062 263.389L185.792 253.987L186.553 275.359L187.095 290.72L187.607 305.053Z" fill="#3F3D56"/>
<path d="M251.539 307.573L256.718 318.653L258.525 322.512L263.393 348.002L265.822 350.583L267.916 341.426L268.899 341.224L286.638 337.55L291.808 353.971C292.974 352.029 293.433 349.745 293.108 347.504C292.783 345.262 291.695 343.202 290.026 341.671C289.673 341.352 289.379 341.041 289.387 340.747C289.681 323.016 288.597 290.641 278.803 277.316C275.692 273.087 273.826 268.876 271.11 265.933C271.102 265.925 271.102 265.916 271.094 265.916L264.486 255.097L264.082 254.432L263.628 254.205L251.539 307.573Z" fill="#3F3D56"/>
<path d="M220.167 227.507C233.616 227.507 244.518 216.604 244.518 203.156C244.518 189.707 233.616 178.804 220.167 178.804C206.718 178.804 195.815 189.707 195.815 203.156C195.815 216.604 206.718 227.507 220.167 227.507Z" fill="#FFB6B6"/>
<path d="M253.081 186.146C252.892 185.945 252.665 185.783 252.412 185.671C252.16 185.56 251.887 185.5 251.611 185.496L251.977 184.48C252.097 184.159 252.129 183.813 252.071 183.476C252.012 183.14 251.865 182.824 251.645 182.563C251.425 182.302 251.139 182.104 250.817 181.989C250.495 181.874 250.149 181.847 249.813 181.911L248.479 182.168L248.605 181.277C248.653 180.945 248.614 180.607 248.492 180.294C248.37 179.982 248.168 179.707 247.907 179.497C247.647 179.286 247.335 179.147 247.005 179.093C246.674 179.039 246.334 179.072 246.02 179.189C245.734 179.302 245.427 179.349 245.121 179.327C244.814 179.305 244.517 179.215 244.25 179.064C243.981 178.917 243.749 178.713 243.567 178.466C243.386 178.22 243.261 177.937 243.2 177.637L242.736 175.397L242.687 175.276C240.424 171.505 236.074 168.762 230.751 167.756C226.013 166.855 221.154 167.314 216.471 167.746C214.613 167.92 212.514 168.117 210.765 169.188C209.279 170.106 208.022 171.943 208.279 173.795C203.661 172.38 198.709 175.205 196.256 178.768C193.348 183.009 192.873 188.321 192.796 192.475C192.589 202.301 194.616 210.34 198.808 216.373C199.114 216.811 199.19 217.723 199.797 218.029L199.671 217.827C200.349 218.166 201.037 218.712 200.781 219.297C200.043 220.98 204.945 224.702 208.399 225.932C214.7 228.178 223.078 227.987 228.969 227.178L229.177 225.784C231.303 225.495 232.8 224.943 233.221 224.079C233.964 223.445 234.598 222.877 235.15 222.352L235.156 222.347C235.167 222.336 235.188 222.319 235.199 222.308C237.861 219.756 238.478 218.303 238.757 216.089C239.025 213.92 238.55 211.717 238.063 209.733C248.305 211.318 234.03 198.825 243.572 196.41C243.681 196.376 243.793 196.349 243.905 196.328C244.184 196.262 244.463 196.197 244.73 196.12C246.021 195.77 247.257 195.242 248.403 194.552C251.07 192.928 251.95 190.775 253.327 188.349C253.526 188.003 253.609 187.603 253.565 187.207C253.521 186.811 253.351 186.439 253.081 186.146Z" fill="#2F2E41"/>
<path d="M306.293 309.306C306.288 310.263 306.277 311.602 306.233 313.258C306.228 313.487 306.222 313.722 306.217 313.963C306.146 317.007 306.075 319.559 305.96 322.395C305.955 322.592 305.949 322.783 305.938 322.98C305.785 326.937 305.545 331.544 305.129 338.839C304.359 352.316 303.014 340.692 301.665 345.419C301.599 345.654 301.528 345.933 301.462 346.261C301.258 347.451 300.913 348.612 300.435 349.72C299.719 350.147 298.981 350.557 298.254 350.966C296.183 352.12 294.079 353.229 291.959 354.284C290.767 354.874 289.57 355.453 288.368 356.011C288.177 356.098 287.991 356.186 287.805 356.267C281.648 359.115 275.303 361.537 268.814 363.514C267.546 363.897 266.284 364.268 265.005 364.613C263.672 364.984 262.338 365.334 260.988 365.662C250.946 368.127 240.671 369.518 230.335 369.81C228.941 369.854 227.537 369.87 226.127 369.87C225.427 369.87 224.739 369.864 224.039 369.859C223.826 369.859 223.613 369.854 223.4 369.848C222.782 369.832 222.143 369.821 221.498 369.804C209.026 369.415 196.656 367.426 184.691 363.886L184.183 363.738C183.396 363.498 182.614 363.263 181.833 363.011C178.226 361.869 174.672 360.59 171.17 359.175C168.498 358.098 165.857 356.943 163.246 355.71C163.222 355.704 163.2 355.692 163.181 355.677C162.634 355.426 162.082 355.164 161.536 354.896C161.465 354.857 161.388 354.819 161.312 354.781C159.273 353.786 157.256 352.744 155.262 351.655C153.584 347.802 151.223 347.064 149.758 343.676C149.332 342.669 149.024 341.617 148.84 340.539C148.84 340.528 148.835 340.517 148.835 340.501C148.988 342.534 148.185 336.894 148.829 340.479C148.824 340.413 148.818 340.342 148.813 340.26C148.797 340.064 148.775 339.823 148.742 339.523C146.867 321.22 146.988 300.289 146.173 283.041C146.119 281.927 146.062 280.859 146.004 279.839C145.988 279.5 145.966 279.167 145.944 278.839C145.982 278.74 146.026 278.637 146.075 278.538C146.085 278.51 146.098 278.483 146.113 278.456C146.129 278.422 146.148 278.39 146.168 278.358C146.179 278.342 146.195 278.32 146.206 278.303C146.214 278.284 146.223 278.266 146.233 278.249C146.283 278.172 146.337 278.09 146.397 278.014C146.425 277.981 146.447 277.953 146.474 277.926C146.493 277.898 146.515 277.873 146.54 277.85C146.556 277.823 146.577 277.8 146.6 277.779C146.622 277.757 146.643 277.729 146.671 277.702C146.682 277.685 146.697 277.67 146.714 277.658C146.758 277.609 146.805 277.563 146.856 277.522C147.051 277.342 147.26 277.178 147.48 277.03C147.556 276.981 147.638 276.932 147.715 276.877C148.265 276.547 148.845 276.269 149.447 276.046C149.655 275.97 149.862 275.899 150.086 275.822C150.168 275.8 150.245 275.773 150.327 275.746C150.447 275.707 150.567 275.669 150.693 275.642C151.316 275.456 151.988 275.298 152.715 275.15C152.802 275.134 152.895 275.117 152.988 275.095C153.119 275.068 153.256 275.046 153.393 275.024C153.579 274.991 153.77 274.959 153.961 274.926C155.584 274.669 157.426 274.478 159.459 274.352C159.65 274.341 159.841 274.33 160.033 274.319C160.257 274.308 160.481 274.297 160.71 274.286C160.902 274.276 161.098 274.27 161.295 274.265C161.486 274.254 161.683 274.248 161.885 274.243C162.437 274.226 163.006 274.21 163.585 274.199C165.235 274.166 166.973 274.177 168.799 274.215C169.646 274.237 170.509 274.259 171.395 274.297C171.455 274.297 171.509 274.303 171.564 274.303C172.335 274.33 173.111 274.363 173.908 274.407C174.466 274.434 175.029 274.461 175.592 274.494C176.122 274.527 176.657 274.56 177.198 274.598C177.619 274.62 178.04 274.653 178.466 274.68C178.827 274.707 179.188 274.735 179.548 274.756L180.04 274.789C180.308 274.811 180.576 274.828 180.849 274.855C181.45 274.904 182.051 274.953 182.663 275.002C183.27 275.057 183.888 275.112 184.505 275.166C185.123 275.221 185.746 275.281 186.369 275.341C186.434 275.347 186.494 275.352 186.555 275.358C187.123 275.418 187.691 275.472 188.265 275.533C188.396 275.543 188.533 275.554 188.664 275.571C189.211 275.626 189.769 275.69 190.321 275.749C190.49 275.767 190.659 275.785 190.829 275.803C191.261 275.85 191.688 275.891 192.123 275.942C192.697 276.008 193.282 276.068 193.85 276.145C194.293 276.194 194.736 276.243 195.178 276.298C195.872 276.38 196.577 276.467 197.282 276.56C197.55 276.593 197.818 276.626 198.086 276.664C200.097 276.915 202.13 277.194 204.196 277.484C207.327 277.926 210.508 278.407 213.71 278.926C216.918 279.445 220.144 279.994 223.389 280.571C224.209 280.719 225.028 280.866 225.854 281.019C226.225 281.09 226.597 281.161 226.968 281.233C227.602 281.347 228.236 281.468 228.87 281.588C229.504 281.708 230.138 281.828 230.772 281.954C231.526 282.101 232.286 282.249 233.04 282.397C238.008 283.38 242.948 284.43 247.768 285.528C248.561 285.708 249.353 285.894 250.14 286.075C251.714 286.441 253.273 286.812 254.818 287.189C255.245 287.288 255.665 287.392 256.086 287.495C257.135 287.758 258.185 288.02 259.218 288.288L259.398 288.337C260.158 288.523 260.901 288.714 261.644 288.911C263.398 289.37 265.123 289.834 266.819 290.304C267.945 290.616 269.058 290.931 270.159 291.25C271.804 291.725 273.416 292.206 274.984 292.693C275.372 292.813 275.76 292.933 276.143 293.048C277.29 293.403 278.422 293.764 279.52 294.125C280.395 294.409 281.247 294.698 282.089 294.988C282.93 295.278 283.756 295.567 284.564 295.857C285.084 296.043 285.597 296.24 286.111 296.425C286.849 296.699 287.576 296.972 288.286 297.245C288.505 297.327 288.718 297.414 288.931 297.496C289.068 297.557 289.199 297.606 289.33 297.66C289.587 297.764 289.849 297.863 290.101 297.966C290.357 298.065 290.609 298.169 290.86 298.278C291.106 298.376 291.357 298.48 291.598 298.584C291.844 298.682 292.084 298.786 292.325 298.896C292.527 298.977 292.724 299.065 292.915 299.152C293.303 299.322 293.691 299.491 294.068 299.666C294.254 299.754 294.44 299.835 294.626 299.923L295.052 300.12C295.112 300.152 295.172 300.18 295.232 300.207C295.369 300.273 295.511 300.344 295.648 300.409C295.964 300.557 296.276 300.715 296.582 300.863C296.992 301.071 297.391 301.278 297.773 301.48C298.161 301.688 298.539 301.896 298.899 302.098C298.959 302.131 299.014 302.164 299.074 302.196C299.156 302.24 299.238 302.289 299.32 302.333C299.599 302.492 299.867 302.655 300.134 302.814C300.659 303.136 301.156 303.453 301.621 303.77C301.725 303.841 301.823 303.912 301.927 303.978C302.271 304.224 302.599 304.464 302.905 304.71C302.905 304.716 302.905 304.716 302.911 304.716C303.014 304.792 303.113 304.874 303.211 304.951C303.293 305.027 303.381 305.093 303.463 305.169C303.747 305.415 304.009 305.65 304.249 305.891C304.33 305.965 304.407 306.043 304.479 306.126C304.511 306.152 304.54 306.181 304.566 306.213C304.676 306.322 304.774 306.432 304.867 306.541C304.881 306.556 304.894 306.573 304.905 306.59C305.036 306.743 305.157 306.896 305.271 307.049C305.326 307.126 305.386 307.202 305.435 307.279C305.501 307.372 305.567 307.47 305.621 307.563C305.67 307.64 305.714 307.722 305.758 307.798C305.874 307.995 305.973 308.202 306.053 308.416C306.114 308.561 306.164 308.711 306.201 308.864C306.242 309.009 306.273 309.157 306.293 309.306Z" fill="#2F2E41"/>
<path opacity="0.2" d="M306.294 309.306C306.288 310.263 306.277 311.602 306.233 313.258C306.228 313.487 306.217 313.722 306.212 313.963C306.157 316.285 306.075 319.154 305.96 322.395C305.955 322.592 305.949 322.783 305.938 322.98C305.785 326.937 305.545 331.544 305.13 338.839C304.359 352.316 303.015 340.692 301.665 345.419C297.916 343.113 293.806 340.698 289.412 338.216C288.62 337.768 287.82 337.318 287.013 336.867C278.225 331.964 268.41 326.827 258.163 321.739C257.759 321.537 257.349 321.335 256.944 321.138C233.472 309.536 207.852 298.251 187.096 290.72C183.09 289.266 179.264 287.955 175.668 286.801C168.094 284.38 161.547 282.686 156.508 281.954C151.261 281.189 147.638 281.462 146.173 283.041C146.119 281.927 146.062 280.859 146.004 279.839C145.982 279.5 145.96 279.167 145.938 278.839C145.972 278.749 146.016 278.663 146.058 278.576C146.065 278.564 146.069 278.551 146.075 278.538C146.086 278.51 146.098 278.482 146.113 278.456C146.129 278.422 146.148 278.39 146.168 278.358C146.186 278.319 146.208 278.283 146.234 278.249C146.283 278.172 146.337 278.09 146.398 278.014C146.442 277.956 146.489 277.902 146.54 277.85C146.556 277.823 146.577 277.799 146.6 277.779C146.622 277.757 146.643 277.729 146.671 277.702C146.682 277.685 146.697 277.67 146.715 277.658C146.758 277.609 146.805 277.563 146.857 277.522C147.052 277.342 147.26 277.178 147.48 277.03C147.556 276.981 147.638 276.932 147.715 276.877C148.265 276.547 148.845 276.269 149.447 276.046C149.655 275.97 149.862 275.899 150.086 275.822C150.168 275.8 150.245 275.773 150.327 275.746C150.447 275.707 150.567 275.669 150.693 275.642C151.316 275.456 151.988 275.297 152.715 275.15C152.934 275.106 153.163 275.063 153.393 275.024C153.579 274.991 153.77 274.959 153.961 274.926C155.584 274.669 157.426 274.478 159.459 274.352C159.65 274.341 159.842 274.33 160.033 274.319C160.257 274.308 160.481 274.297 160.71 274.286C160.902 274.276 161.098 274.27 161.295 274.265C161.487 274.254 161.683 274.248 161.885 274.243C162.437 274.226 163.006 274.21 163.585 274.199C165.236 274.172 166.973 274.183 168.799 274.221C169.646 274.237 170.509 274.265 171.395 274.303C171.449 274.303 171.509 274.308 171.564 274.308C172.335 274.33 173.116 274.368 173.909 274.407C174.466 274.434 175.029 274.461 175.592 274.494C176.122 274.527 176.657 274.56 177.198 274.598C177.619 274.62 178.04 274.653 178.466 274.68C178.827 274.707 179.188 274.735 179.548 274.756C179.98 274.789 180.412 274.822 180.849 274.855C181.45 274.904 182.051 274.953 182.664 275.002C183.27 275.057 183.888 275.112 184.505 275.166C185.123 275.221 185.746 275.281 186.369 275.341C186.434 275.347 186.494 275.352 186.555 275.358C187.123 275.418 187.691 275.472 188.265 275.532C191.446 275.855 194.719 276.232 198.086 276.664C200.097 276.921 202.134 277.196 204.196 277.489C207.327 277.932 210.508 278.413 213.71 278.926C216.918 279.445 220.145 279.994 223.389 280.571C224.209 280.719 225.028 280.866 225.854 281.019C226.859 281.205 227.865 281.395 228.87 281.588C229.504 281.708 230.138 281.828 230.772 281.954C231.526 282.101 232.286 282.249 233.04 282.397C238.008 283.38 242.948 284.43 247.768 285.528C248.561 285.708 249.353 285.894 250.14 286.075C251.714 286.441 253.274 286.812 254.818 287.189C255.245 287.293 255.665 287.397 256.086 287.501C257.141 287.763 258.185 288.026 259.218 288.288V288.293C259.278 288.304 259.338 288.321 259.398 288.337C260.152 288.528 260.901 288.72 261.644 288.916C263.398 289.375 265.124 289.838 266.82 290.304C267.945 290.621 269.06 290.933 270.159 291.25C271.804 291.731 273.416 292.212 274.984 292.693C275.372 292.813 275.76 292.933 276.143 293.048C277.291 293.409 278.416 293.767 279.52 294.125C280.395 294.409 281.247 294.698 282.089 294.988C282.931 295.278 283.756 295.567 284.565 295.857C285.089 296.043 285.603 296.234 286.111 296.42C286.854 296.693 287.576 296.966 288.286 297.245C288.505 297.327 288.718 297.414 288.931 297.496C289.33 297.649 289.718 297.808 290.101 297.966C290.358 298.065 290.609 298.169 290.86 298.278C291.106 298.376 291.358 298.48 291.598 298.584C291.844 298.682 292.084 298.786 292.325 298.896C292.527 298.977 292.724 299.065 292.915 299.152C293.303 299.322 293.691 299.491 294.068 299.666C294.254 299.754 294.44 299.836 294.626 299.923L295.052 300.12C295.112 300.152 295.172 300.18 295.232 300.207C295.697 300.426 296.145 300.644 296.582 300.863C296.992 301.071 297.391 301.278 297.774 301.48C298.227 301.721 298.659 301.956 299.074 302.196C299.156 302.24 299.238 302.289 299.32 302.333C299.599 302.492 299.867 302.655 300.134 302.814C300.659 303.136 301.156 303.453 301.621 303.77C302.08 304.087 302.506 304.399 302.905 304.71C302.905 304.716 302.905 304.716 302.911 304.716C303.102 304.869 303.288 305.022 303.463 305.169C303.747 305.415 304.009 305.65 304.25 305.891C304.33 305.965 304.407 306.043 304.479 306.126C304.511 306.152 304.54 306.181 304.567 306.213C304.681 306.339 304.796 306.465 304.905 306.59C305.037 306.743 305.157 306.896 305.272 307.049C305.326 307.126 305.386 307.202 305.436 307.279C305.501 307.372 305.567 307.47 305.621 307.563C305.671 307.64 305.714 307.722 305.758 307.798C305.874 307.995 305.973 308.202 306.053 308.416C306.113 308.561 306.162 308.711 306.201 308.864C306.242 309.009 306.273 309.157 306.294 309.306Z" fill="black"/>
</g>
<defs>
<clipPath id="clip0_302_1519">
<rect width="430" height="312.741" fill="white" transform="translate(9 57.1295)"/>
</clipPath>
</defs>
</svg>
