<svg width="448" height="427" viewBox="0 0 448 427" fill="none" xmlns="http://www.w3.org/2000/svg">
<g clip-path="url(#clip0_302_898)">
<path d="M103.396 51.5397V54.8704H106.51V56.7376H103.396V60.0852H101.274V56.7376H98.1763V54.8704H101.274V51.5397H103.396ZM126.967 51.5397V54.8704H130.082V56.7376H126.967V60.0852H124.845V56.7376H121.748V54.8704H124.845V51.5397H126.967ZM150.538 51.5397V54.8704H153.653V56.7376H150.538V60.0852H148.417V56.7376H145.319V54.8704H148.417V51.5397H150.538ZM174.11 51.5397V54.8704H177.224V56.7376H174.11V60.0852H171.988V56.7376H168.89V54.8704H171.988V51.5397H174.11ZM197.681 51.5397V54.8704H200.796V56.7376H197.681V60.0852H195.559V56.7376H192.461V54.8704H195.559V51.5397H197.681ZM221.252 51.5397V54.8704H224.367V56.7376H221.252V60.0852H219.131V56.7376H216.033V54.8704H219.131V51.5397H221.252ZM244.823 51.5397V54.8704H247.938V56.7376H244.823V60.0852H242.702V56.7376H239.604V54.8704H242.702V51.5397H244.823ZM268.395 51.5397V54.8704H271.509V56.7376H268.395V60.0852H266.273V56.7376H263.175V54.8704H266.273V51.5397H268.395ZM291.966 51.5397V54.8704H295.081V56.7376H291.966V60.0852H289.845V56.7376H286.747V54.8704H289.845V51.5397H291.966ZM315.537 51.5397V54.8704H318.652V56.7376H315.537V60.0852H313.416V56.7376H310.318V54.8704H313.416V51.5397H315.537ZM339.109 51.5397V54.8704H342.223V56.7376H339.109V60.0852H336.987V56.7376H333.889V54.8704H336.987V51.5397H339.109ZM362.68 51.5397V54.8704H365.795V56.7376H362.68V60.0852H360.558V56.7376H357.46V54.8704H360.558V51.5397H362.68ZM386.251 51.5397V54.8704H389.366V56.7376H386.251V60.0852H384.13V56.7376H381.032V54.8704H384.13V51.5397H386.251ZM103.396 75.9314V79.2621H106.51V81.1293H103.396V84.4768H101.274V81.1293H98.1763V79.2621H101.274V75.9314H103.396ZM126.967 75.9314V79.2621H130.082V81.1293H126.967V84.4768H124.845V81.1293H121.748V79.2621H124.845V75.9314H126.967ZM150.538 75.9314V79.2621H153.653V81.1293H150.538V84.4768H148.417V81.1293H145.319V79.2621H148.417V75.9314H150.538ZM174.11 75.9314V79.2621H177.224V81.1293H174.11V84.4768H171.988V81.1293H168.89V79.2621H171.988V75.9314H174.11ZM197.681 75.9314V79.2621H200.796V81.1293H197.681V84.4768H195.559V81.1293H192.461V79.2621H195.559V75.9314H197.681ZM221.252 75.9314V79.2621H224.367V81.1293H221.252V84.4768H219.131V81.1293H216.033V79.2621H219.131V75.9314H221.252ZM244.823 75.9314V79.2621H247.938V81.1293H244.823V84.4768H242.702V81.1293H239.604V79.2621H242.702V75.9314H244.823ZM268.395 75.9314V79.2621H271.509V81.1293H268.395V84.4768H266.273V81.1293H263.175V79.2621H266.273V75.9314H268.395ZM291.966 75.9314V79.2621H295.081V81.1293H291.966V84.4768H289.845V81.1293H286.747V79.2621H289.845V75.9314H291.966ZM315.537 75.9314V79.2621H318.652V81.1293H315.537V84.4768H313.416V81.1293H310.318V79.2621H313.416V75.9314H315.537ZM339.109 75.9314V79.2621H342.223V81.1293H339.109V84.4768H336.987V81.1293H333.889V79.2621H336.987V75.9314H339.109ZM362.68 75.9314V79.2621H365.795V81.1293H362.68V84.4768H360.558V81.1293H357.46V79.2621H360.558V75.9314H362.68ZM386.251 75.9314V79.2621H389.366V81.1293H386.251V84.4768H384.13V81.1293H381.032V79.2621H384.13V75.9314H386.251ZM103.396 100.323V103.654H106.51V105.521H103.396V108.869H101.274V105.521H98.1763V103.654H101.274V100.323H103.396ZM126.967 100.323V103.654H130.082V105.521H126.967V108.869H124.845V105.521H121.748V103.654H124.845V100.323H126.967ZM150.538 100.323V103.654H153.653V105.521H150.538V108.869H148.417V105.521H145.319V103.654H148.417V100.323H150.538ZM174.11 100.323V103.654H177.224V105.521H174.11V108.869H171.988V105.521H168.89V103.654H171.988V100.323H174.11ZM197.681 100.323V103.654H200.796V105.521H197.681V108.869H195.559V105.521H192.461V103.654H195.559V100.323H197.681ZM221.252 100.323V103.654H224.367V105.521H221.252V108.869H219.131V105.521H216.033V103.654H219.131V100.323H221.252ZM244.823 100.323V103.654H247.938V105.521H244.823V108.869H242.702V105.521H239.604V103.654H242.702V100.323H244.823ZM268.395 100.323V103.654H271.509V105.521H268.395V108.869H266.273V105.521H263.175V103.654H266.273V100.323H268.395ZM291.966 100.323V103.654H295.081V105.521H291.966V108.869H289.845V105.521H286.747V103.654H289.845V100.323H291.966ZM315.537 100.323V103.654H318.652V105.521H315.537V108.869H313.416V105.521H310.318V103.654H313.416V100.323H315.537ZM339.109 100.323V103.654H342.223V105.521H339.109V108.869H336.987V105.521H333.889V103.654H336.987V100.323H339.109ZM362.68 100.323V103.654H365.795V105.521H362.68V108.869H360.558V105.521H357.46V103.654H360.558V100.323H362.68ZM386.251 100.323V103.654H389.366V105.521H386.251V108.869H384.13V105.521H381.032V103.654H384.13V100.323H386.251ZM103.396 124.715V128.045H106.51V129.913H103.396V133.26H101.274V129.913H98.1763V128.045H101.274V124.715H103.396ZM126.967 124.715V128.045H130.082V129.913H126.967V133.26H124.845V129.913H121.748V128.045H124.845V124.715H126.967ZM150.538 124.715V128.045H153.653V129.913H150.538V133.26H148.417V129.913H145.319V128.045H148.417V124.715H150.538ZM174.11 124.715V128.045H177.224V129.913H174.11V133.26H171.988V129.913H168.89V128.045H171.988V124.715H174.11ZM197.681 124.715V128.045H200.796V129.913H197.681V133.26H195.559V129.913H192.461V128.045H195.559V124.715H197.681ZM221.252 124.715V128.045H224.367V129.913H221.252V133.26H219.131V129.913H216.033V128.045H219.131V124.715H221.252ZM244.823 124.715V128.045H247.938V129.913H244.823V133.26H242.702V129.913H239.604V128.045H242.702V124.715H244.823ZM268.395 124.715V128.045H271.509V129.913H268.395V133.26H266.273V129.913H263.175V128.045H266.273V124.715H268.395ZM291.966 124.715V128.045H295.081V129.913H291.966V133.26H289.845V129.913H286.747V128.045H289.845V124.715H291.966ZM315.537 124.715V128.045H318.652V129.913H315.537V133.26H313.416V129.913H310.318V128.045H313.416V124.715H315.537ZM339.109 124.715V128.045H342.223V129.913H339.109V133.26H336.987V129.913H333.889V128.045H336.987V124.715H339.109ZM362.68 124.715V128.045H365.795V129.913H362.68V133.26H360.558V129.913H357.46V128.045H360.558V124.715H362.68ZM386.251 124.715V128.045H389.366V129.913H386.251V133.26H384.13V129.913H381.032V128.045H384.13V124.715H386.251ZM103.396 149.106V152.437H106.51V154.304H103.396V157.652H101.274V154.304H98.1763V152.437H101.274V149.106H103.396ZM126.967 149.106V152.437H130.082V154.304H126.967V157.652H124.845V154.304H121.748V152.437H124.845V149.106H126.967ZM150.538 149.106V152.437H153.653V154.304H150.538V157.652H148.417V154.304H145.319V152.437H148.417V149.106H150.538ZM174.11 149.106V152.437H177.224V154.304H174.11V157.652H171.988V154.304H168.89V152.437H171.988V149.106H174.11ZM197.681 149.106V152.437H200.796V154.304H197.681V157.652H195.559V154.304H192.461V152.437H195.559V149.106H197.681ZM221.252 149.106V152.437H224.367V154.304H221.252V157.652H219.131V154.304H216.033V152.437H219.131V149.106H221.252ZM244.823 149.106V152.437H247.938V154.304H244.823V157.652H242.702V154.304H239.604V152.437H242.702V149.106H244.823ZM268.395 149.106V152.437H271.509V154.304H268.395V157.652H266.273V154.304H263.175V152.437H266.273V149.106H268.395ZM291.966 149.106V152.437H295.081V154.304H291.966V157.652H289.845V154.304H286.747V152.437H289.845V149.106H291.966ZM315.537 149.106V152.437H318.652V154.304H315.537V157.652H313.416V154.304H310.318V152.437H313.416V149.106H315.537ZM339.109 149.106V152.437H342.223V154.304H339.109V157.652H336.987V154.304H333.889V152.437H336.987V149.106H339.109ZM362.68 149.106V152.437H365.795V154.304H362.68V157.652H360.558V154.304H357.46V152.437H360.558V149.106H362.68ZM386.251 149.106V152.437H389.366V154.304H386.251V157.652H384.13V154.304H381.032V152.437H384.13V149.106H386.251ZM103.396 173.498V176.829H106.51V178.696H103.396V182.043H101.274V178.696H98.1763V176.829H101.274V173.498H103.396ZM126.967 173.498V176.829H130.082V178.696H126.967V182.043H124.845V178.696H121.748V176.829H124.845V173.498H126.967ZM150.538 173.498V176.829H153.653V178.696H150.538V182.043H148.417V178.696H145.319V176.829H148.417V173.498H150.538ZM174.11 173.498V176.829H177.224V178.696H174.11V182.043H171.988V178.696H168.89V176.829H171.988V173.498H174.11ZM197.681 173.498V176.829H200.796V178.696H197.681V182.043H195.559V178.696H192.461V176.829H195.559V173.498H197.681ZM221.252 173.498V176.829H224.367V178.696H221.252V182.043H219.131V178.696H216.033V176.829H219.131V173.498H221.252ZM244.823 173.498V176.829H247.938V178.696H244.823V182.043H242.702V178.696H239.604V176.829H242.702V173.498H244.823ZM268.395 173.498V176.829H271.509V178.696H268.395V182.043H266.273V178.696H263.175V176.829H266.273V173.498H268.395ZM291.966 173.498V176.829H295.081V178.696H291.966V182.043H289.845V178.696H286.747V176.829H289.845V173.498H291.966ZM315.537 173.498V176.829H318.652V178.696H315.537V182.043H313.416V178.696H310.318V176.829H313.416V173.498H315.537ZM339.109 173.498V176.829H342.223V178.696H339.109V182.043H336.987V178.696H333.889V176.829H336.987V173.498H339.109ZM362.68 173.498V176.829H365.795V178.696H362.68V182.043H360.558V178.696H357.46V176.829H360.558V173.498H362.68ZM386.251 173.498V176.829H389.366V178.696H386.251V182.043H384.13V178.696H381.032V176.829H384.13V173.498H386.251ZM103.396 197.89V201.22H106.51V203.088H103.396V206.435H101.274V203.088H98.1763V201.22H101.274V197.89H103.396ZM126.967 197.89V201.22H130.082V203.088H126.967V206.435H124.845V203.088H121.748V201.22H124.845V197.89H126.967ZM150.538 197.89V201.22H153.653V203.088H150.538V206.435H148.417V203.088H145.319V201.22H148.417V197.89H150.538ZM174.11 197.89V201.22H177.224V203.088H174.11V206.435H171.988V203.088H168.89V201.22H171.988V197.89H174.11ZM197.681 197.89V201.22H200.796V203.088H197.681V206.435H195.559V203.088H192.461V201.22H195.559V197.89H197.681ZM221.252 197.89V201.22H224.367V203.088H221.252V206.435H219.131V203.088H216.033V201.22H219.131V197.89H221.252ZM244.823 197.89V201.22H247.938V203.088H244.823V206.435H242.702V203.088H239.604V201.22H242.702V197.89H244.823ZM268.395 197.89V201.22H271.509V203.088H268.395V206.435H266.273V203.088H263.175V201.22H266.273V197.89H268.395ZM291.966 197.89V201.22H295.081V203.088H291.966V206.435H289.845V203.088H286.747V201.22H289.845V197.89H291.966ZM315.537 197.89V201.22H318.652V203.088H315.537V206.435H313.416V203.088H310.318V201.22H313.416V197.89H315.537ZM339.109 197.89V201.22H342.223V203.088H339.109V206.435H336.987V203.088H333.889V201.22H336.987V197.89H339.109ZM362.68 197.89V201.22H365.795V203.088H362.68V206.435H360.558V203.088H357.46V201.22H360.558V197.89H362.68ZM386.251 197.89V201.22H389.366V203.088H386.251V206.435H384.13V203.088H381.032V201.22H384.13V197.89H386.251ZM103.396 222.281V225.612H106.51V227.479H103.396V230.827H101.274V227.479H98.1763V225.612H101.274V222.281H103.396ZM126.967 222.281V225.612H130.082V227.479H126.967V230.827H124.845V227.479H121.748V225.612H124.845V222.281H126.967ZM150.538 222.281V225.612H153.653V227.479H150.538V230.827H148.417V227.479H145.319V225.612H148.417V222.281H150.538ZM174.11 222.281V225.612H177.224V227.479H174.11V230.827H171.988V227.479H168.89V225.612H171.988V222.281H174.11ZM197.681 222.281V225.612H200.796V227.479H197.681V230.827H195.559V227.479H192.461V225.612H195.559V222.281H197.681ZM221.252 222.281V225.612H224.367V227.479H221.252V230.827H219.131V227.479H216.033V225.612H219.131V222.281H221.252ZM244.823 222.281V225.612H247.938V227.479H244.823V230.827H242.702V227.479H239.604V225.612H242.702V222.281H244.823ZM268.395 222.281V225.612H271.509V227.479H268.395V230.827H266.273V227.479H263.175V225.612H266.273V222.281H268.395ZM291.966 222.281V225.612H295.081V227.479H291.966V230.827H289.845V227.479H286.747V225.612H289.845V222.281H291.966ZM315.537 222.281V225.612H318.652V227.479H315.537V230.827H313.416V227.479H310.318V225.612H313.416V222.281H315.537ZM339.109 222.281V225.612H342.223V227.479H339.109V230.827H336.987V227.479H333.889V225.612H336.987V222.281H339.109ZM362.68 222.281V225.612H365.795V227.479H362.68V230.827H360.558V227.479H357.46V225.612H360.558V222.281H362.68ZM386.251 222.281V225.612H389.366V227.479H386.251V230.827H384.13V227.479H381.032V225.612H384.13V222.281H386.251ZM103.396 246.673V250.004H106.51V251.871H103.396V255.219H101.274V251.871H98.1763V250.004H101.274V246.673H103.396ZM126.967 246.673V250.004H130.082V251.871H126.967V255.219H124.845V251.871H121.748V250.004H124.845V246.673H126.967ZM150.538 246.673V250.004H153.653V251.871H150.538V255.219H148.417V251.871H145.319V250.004H148.417V246.673H150.538ZM174.11 246.673V250.004H177.224V251.871H174.11V255.219H171.988V251.871H168.89V250.004H171.988V246.673H174.11ZM197.681 246.673V250.004H200.796V251.871H197.681V255.219H195.559V251.871H192.461V250.004H195.559V246.673H197.681ZM221.252 246.673V250.004H224.367V251.871H221.252V255.219H219.131V251.871H216.033V250.004H219.131V246.673H221.252ZM244.823 246.673V250.004H247.938V251.871H244.823V255.219H242.702V251.871H239.604V250.004H242.702V246.673H244.823ZM268.395 246.673V250.004H271.509V251.871H268.395V255.219H266.273V251.871H263.175V250.004H266.273V246.673H268.395ZM291.966 246.673V250.004H295.081V251.871H291.966V255.219H289.845V251.871H286.747V250.004H289.845V246.673H291.966ZM315.537 246.673V250.004H318.652V251.871H315.537V255.219H313.416V251.871H310.318V250.004H313.416V246.673H315.537ZM339.109 246.673V250.004H342.223V251.871H339.109V255.219H336.987V251.871H333.889V250.004H336.987V246.673H339.109ZM362.68 246.673V250.004H365.795V251.871H362.68V255.219H360.558V251.871H357.46V250.004H360.558V246.673H362.68ZM386.251 246.673V250.004H389.366V251.871H386.251V255.219H384.13V251.871H381.032V250.004H384.13V246.673H386.251ZM103.396 271.065V274.395H106.51V276.263H103.396V279.61H101.274V276.263H98.1763V274.395H101.274V271.065H103.396ZM126.967 271.065V274.395H130.082V276.263H126.967V279.61H124.845V276.263H121.748V274.395H124.845V271.065H126.967ZM150.538 271.065V274.395H153.653V276.263H150.538V279.61H148.417V276.263H145.319V274.395H148.417V271.065H150.538ZM174.11 271.065V274.395H177.224V276.263H174.11V279.61H171.988V276.263H168.89V274.395H171.988V271.065H174.11ZM197.681 271.065V274.395H200.796V276.263H197.681V279.61H195.559V276.263H192.461V274.395H195.559V271.065H197.681ZM221.252 271.065V274.395H224.367V276.263H221.252V279.61H219.131V276.263H216.033V274.395H219.131V271.065H221.252ZM244.823 271.065V274.395H247.938V276.263H244.823V279.61H242.702V276.263H239.604V274.395H242.702V271.065H244.823ZM268.395 271.065V274.395H271.509V276.263H268.395V279.61H266.273V276.263H263.175V274.395H266.273V271.065H268.395ZM291.966 271.065V274.395H295.081V276.263H291.966V279.61H289.845V276.263H286.747V274.395H289.845V271.065H291.966ZM315.537 271.065V274.395H318.652V276.263H315.537V279.61H313.416V276.263H310.318V274.395H313.416V271.065H315.537ZM339.109 271.065V274.395H342.223V276.263H339.109V279.61H336.987V276.263H333.889V274.395H336.987V271.065H339.109ZM362.68 271.065V274.395H365.795V276.263H362.68V279.61H360.558V276.263H357.46V274.395H360.558V271.065H362.68ZM386.251 271.065V274.395H389.366V276.263H386.251V279.61H384.13V276.263H381.032V274.395H384.13V271.065H386.251Z" fill="#EBD59C"/>
</g>
<path d="M152.101 213.688H438.75V362.215C438.75 369.53 432.82 375.46 425.505 375.46H165.346C158.031 375.46 152.101 369.53 152.101 362.215V213.688Z" fill="#F2F2F2"/>
<g clip-path="url(#clip1_302_898)">
<rect x="161.562" y="223.148" width="267.728" height="142.851" rx="13.2445" fill="white"/>
<path d="M179.621 261.806C178.56 261.806 177.648 261.624 176.887 261.259C176.126 260.884 175.504 260.396 175.021 259.796C174.539 259.185 174.18 258.531 173.944 257.834C173.719 257.126 173.606 256.44 173.606 255.775V255.421C173.606 254.692 173.724 253.974 173.96 253.266C174.196 252.548 174.555 251.899 175.037 251.32C175.531 250.741 176.147 250.28 176.887 249.937C177.637 249.583 178.522 249.406 179.541 249.406C180.602 249.406 181.54 249.605 182.355 250.002C183.17 250.398 183.819 250.95 184.301 251.658C184.794 252.355 185.084 253.175 185.169 254.119H182.516C182.441 253.647 182.269 253.245 182.001 252.913C181.733 252.58 181.385 252.323 180.956 252.141C180.538 251.958 180.066 251.867 179.541 251.867C179.015 251.867 178.549 251.958 178.141 252.141C177.734 252.323 177.391 252.58 177.112 252.913C176.844 253.245 176.635 253.642 176.485 254.103C176.346 254.553 176.276 255.057 176.276 255.614C176.276 256.161 176.346 256.665 176.485 257.126C176.635 257.576 176.849 257.973 177.128 258.316C177.418 258.649 177.771 258.906 178.19 259.088C178.608 259.26 179.085 259.346 179.621 259.346C180.436 259.346 181.122 259.147 181.68 258.75C182.248 258.354 182.591 257.807 182.709 257.11H185.346C185.25 257.968 184.96 258.756 184.478 259.474C184.006 260.182 183.358 260.75 182.532 261.179C181.717 261.597 180.747 261.806 179.621 261.806ZM191.246 261.806C190.474 261.806 189.787 261.688 189.187 261.452C188.587 261.206 188.077 260.873 187.659 260.455C187.252 260.037 186.941 259.56 186.726 259.024C186.512 258.477 186.405 257.903 186.405 257.303V256.933C186.405 256.322 186.512 255.743 186.726 255.196C186.952 254.639 187.273 254.151 187.691 253.733C188.12 253.315 188.635 252.988 189.235 252.752C189.836 252.505 190.506 252.382 191.246 252.382C192.007 252.382 192.682 252.505 193.272 252.752C193.872 252.988 194.382 253.315 194.8 253.733C195.218 254.151 195.54 254.639 195.765 255.196C195.99 255.743 196.103 256.322 196.103 256.933V257.303C196.103 257.903 195.995 258.477 195.781 259.024C195.566 259.56 195.25 260.037 194.832 260.455C194.425 260.873 193.921 261.206 193.32 261.452C192.72 261.688 192.028 261.806 191.246 261.806ZM191.246 259.635C191.749 259.635 192.168 259.528 192.5 259.313C192.832 259.099 193.084 258.799 193.256 258.413C193.438 258.027 193.529 257.598 193.529 257.126C193.529 256.622 193.438 256.183 193.256 255.807C193.074 255.421 192.811 255.116 192.468 254.891C192.135 254.666 191.728 254.553 191.246 254.553C190.774 254.553 190.366 254.666 190.023 254.891C189.68 255.116 189.418 255.421 189.235 255.807C189.064 256.183 188.978 256.622 188.978 257.126C188.978 257.598 189.064 258.027 189.235 258.413C189.407 258.799 189.664 259.099 190.007 259.313C190.35 259.528 190.763 259.635 191.246 259.635ZM197.898 261.501V252.687H199.941V256.467H199.796C199.796 255.566 199.909 254.816 200.134 254.215C200.37 253.615 200.724 253.164 201.195 252.864C201.667 252.564 202.241 252.414 202.916 252.414H203.029C204.058 252.414 204.841 252.752 205.377 253.427C205.924 254.092 206.197 255.105 206.197 256.467V261.501H203.624V256.322C203.624 255.85 203.484 255.464 203.206 255.164C202.927 254.864 202.552 254.714 202.08 254.714C201.597 254.714 201.206 254.869 200.906 255.18C200.616 255.48 200.472 255.877 200.472 256.37V261.501H197.898ZM210.032 261.501L207.394 252.687H210.048L212.524 261.501H210.032ZM210.836 261.501V259.362H213.425V261.501H210.836ZM211.785 261.501L213.924 252.687H216.4L214.117 261.501H211.785ZM221.756 261.806C221.005 261.806 220.34 261.678 219.761 261.42C219.193 261.163 218.716 260.82 218.33 260.391C217.955 259.951 217.665 259.463 217.462 258.927C217.269 258.381 217.172 257.823 217.172 257.255V256.933C217.172 256.343 217.269 255.781 217.462 255.244C217.665 254.698 217.955 254.21 218.33 253.781C218.705 253.352 219.172 253.014 219.729 252.768C220.297 252.51 220.941 252.382 221.659 252.382C222.603 252.382 223.396 252.596 224.039 253.025C224.693 253.443 225.192 253.995 225.535 254.682C225.878 255.357 226.05 256.097 226.05 256.901V257.769H218.25V256.306H224.49L223.653 256.981C223.653 256.456 223.578 256.006 223.428 255.63C223.278 255.255 223.053 254.971 222.753 254.778C222.463 254.574 222.099 254.473 221.659 254.473C221.209 254.473 220.828 254.574 220.517 254.778C220.206 254.982 219.97 255.282 219.81 255.679C219.649 256.065 219.568 256.542 219.568 257.11C219.568 257.635 219.643 258.096 219.794 258.493C219.944 258.879 220.18 259.179 220.501 259.394C220.823 259.608 221.241 259.715 221.756 259.715C222.227 259.715 222.613 259.624 222.914 259.442C223.214 259.26 223.418 259.035 223.525 258.767H225.889C225.76 259.356 225.508 259.882 225.133 260.343C224.758 260.804 224.286 261.163 223.718 261.42C223.149 261.678 222.495 261.806 221.756 261.806ZM227.755 261.501V252.687H229.797V256.467H229.749C229.749 255.223 230.012 254.263 230.537 253.588C231.073 252.913 231.845 252.575 232.853 252.575H233.191V254.794H232.547C231.84 254.794 231.293 254.987 230.907 255.373C230.521 255.748 230.328 256.295 230.328 257.014V261.501H227.755ZM237.869 261.774C236.615 261.774 235.634 261.517 234.926 261.002C234.218 260.487 233.843 259.764 233.8 258.831H236.084C236.127 259.11 236.293 259.362 236.583 259.587C236.883 259.801 237.328 259.908 237.917 259.908C238.368 259.908 238.738 259.833 239.027 259.683C239.327 259.522 239.477 259.297 239.477 259.008C239.477 258.75 239.365 258.547 239.14 258.397C238.915 258.236 238.512 258.123 237.933 258.059L237.242 257.995C236.18 257.887 235.382 257.593 234.846 257.11C234.32 256.628 234.058 256.011 234.058 255.261C234.058 254.639 234.213 254.119 234.524 253.701C234.835 253.282 235.264 252.966 235.811 252.752C236.368 252.537 237.001 252.43 237.708 252.43C238.845 252.43 239.762 252.682 240.458 253.186C241.155 253.679 241.52 254.397 241.552 255.341H239.268C239.225 255.051 239.075 254.81 238.818 254.617C238.561 254.414 238.18 254.312 237.676 254.312C237.279 254.312 236.963 254.387 236.727 254.537C236.491 254.687 236.373 254.891 236.373 255.148C236.373 255.395 236.475 255.582 236.679 255.711C236.883 255.84 237.215 255.931 237.676 255.984L238.368 256.049C239.451 256.167 240.292 256.467 240.893 256.949C241.493 257.432 241.793 258.08 241.793 258.895C241.793 259.485 241.632 260 241.311 260.439C240.989 260.868 240.534 261.2 239.944 261.436C239.354 261.661 238.663 261.774 237.869 261.774ZM243.879 261.501V252.687H246.452V261.501H243.879ZM242.705 254.585V252.687H246.452V254.585H242.705ZM244.876 251.819C244.393 251.819 244.034 251.696 243.798 251.449C243.573 251.192 243.46 250.87 243.46 250.484C243.46 250.087 243.573 249.766 243.798 249.519C244.034 249.262 244.393 249.133 244.876 249.133C245.358 249.133 245.712 249.262 245.937 249.519C246.173 249.766 246.291 250.087 246.291 250.484C246.291 250.87 246.173 251.192 245.937 251.449C245.712 251.696 245.358 251.819 244.876 251.819ZM253.126 261.806C252.354 261.806 251.668 261.688 251.067 261.452C250.467 261.206 249.958 260.873 249.539 260.455C249.132 260.037 248.821 259.56 248.607 259.024C248.392 258.477 248.285 257.903 248.285 257.303V256.933C248.285 256.322 248.392 255.743 248.607 255.196C248.832 254.639 249.153 254.151 249.572 253.733C250.001 253.315 250.515 252.988 251.116 252.752C251.716 252.505 252.386 252.382 253.126 252.382C253.887 252.382 254.563 252.505 255.152 252.752C255.753 252.988 256.262 253.315 256.68 253.733C257.098 254.151 257.42 254.639 257.645 255.196C257.87 255.743 257.983 256.322 257.983 256.933V257.303C257.983 257.903 257.876 258.477 257.661 259.024C257.447 259.56 257.13 260.037 256.712 260.455C256.305 260.873 255.801 261.206 255.201 261.452C254.6 261.688 253.909 261.806 253.126 261.806ZM253.126 259.635C253.63 259.635 254.048 259.528 254.38 259.313C254.713 259.099 254.965 258.799 255.136 258.413C255.318 258.027 255.41 257.598 255.41 257.126C255.41 256.622 255.318 256.183 255.136 255.807C254.954 255.421 254.691 255.116 254.348 254.891C254.016 254.666 253.608 254.553 253.126 254.553C252.654 254.553 252.247 254.666 251.904 254.891C251.561 255.116 251.298 255.421 251.116 255.807C250.944 256.183 250.858 256.622 250.858 257.126C250.858 257.598 250.944 258.027 251.116 258.413C251.287 258.799 251.544 259.099 251.888 259.313C252.231 259.528 252.643 259.635 253.126 259.635ZM259.779 261.501V252.687H261.821V256.467H261.676C261.676 255.566 261.789 254.816 262.014 254.215C262.25 253.615 262.604 253.164 263.076 252.864C263.547 252.564 264.121 252.414 264.796 252.414H264.909C265.938 252.414 266.721 252.752 267.257 253.427C267.804 254.092 268.077 255.105 268.077 256.467V261.501H265.504V256.322C265.504 255.85 265.365 255.464 265.086 255.164C264.807 254.864 264.432 254.714 263.96 254.714C263.478 254.714 263.086 254.869 262.786 255.18C262.497 255.48 262.352 255.877 262.352 256.37V261.501H259.779ZM273.792 261.501V249.664H276.429V261.501H273.792ZM280.916 261.501L277.474 256.451H280.369L283.972 261.501H280.916ZM275.721 257.737V255.663H278.616C279.002 255.663 279.335 255.588 279.613 255.437C279.903 255.277 280.123 255.057 280.273 254.778C280.434 254.489 280.514 254.156 280.514 253.781C280.514 253.406 280.434 253.079 280.273 252.8C280.123 252.51 279.903 252.291 279.613 252.141C279.335 251.98 279.002 251.899 278.616 251.899H275.721V249.664H278.407C279.383 249.664 280.23 249.814 280.948 250.114C281.667 250.404 282.219 250.838 282.605 251.417C282.991 251.996 283.184 252.725 283.184 253.604V253.861C283.184 254.73 282.985 255.454 282.589 256.033C282.203 256.601 281.651 257.03 280.932 257.319C280.225 257.598 279.383 257.737 278.407 257.737H275.721ZM290.718 261.501V258.895H290.284V256.065C290.284 255.614 290.177 255.277 289.962 255.051C289.748 254.826 289.405 254.714 288.933 254.714C288.697 254.714 288.386 254.719 288 254.73C287.614 254.741 287.217 254.757 286.81 254.778C286.402 254.8 286.033 254.821 285.7 254.842V252.671C285.947 252.65 286.236 252.628 286.569 252.607C286.901 252.585 287.244 252.569 287.598 252.559C287.952 252.548 288.284 252.543 288.595 252.543C289.496 252.543 290.252 252.671 290.863 252.929C291.485 253.186 291.956 253.577 292.278 254.103C292.6 254.617 292.76 255.282 292.76 256.097V261.501H290.718ZM287.904 261.726C287.271 261.726 286.713 261.613 286.231 261.388C285.759 261.163 285.389 260.841 285.121 260.423C284.853 259.994 284.719 259.485 284.719 258.895C284.719 258.252 284.885 257.727 285.218 257.319C285.55 256.901 286.016 256.595 286.617 256.402C287.217 256.199 287.909 256.097 288.692 256.097H290.573V257.528H288.675C288.225 257.528 287.877 257.641 287.63 257.866C287.394 258.08 287.276 258.375 287.276 258.75C287.276 259.104 287.394 259.394 287.63 259.619C287.877 259.833 288.225 259.941 288.675 259.941C288.965 259.941 289.222 259.892 289.447 259.796C289.683 259.689 289.876 259.512 290.026 259.265C290.177 259.019 290.262 258.675 290.284 258.236L290.895 258.879C290.841 259.49 290.691 260.005 290.445 260.423C290.209 260.841 289.876 261.163 289.447 261.388C289.029 261.613 288.515 261.726 287.904 261.726ZM298.948 261.613C298.058 261.613 297.34 261.506 296.793 261.292C296.246 261.066 295.844 260.696 295.587 260.182C295.34 259.656 295.217 258.949 295.217 258.059V250.307H297.613V258.155C297.613 258.574 297.721 258.895 297.935 259.12C298.16 259.335 298.476 259.442 298.884 259.442H300.187V261.613H298.948ZM293.882 254.569V252.687H300.187V254.569H293.882ZM305.922 261.806C305.172 261.806 304.507 261.678 303.928 261.42C303.36 261.163 302.883 260.82 302.497 260.391C302.121 259.951 301.832 259.463 301.628 258.927C301.435 258.381 301.339 257.823 301.339 257.255V256.933C301.339 256.343 301.435 255.781 301.628 255.244C301.832 254.698 302.121 254.21 302.497 253.781C302.872 253.352 303.338 253.014 303.896 252.768C304.464 252.51 305.107 252.382 305.826 252.382C306.769 252.382 307.563 252.596 308.206 253.025C308.86 253.443 309.359 253.995 309.702 254.682C310.045 255.357 310.216 256.097 310.216 256.901V257.769H302.416V256.306H308.656L307.82 256.981C307.82 256.456 307.745 256.006 307.595 255.63C307.445 255.255 307.22 254.971 306.919 254.778C306.63 254.574 306.265 254.473 305.826 254.473C305.375 254.473 304.995 254.574 304.684 254.778C304.373 254.982 304.137 255.282 303.976 255.679C303.815 256.065 303.735 256.542 303.735 257.11C303.735 257.635 303.81 258.096 303.96 258.493C304.11 258.879 304.346 259.179 304.668 259.394C304.99 259.608 305.408 259.715 305.922 259.715C306.394 259.715 306.78 259.624 307.08 259.442C307.38 259.26 307.584 259.035 307.691 258.767H310.056C309.927 259.356 309.675 259.882 309.3 260.343C308.924 260.804 308.453 261.163 307.884 261.42C307.316 261.678 306.662 261.806 305.922 261.806Z" fill="#2E2A17"/>
<g clip-path="url(#clip2_302_898)">
<path fill-rule="evenodd" clip-rule="evenodd" d="M336.459 250.895L341.181 257.388H331.738L336.459 250.895Z" fill="#4A0AD2" stroke="#4A0AD2" stroke-width="0.473018" stroke-linejoin="round"/>
<path d="M337.811 254.55H335.108C334.847 254.55 334.635 254.761 334.635 255.023V261.231C334.635 261.492 334.847 261.704 335.108 261.704H337.811C338.072 261.704 338.284 261.492 338.284 261.231V255.023C338.284 254.761 338.072 254.55 337.811 254.55Z" fill="#4A0AD2" stroke="#4A0AD2" stroke-width="0.473018"/>
</g>
<path d="M357.064 255.133V257.536H348.766V255.133H357.064ZM354.237 251.973V260.787H351.618V251.973H354.237ZM360.789 254.775H362.153C362.502 254.775 362.787 254.714 363.009 254.592C363.236 254.465 363.405 254.287 363.516 254.06C363.627 253.827 363.683 253.553 363.683 253.237C363.683 252.993 363.63 252.768 363.525 252.563C363.425 252.358 363.27 252.195 363.059 252.073C362.848 251.945 362.579 251.882 362.252 251.882C362.031 251.882 361.815 251.929 361.604 252.023C361.393 252.112 361.219 252.239 361.08 252.405C360.947 252.572 360.881 252.774 360.881 253.012H358.07C358.07 252.325 358.259 251.737 358.636 251.25C359.018 250.756 359.52 250.379 360.14 250.119C360.767 249.853 361.44 249.72 362.161 249.72C363.02 249.72 363.774 249.853 364.423 250.119C365.071 250.379 365.576 250.767 365.936 251.283C366.302 251.793 366.485 252.425 366.485 253.179C366.485 253.594 366.388 253.985 366.194 254.351C366 254.717 365.728 255.038 365.379 255.316C365.03 255.593 364.619 255.812 364.148 255.972C363.683 256.128 363.173 256.205 362.618 256.205H360.789V254.775ZM360.789 256.862V255.465H362.618C363.222 255.465 363.774 255.534 364.273 255.673C364.772 255.806 365.201 256.006 365.562 256.272C365.922 256.538 366.199 256.868 366.393 257.261C366.587 257.649 366.684 258.095 366.684 258.6C366.684 259.165 366.571 259.67 366.343 260.113C366.116 260.557 365.797 260.931 365.387 261.236C364.977 261.541 364.497 261.773 363.949 261.934C363.4 262.089 362.804 262.167 362.161 262.167C361.657 262.167 361.152 262.1 360.648 261.967C360.143 261.829 359.683 261.618 359.267 261.335C358.852 261.047 358.516 260.681 358.261 260.238C358.012 259.789 357.887 259.254 357.887 258.633H360.698C360.698 258.888 360.767 259.121 360.905 259.332C361.05 259.537 361.241 259.7 361.479 259.822C361.718 259.944 361.975 260.005 362.252 260.005C362.596 260.005 362.887 259.941 363.125 259.814C363.369 259.681 363.555 259.503 363.683 259.282C363.81 259.06 363.874 258.813 363.874 258.542C363.874 258.131 363.805 257.804 363.666 257.561C363.533 257.317 363.336 257.139 363.076 257.028C362.821 256.918 362.513 256.862 362.153 256.862H360.789ZM374.425 249.72H374.874V251.923H374.725C374.187 251.923 373.682 251.998 373.211 252.148C372.746 252.297 372.335 252.525 371.981 252.829C371.631 253.129 371.357 253.508 371.158 253.969C370.964 254.429 370.867 254.969 370.867 255.59V257.71C370.867 258.098 370.9 258.436 370.966 258.725C371.033 259.013 371.133 259.251 371.266 259.44C371.399 259.628 371.562 259.769 371.756 259.864C371.956 259.958 372.186 260.005 372.446 260.005C372.663 260.005 372.862 259.955 373.045 259.855C373.228 259.756 373.386 259.614 373.519 259.431C373.658 259.248 373.763 259.035 373.835 258.791C373.907 258.547 373.943 258.281 373.943 257.993C373.943 257.682 373.904 257.403 373.827 257.153C373.749 256.904 373.638 256.693 373.494 256.521C373.355 256.344 373.186 256.211 372.987 256.122C372.793 256.028 372.579 255.981 372.347 255.981C371.992 255.981 371.69 256.061 371.44 256.222C371.196 256.377 371.011 256.577 370.883 256.821C370.761 257.064 370.7 257.311 370.7 257.561L370.027 256.879C370.016 256.546 370.079 256.202 370.218 255.848C370.357 255.493 370.564 255.163 370.842 254.858C371.119 254.553 371.465 254.307 371.881 254.118C372.297 253.93 372.779 253.836 373.328 253.836C373.882 253.836 374.37 253.941 374.791 254.151C375.218 254.362 375.575 254.656 375.864 255.033C376.157 255.41 376.379 255.85 376.529 256.355C376.679 256.859 376.753 257.405 376.753 257.993C376.753 258.586 376.648 259.138 376.437 259.648C376.232 260.152 375.941 260.593 375.564 260.97C375.187 261.347 374.741 261.64 374.226 261.851C373.71 262.062 373.142 262.167 372.521 262.167C371.884 262.167 371.293 262.059 370.75 261.843C370.212 261.621 369.741 261.302 369.337 260.886C368.938 260.465 368.624 259.952 368.397 259.348C368.175 258.744 368.064 258.059 368.064 257.294V256.272C368.064 255.235 368.234 254.312 368.572 253.503C368.915 252.694 369.381 252.009 369.969 251.449C370.562 250.884 371.241 250.454 372.006 250.16C372.771 249.867 373.577 249.72 374.425 249.72ZM378.217 260.687C378.217 260.288 378.361 259.955 378.649 259.689C378.937 259.417 379.309 259.282 379.763 259.282C380.223 259.282 380.595 259.417 380.878 259.689C381.166 259.955 381.31 260.288 381.31 260.687C381.31 261.086 381.166 261.421 380.878 261.693C380.595 261.959 380.223 262.092 379.763 262.092C379.309 262.092 378.937 261.959 378.649 261.693C378.361 261.421 378.217 261.086 378.217 260.687ZM385.542 256.604L383.314 256.08L384.045 249.894H391.121V252.073H386.332L386.058 254.476C386.191 254.398 386.415 254.307 386.731 254.201C387.053 254.09 387.407 254.035 387.795 254.035C388.394 254.035 388.923 254.127 389.384 254.309C389.849 254.487 390.243 254.75 390.564 255.099C390.886 255.443 391.127 255.867 391.288 256.372C391.454 256.876 391.537 257.452 391.537 258.101C391.537 258.622 391.451 259.126 391.279 259.614C391.113 260.097 390.855 260.532 390.506 260.92C390.162 261.302 389.727 261.607 389.201 261.834C388.674 262.056 388.05 262.167 387.33 262.167C386.792 262.167 386.268 262.084 385.758 261.917C385.248 261.751 384.788 261.513 384.378 261.202C383.973 260.886 383.652 260.507 383.414 260.063C383.181 259.614 383.067 259.113 383.073 258.558H385.891C385.908 258.852 385.977 259.107 386.099 259.323C386.221 259.539 386.385 259.709 386.59 259.83C386.8 259.947 387.042 260.005 387.313 260.005C387.59 260.005 387.82 259.95 388.003 259.839C388.186 259.728 388.33 259.575 388.436 259.381C388.541 259.187 388.616 258.966 388.66 258.716C388.704 258.461 388.727 258.192 388.727 257.91C388.727 257.61 388.693 257.342 388.627 257.103C388.566 256.865 388.466 256.663 388.328 256.496C388.189 256.324 388.009 256.194 387.787 256.105C387.571 256.017 387.31 255.972 387.005 255.972C386.601 255.972 386.282 256.042 386.049 256.18C385.816 256.319 385.647 256.46 385.542 256.604ZM401.432 254.842V257.053C401.432 257.924 401.329 258.68 401.124 259.323C400.924 259.966 400.636 260.498 400.259 260.92C399.888 261.341 399.444 261.654 398.929 261.859C398.413 262.064 397.845 262.167 397.224 262.167C396.725 262.167 396.26 262.103 395.827 261.976C395.395 261.843 395.004 261.643 394.655 261.377C394.311 261.105 394.015 260.767 393.765 260.363C393.516 259.958 393.325 259.481 393.192 258.932C393.059 258.378 392.992 257.752 392.992 257.053V254.842C392.992 253.966 393.092 253.209 393.291 252.572C393.497 251.929 393.788 251.397 394.165 250.975C394.541 250.554 394.988 250.241 395.503 250.036C396.019 249.831 396.587 249.728 397.208 249.728C397.707 249.728 398.169 249.795 398.596 249.928C399.029 250.055 399.419 250.255 399.769 250.526C400.118 250.792 400.414 251.128 400.658 251.532C400.908 251.937 401.099 252.416 401.232 252.971C401.365 253.52 401.432 254.143 401.432 254.842ZM398.63 257.394V254.484C398.63 254.096 398.607 253.758 398.563 253.47C398.524 253.181 398.463 252.938 398.38 252.738C398.302 252.538 398.205 252.378 398.089 252.256C397.973 252.128 397.84 252.037 397.69 251.981C397.546 251.92 397.385 251.89 397.208 251.89C396.986 251.89 396.786 251.937 396.609 252.031C396.437 252.12 396.29 252.264 396.168 252.464C396.046 252.663 395.952 252.929 395.886 253.262C395.825 253.594 395.794 254.002 395.794 254.484V257.394C395.794 257.788 395.814 258.131 395.852 258.425C395.897 258.714 395.958 258.96 396.035 259.165C396.118 259.365 396.218 259.528 396.335 259.656C396.451 259.778 396.584 259.866 396.734 259.922C396.883 259.977 397.047 260.005 397.224 260.005C397.441 260.005 397.635 259.961 397.806 259.872C397.978 259.783 398.125 259.639 398.247 259.44C398.375 259.235 398.469 258.966 398.53 258.633C398.596 258.295 398.63 257.882 398.63 257.394ZM402.912 252.863V252.222C402.912 251.762 403.011 251.344 403.211 250.967C403.411 250.59 403.71 250.288 404.109 250.061C404.508 249.833 405.004 249.72 405.597 249.72C406.207 249.72 406.711 249.833 407.111 250.061C407.51 250.288 407.806 250.59 408 250.967C408.2 251.344 408.3 251.762 408.3 252.222V252.863C408.3 253.312 408.2 253.725 408 254.102C407.806 254.479 407.51 254.781 407.111 255.008C406.717 255.235 406.221 255.349 405.622 255.349C405.018 255.349 404.516 255.235 404.117 255.008C403.718 254.781 403.416 254.479 403.211 254.102C403.011 253.725 402.912 253.312 402.912 252.863ZM404.708 252.222V252.863C404.708 253.029 404.741 253.187 404.807 253.337C404.874 253.486 404.974 253.608 405.107 253.702C405.245 253.791 405.414 253.836 405.614 253.836C405.819 253.836 405.985 253.791 406.113 253.702C406.24 253.608 406.335 253.486 406.396 253.337C406.462 253.187 406.495 253.029 406.495 252.863V252.222C406.495 252.045 406.462 251.882 406.396 251.732C406.335 251.582 406.238 251.463 406.104 251.374C405.971 251.28 405.802 251.233 405.597 251.233C405.403 251.233 405.24 251.28 405.107 251.374C404.974 251.463 404.874 251.582 404.807 251.732C404.741 251.882 404.708 252.045 404.708 252.222ZM408.657 259.672V259.032C408.657 258.578 408.757 258.162 408.956 257.785C409.162 257.408 409.464 257.106 409.863 256.879C410.267 256.651 410.766 256.538 411.359 256.538C411.969 256.538 412.471 256.651 412.864 256.879C413.264 257.106 413.56 257.408 413.754 257.785C413.954 258.162 414.053 258.578 414.053 259.032V259.672C414.053 260.127 413.954 260.543 413.754 260.92C413.56 261.297 413.266 261.599 412.873 261.826C412.479 262.053 411.983 262.167 411.384 262.167C410.78 262.167 410.276 262.053 409.871 261.826C409.466 261.599 409.162 261.297 408.956 260.92C408.757 260.543 408.657 260.127 408.657 259.672ZM410.461 259.032V259.672C410.461 259.844 410.503 260.005 410.586 260.155C410.669 260.304 410.78 260.426 410.919 260.521C411.057 260.609 411.21 260.654 411.376 260.654C411.631 260.654 411.82 260.609 411.941 260.521C412.069 260.426 412.152 260.304 412.191 260.155C412.235 260.005 412.257 259.844 412.257 259.672V259.032C412.257 258.86 412.224 258.7 412.158 258.55C412.091 258.4 411.991 258.281 411.858 258.192C411.725 258.098 411.559 258.051 411.359 258.051C411.16 258.051 410.994 258.098 410.861 258.192C410.728 258.281 410.628 258.4 410.561 258.55C410.495 258.7 410.461 258.86 410.461 259.032ZM412.058 251.632L406.146 261.094L404.841 260.437L410.752 250.975L412.058 251.632Z" fill="#4A0AD2"/>
<path d="M182.084 314.713C180.705 314.713 179.522 314.492 178.534 314.049C177.546 313.589 176.737 312.951 176.107 312.133C175.494 311.299 175.035 310.345 174.728 309.273C174.439 308.2 174.294 307.05 174.294 305.824V304.752C174.294 301.652 175.086 299.319 176.669 297.753C178.253 296.169 180.586 295.377 183.668 295.377C184.298 295.377 184.92 295.394 185.533 295.428C186.146 295.462 186.742 295.513 187.321 295.582V299.081C186.759 299.03 186.154 298.987 185.507 298.953C184.86 298.902 184.196 298.877 183.515 298.877C182.153 298.877 181.08 299.107 180.296 299.566C179.513 300.009 178.96 300.682 178.636 301.584C178.313 302.487 178.151 303.602 178.151 304.93V306.872L177.231 307.485C177.248 306.207 177.504 305.143 177.998 304.292C178.508 303.423 179.207 302.776 180.092 302.35C180.978 301.925 181.999 301.712 183.157 301.712C184.468 301.712 185.601 301.976 186.554 302.504C187.508 303.015 188.24 303.738 188.751 304.675C189.262 305.611 189.517 306.718 189.517 307.995C189.517 309.341 189.211 310.524 188.598 311.546C187.985 312.551 187.116 313.334 185.993 313.896C184.886 314.441 183.583 314.713 182.084 314.713ZM181.957 311.239C182.706 311.239 183.336 311.103 183.847 310.831C184.375 310.558 184.775 310.192 185.047 309.732C185.337 309.256 185.482 308.702 185.482 308.072C185.482 307.425 185.345 306.872 185.073 306.412C184.801 305.935 184.409 305.569 183.898 305.313C183.404 305.041 182.791 304.905 182.059 304.905C181.395 304.905 180.782 305.024 180.22 305.262C179.675 305.484 179.241 305.833 178.917 306.31C178.594 306.769 178.432 307.357 178.432 308.072C178.432 308.685 178.56 309.23 178.815 309.707C179.087 310.184 179.488 310.558 180.015 310.831C180.543 311.103 181.19 311.239 181.957 311.239ZM191.676 314.177V309.605H196.172V314.177H191.676ZM201.087 314.177L207.626 299.336L207.345 298.953H198.278V295.531H212.403V298.187L205.532 314.177H201.087ZM198.278 301.967V295.531H201.675V301.967H198.278ZM221.277 314.662C219.796 314.662 218.518 314.381 217.446 313.819C216.373 313.24 215.547 312.466 214.968 311.495C214.406 310.524 214.125 309.451 214.125 308.276H218.161C218.161 308.855 218.289 309.366 218.544 309.809C218.816 310.235 219.191 310.575 219.668 310.831C220.145 311.069 220.69 311.188 221.303 311.188C221.984 311.188 222.554 311.052 223.014 310.78C223.491 310.49 223.857 310.107 224.112 309.63C224.368 309.136 224.496 308.583 224.496 307.97C224.496 307.34 224.368 306.786 224.112 306.31C223.874 305.816 223.516 305.424 223.04 305.135C222.58 304.845 222.018 304.7 221.354 304.7C220.741 304.7 220.187 304.828 219.693 305.084C219.2 305.339 218.834 305.663 218.595 306.054H214.662L215.607 295.531H226.922V299.107H217.267L218.876 298.034L218.314 304.087L217.344 303.832C217.854 303.219 218.467 302.708 219.183 302.299C219.915 301.874 220.868 301.661 222.043 301.661C223.406 301.661 224.564 301.942 225.517 302.504C226.488 303.049 227.229 303.789 227.74 304.726C228.267 305.646 228.531 306.676 228.531 307.817V308.149C228.531 309.29 228.25 310.354 227.688 311.342C227.126 312.329 226.301 313.13 225.211 313.743C224.138 314.356 222.827 314.662 221.277 314.662ZM235.698 314.177L242.492 295.531H245.915L239.146 314.177H235.698ZM234.42 305.773C233.416 305.773 232.573 305.552 231.892 305.109C231.228 304.649 230.725 304.045 230.385 303.296C230.061 302.529 229.899 301.686 229.899 300.767V300.103C229.899 299.132 230.07 298.272 230.41 297.523C230.751 296.774 231.262 296.186 231.943 295.76C232.624 295.335 233.45 295.122 234.42 295.122C235.408 295.122 236.234 295.335 236.898 295.76C237.579 296.186 238.09 296.774 238.431 297.523C238.771 298.272 238.941 299.132 238.941 300.103V300.767C238.941 301.686 238.771 302.529 238.431 303.296C238.107 304.045 237.613 304.649 236.949 305.109C236.285 305.552 235.442 305.773 234.42 305.773ZM234.42 303.04C234.948 303.04 235.331 302.853 235.57 302.478C235.825 302.087 235.953 301.414 235.953 300.46C235.953 299.456 235.825 298.766 235.57 298.391C235.314 298.017 234.931 297.829 234.42 297.829C233.91 297.829 233.526 298.017 233.271 298.391C233.016 298.766 232.888 299.447 232.888 300.435C232.888 301.388 233.016 302.061 233.271 302.453C233.526 302.844 233.91 303.04 234.42 303.04ZM247.115 314.611C246.094 314.611 245.251 314.39 244.586 313.947C243.922 313.504 243.42 312.908 243.079 312.159C242.756 311.393 242.594 310.55 242.594 309.63V308.966C242.594 307.978 242.764 307.11 243.105 306.361C243.446 305.611 243.948 305.024 244.612 304.598C245.293 304.173 246.128 303.96 247.115 303.96C248.103 303.96 248.929 304.173 249.593 304.598C250.257 305.024 250.759 305.611 251.1 306.361C251.441 307.11 251.611 307.978 251.611 308.966V309.63C251.611 310.55 251.441 311.393 251.1 312.159C250.776 312.908 250.283 313.504 249.618 313.947C248.971 314.39 248.137 314.611 247.115 314.611ZM247.115 311.904C247.643 311.904 248.026 311.716 248.265 311.342C248.52 310.95 248.648 310.277 248.648 309.324C248.648 308.302 248.52 307.612 248.265 307.255C248.009 306.88 247.626 306.693 247.115 306.693C246.604 306.693 246.213 306.88 245.94 307.255C245.685 307.612 245.557 308.293 245.557 309.298C245.557 310.252 245.685 310.924 245.94 311.316C246.196 311.708 246.587 311.904 247.115 311.904Z" fill="#2E2A17"/>
<g clip-path="url(#clip3_302_898)">
<path d="M229.753 332.601H221.867C221.431 332.601 221.078 332.954 221.078 333.39V379.13C221.078 379.565 221.431 379.918 221.867 379.918H229.753C230.188 379.918 230.542 379.565 230.542 379.13V333.39C230.542 332.954 230.188 332.601 229.753 332.601Z" fill="#6E1FD1" fill-opacity="0.67"/>
<path d="M318.079 356.259H310.192C309.757 356.259 309.404 356.612 309.404 357.048V402.788C309.404 403.223 309.757 403.576 310.192 403.576H318.079C318.514 403.576 318.867 403.223 318.867 402.788V357.048C318.867 356.612 318.514 356.259 318.079 356.259Z" fill="#6E1FD1" fill-opacity="0.67"/>
<path d="M273.916 341.276H266.029C265.594 341.276 265.241 341.629 265.241 342.064V387.804C265.241 388.24 265.594 388.593 266.029 388.593H273.916C274.351 388.593 274.704 388.24 274.704 387.804V342.064C274.704 341.629 274.351 341.276 273.916 341.276Z" fill="#6E1FD1" fill-opacity="0.67"/>
<path d="M185.591 344.43H177.705C177.269 344.43 176.916 344.783 176.916 345.219V390.959C176.916 391.394 177.269 391.747 177.705 391.747H185.591C186.026 391.747 186.379 391.394 186.379 390.959V345.219C186.379 344.783 186.026 344.43 185.591 344.43Z" fill="#6E1FD1" fill-opacity="0.67"/>
<path d="M362.241 342.853H354.355C353.919 342.853 353.566 343.206 353.566 343.642V389.382C353.566 389.817 353.919 390.17 354.355 390.17H362.241C362.676 390.17 363.029 389.817 363.029 389.382V343.642C363.029 343.206 362.676 342.853 362.241 342.853Z" fill="#6E1FD1" fill-opacity="0.67"/>
<path d="M428.484 329.447H420.598C420.163 329.447 419.81 329.8 419.81 330.235V375.975C419.81 376.411 420.163 376.764 420.598 376.764H428.484C428.92 376.764 429.273 376.411 429.273 375.975V330.235C429.273 329.8 428.92 329.447 428.484 329.447Z" fill="#6E1FD1" fill-opacity="0.67"/>
<path d="M251.835 340.487H243.949C243.513 340.487 243.16 340.84 243.16 341.276V387.016C243.16 387.451 243.513 387.804 243.949 387.804H251.835C252.27 387.804 252.624 387.451 252.624 387.016V341.276C252.624 340.84 252.27 340.487 251.835 340.487Z" fill="#6E1FD1" fill-opacity="0.67"/>
<path d="M340.159 344.43H332.273C331.837 344.43 331.484 344.783 331.484 345.219V390.959C331.484 391.394 331.837 391.747 332.273 391.747H340.159C340.595 391.747 340.948 391.394 340.948 390.959V345.219C340.948 344.783 340.595 344.43 340.159 344.43Z" fill="#6E1FD1" fill-opacity="0.67"/>
<path d="M406.403 326.292H398.517C398.081 326.292 397.728 326.645 397.728 327.081V372.82C397.728 373.256 398.081 373.609 398.517 373.609H406.403C406.838 373.609 407.191 373.256 407.191 372.82V327.081C407.191 326.645 406.838 326.292 406.403 326.292Z" fill="#6E1FD1" fill-opacity="0.67"/>
<path d="M295.997 346.796H288.111C287.675 346.796 287.322 347.149 287.322 347.585V393.325C287.322 393.76 287.675 394.113 288.111 394.113H295.997C296.433 394.113 296.786 393.76 296.786 393.325V347.585C296.786 347.149 296.433 346.796 295.997 346.796Z" fill="#6E1FD1" fill-opacity="0.67"/>
<path d="M207.672 340.487H199.786C199.351 340.487 198.998 340.84 198.998 341.276V387.016C198.998 387.451 199.351 387.804 199.786 387.804H207.672C208.108 387.804 208.461 387.451 208.461 387.016V341.276C208.461 340.84 208.108 340.487 207.672 340.487Z" fill="#6E1FD1" fill-opacity="0.67"/>
<path d="M384.322 338.121H376.436C376.001 338.121 375.647 338.474 375.647 338.91V384.65C375.647 385.085 376.001 385.438 376.436 385.438H384.322C384.758 385.438 385.111 385.085 385.111 384.65V338.91C385.111 338.474 384.758 338.121 384.322 338.121Z" fill="#6E1FD1" fill-opacity="0.67"/>
<path d="M240.794 344.43H232.908C232.472 344.43 232.119 344.783 232.119 345.219V390.959C232.119 391.394 232.472 391.747 232.908 391.747H240.794C241.229 391.747 241.583 391.394 241.583 390.959V345.219C241.583 344.783 241.229 344.43 240.794 344.43Z" fill="#6E1FD1" fill-opacity="0.67"/>
<path d="M329.118 340.487H321.232C320.796 340.487 320.443 340.84 320.443 341.276V387.016C320.443 387.451 320.796 387.804 321.232 387.804H329.118C329.554 387.804 329.907 387.451 329.907 387.016V341.276C329.907 340.84 329.554 340.487 329.118 340.487Z" fill="#6E1FD1" fill-opacity="0.67"/>
<path d="M284.956 349.162H277.07C276.634 349.162 276.281 349.515 276.281 349.95V395.69C276.281 396.126 276.634 396.479 277.07 396.479H284.956C285.392 396.479 285.745 396.126 285.745 395.69V349.95C285.745 349.515 285.392 349.162 284.956 349.162Z" fill="#6E1FD1" fill-opacity="0.67"/>
<path d="M196.632 344.43H188.746C188.31 344.43 187.957 344.783 187.957 345.219V390.959C187.957 391.394 188.31 391.747 188.746 391.747H196.632C197.067 391.747 197.42 391.394 197.42 390.959V345.219C197.42 344.783 197.067 344.43 196.632 344.43Z" fill="#6E1FD1" fill-opacity="0.67"/>
<path d="M373.282 346.796H365.396C364.96 346.796 364.607 347.149 364.607 347.585V393.325C364.607 393.76 364.96 394.113 365.396 394.113H373.282C373.717 394.113 374.07 393.76 374.07 393.325V347.585C374.07 347.149 373.717 346.796 373.282 346.796Z" fill="#6E1FD1" fill-opacity="0.67"/>
<path d="M262.874 338.121H254.988C254.553 338.121 254.2 338.474 254.2 338.91V384.65C254.2 385.085 254.553 385.438 254.988 385.438H262.874C263.31 385.438 263.663 385.085 263.663 384.65V338.91C263.663 338.474 263.31 338.121 262.874 338.121Z" fill="#6E1FD1" fill-opacity="0.67"/>
<path d="M174.55 351.528H166.664C166.229 351.528 165.875 351.881 165.875 352.316V398.056C165.875 398.492 166.229 398.845 166.664 398.845H174.55C174.986 398.845 175.339 398.492 175.339 398.056V352.316C175.339 351.881 174.986 351.528 174.55 351.528Z" fill="#6E1FD1" fill-opacity="0.67"/>
<path d="M163.509 353.894H155.623C155.188 353.894 154.834 354.247 154.834 354.683V400.422C154.834 400.858 155.188 401.211 155.623 401.211H163.509C163.945 401.211 164.298 400.858 164.298 400.422V354.683C164.298 354.247 163.945 353.894 163.509 353.894Z" fill="#6E1FD1" fill-opacity="0.67"/>
<path d="M351.2 348.373H343.314C342.878 348.373 342.525 348.726 342.525 349.162V394.902C342.525 395.337 342.878 395.69 343.314 395.69H351.2C351.635 395.69 351.988 395.337 351.988 394.902V349.162C351.988 348.726 351.635 348.373 351.2 348.373Z" fill="#6E1FD1" fill-opacity="0.67"/>
<path d="M417.444 325.504H409.558C409.122 325.504 408.769 325.857 408.769 326.292V372.032C408.769 372.468 409.122 372.821 409.558 372.821H417.444C417.879 372.821 418.232 372.468 418.232 372.032V326.292C418.232 325.857 417.879 325.504 417.444 325.504Z" fill="#6E1FD1" fill-opacity="0.67"/>
<path d="M307.038 354.682H299.151C298.716 354.682 298.363 355.036 298.363 355.471V401.211C298.363 401.646 298.716 401.999 299.151 401.999H307.038C307.473 401.999 307.826 401.646 307.826 401.211V355.471C307.826 355.036 307.473 354.682 307.038 354.682Z" fill="#6E1FD1" fill-opacity="0.67"/>
<path d="M218.712 335.756H210.826C210.391 335.756 210.038 336.109 210.038 336.544V382.284C210.038 382.72 210.391 383.073 210.826 383.073H218.712C219.148 383.073 219.501 382.72 219.501 382.284V336.544C219.501 336.109 219.148 335.756 218.712 335.756Z" fill="#6E1FD1" fill-opacity="0.67"/>
<path d="M395.363 331.813H387.477C387.042 331.813 386.688 332.166 386.688 332.601V378.341C386.688 378.777 387.042 379.13 387.477 379.13H395.363C395.799 379.13 396.152 378.777 396.152 378.341V332.601C396.152 332.166 395.799 331.813 395.363 331.813Z" fill="#6E1FD1" fill-opacity="0.67"/>
</g>
</g>
<path d="M438.75 213.688H152.101V207.636C152.104 204.474 153.022 201.443 154.652 199.208C156.283 196.972 158.493 195.716 160.798 195.713H430.053C432.358 195.716 434.568 196.972 436.199 199.208C437.829 201.443 438.746 204.474 438.75 207.636V213.688Z" fill="#6E1FD1"/>
<path d="M168.225 207.709C169.916 207.709 171.287 206.339 171.287 204.648C171.287 202.957 169.916 201.586 168.225 201.586C166.534 201.586 165.164 202.957 165.164 204.648C165.164 206.339 166.534 207.709 168.225 207.709Z" fill="white"/>
<path d="M179.845 207.709C181.536 207.709 182.907 206.338 182.907 204.647C182.907 202.956 181.536 201.586 179.845 201.586C178.154 201.586 176.784 202.956 176.784 204.647C176.784 206.338 178.154 207.709 179.845 207.709Z" fill="white"/>
<path d="M191.466 207.709C193.157 207.709 194.528 206.338 194.528 204.647C194.528 202.956 193.157 201.586 191.466 201.586C189.775 201.586 188.405 202.956 188.405 204.647C188.405 206.338 189.775 207.709 191.466 207.709Z" fill="white"/>
<g filter="url(#filter0_d_302_898)">
<path d="M9.25049 79.9213H295.899V228.449C295.899 235.764 289.969 241.693 282.655 241.693H22.495C15.1803 241.693 9.25049 235.764 9.25049 228.449V79.9213Z" fill="#F2F2F2" shape-rendering="crispEdges"/>
<g clip-path="url(#clip4_302_898)">
<rect x="18.7104" y="89.3817" width="267.728" height="142.851" rx="13.2445" fill="white"/>
<g clip-path="url(#clip5_302_898)">
<path fill-rule="evenodd" clip-rule="evenodd" d="M18.7314 230.692L38.2881 219.468L76.1894 227.342L102.336 210.19L135.329 207.548L163.871 221.342L201.924 225.338L223.324 213.91L246.149 207.548H267.922L292.231 197.177L332.253 189.874V237.946H18.7314V230.692Z" fill="#FEE1FF"/>
<path fill-rule="evenodd" clip-rule="evenodd" d="M18.224 231.089L15.1455 238.971H337.261L334.012 191.482L291.7 197.321L268.224 207.834H246.54L223.191 213.858L201.307 225.316L163.048 221.355L134.961 207.858L102.104 210.321L76.4188 228.253L38.2027 219.736L18.224 231.089Z" stroke="#5C19B0" stroke-width="2.82773"/>
</g>
<path d="M31.3818 127.734V115.994H35.0164L37.7022 122.587H38.0078L40.6614 115.994H44.3604V127.734H41.755V117.714L42.1249 117.747L39.021 125.354H36.5121L33.3921 117.747L33.7942 117.714V127.734H31.3818ZM51.1425 128.039C50.3705 128.039 49.6843 127.922 49.0839 127.686C48.4835 127.439 47.9742 127.107 47.5561 126.689C47.1487 126.27 46.8377 125.793 46.6233 125.257C46.4089 124.71 46.3016 124.137 46.3016 123.536V123.166C46.3016 122.555 46.4089 121.976 46.6233 121.43C46.8484 120.872 47.1701 120.384 47.5882 119.966C48.0171 119.548 48.5318 119.221 49.1322 118.985C49.7326 118.738 50.4027 118.615 51.1425 118.615C51.9037 118.615 52.5792 118.738 53.1689 118.985C53.7693 119.221 54.2786 119.548 54.6968 119.966C55.1149 120.384 55.4366 120.872 55.6617 121.43C55.8869 121.976 55.9994 122.555 55.9994 123.166V123.536C55.9994 124.137 55.8922 124.71 55.6778 125.257C55.4634 125.793 55.1471 126.27 54.7289 126.689C54.3215 127.107 53.8176 127.439 53.2172 127.686C52.6167 127.922 51.9252 128.039 51.1425 128.039ZM51.1425 125.868C51.6464 125.868 52.0646 125.761 52.3969 125.547C52.7293 125.332 52.9813 125.032 53.1528 124.646C53.3351 124.26 53.4262 123.831 53.4262 123.359C53.4262 122.855 53.3351 122.416 53.1528 122.041C52.9706 121.655 52.7079 121.349 52.3648 121.124C52.0324 120.899 51.625 120.786 51.1425 120.786C50.6707 120.786 50.2633 120.899 49.9202 121.124C49.5771 121.349 49.3144 121.655 49.1322 122.041C48.9606 122.416 48.8749 122.855 48.8749 123.359C48.8749 123.831 48.9606 124.26 49.1322 124.646C49.3037 125.032 49.561 125.332 49.9041 125.547C50.2472 125.761 50.66 125.868 51.1425 125.868ZM57.7953 127.734V118.921H59.8378V122.7H59.693C59.693 121.799 59.8056 121.049 60.0308 120.448C60.2667 119.848 60.6205 119.398 61.0922 119.098C61.564 118.797 62.1376 118.647 62.8131 118.647H62.9256C63.9549 118.647 64.7376 118.985 65.2737 119.66C65.8205 120.325 66.0939 121.338 66.0939 122.7V127.734H63.5207V122.555C63.5207 122.084 63.3813 121.698 63.1026 121.397C62.8238 121.097 62.4485 120.947 61.9768 120.947C61.4943 120.947 61.103 121.102 60.8027 121.413C60.5133 121.714 60.3685 122.11 60.3685 122.604V127.734H57.7953ZM72.2912 127.846C71.4013 127.846 70.683 127.739 70.1362 127.525C69.5894 127.3 69.1873 126.93 68.93 126.415C68.6834 125.89 68.5601 125.182 68.5601 124.292V116.54H70.9564V124.389C70.9564 124.807 71.0636 125.129 71.278 125.354C71.5032 125.568 71.8195 125.675 72.2269 125.675H73.5296V127.846H72.2912ZM67.2252 120.802V118.921H73.5296V120.802H67.2252ZM75.26 127.734V115.994H77.8332V122.764H77.4472C77.4472 121.874 77.5598 121.124 77.785 120.513C78.0101 119.902 78.3425 119.441 78.7821 119.13C79.2217 118.808 79.7738 118.647 80.4386 118.647H80.5512C81.5268 118.647 82.272 118.996 82.7867 119.693C83.3013 120.379 83.5586 121.387 83.5586 122.716V127.734H80.9854V122.555C80.9854 122.073 80.8407 121.687 80.5512 121.397C80.2724 121.097 79.9025 120.947 79.4415 120.947C78.959 120.947 78.5676 121.102 78.2674 121.413C77.978 121.724 77.8332 122.137 77.8332 122.652V127.734H75.26ZM85.864 127.734V115.994H88.4533V127.734H85.864ZM84.8186 117.891V115.994H88.4533V117.891H84.8186ZM90.7278 131.224V129.037H92.5612C92.84 129.037 93.0759 128.999 93.2689 128.924C93.4619 128.86 93.6173 128.747 93.7353 128.586C93.8532 128.425 93.9497 128.206 94.0247 127.927L96.1959 118.921H98.6404L96.1798 128.442C96.0083 129.128 95.767 129.675 95.4561 130.082C95.1559 130.489 94.7485 130.779 94.2338 130.95C93.7299 131.133 93.0866 131.224 92.3039 131.224H90.7278ZM93.494 127.541V125.531H95.3596V127.541H93.494ZM92.4326 127.541L89.7307 118.921H92.32L94.8771 127.541H92.4326ZM103.518 127.734V115.897H106.155V127.734H103.518ZM110.642 127.734L107.201 122.684H110.096L113.698 127.734H110.642ZM105.448 123.971V121.896H108.343C108.729 121.896 109.061 121.821 109.34 121.671C109.629 121.51 109.849 121.29 109.999 121.011C110.16 120.722 110.24 120.389 110.24 120.014C110.24 119.639 110.16 119.312 109.999 119.033C109.849 118.744 109.629 118.524 109.34 118.374C109.061 118.213 108.729 118.133 108.343 118.133H105.448V115.897H108.134C109.109 115.897 109.956 116.047 110.675 116.347C111.393 116.637 111.945 117.071 112.331 117.65C112.717 118.229 112.91 118.958 112.91 119.837V120.095C112.91 120.963 112.712 121.687 112.315 122.266C111.929 122.834 111.377 123.263 110.659 123.552C109.951 123.831 109.109 123.971 108.134 123.971H105.448ZM119.001 128.039C118.25 128.039 117.585 127.911 117.006 127.653C116.438 127.396 115.961 127.053 115.575 126.624C115.2 126.185 114.91 125.697 114.707 125.161C114.514 124.614 114.417 124.056 114.417 123.488V123.166C114.417 122.577 114.514 122.014 114.707 121.478C114.91 120.931 115.2 120.443 115.575 120.014C115.95 119.585 116.417 119.248 116.974 119.001C117.542 118.744 118.186 118.615 118.904 118.615C119.848 118.615 120.641 118.829 121.284 119.258C121.938 119.677 122.437 120.229 122.78 120.915C123.123 121.59 123.295 122.33 123.295 123.134V124.003H115.495V122.539H121.735L120.898 123.215C120.898 122.689 120.823 122.239 120.673 121.864C120.523 121.488 120.298 121.204 119.998 121.011C119.708 120.808 119.344 120.706 118.904 120.706C118.454 120.706 118.073 120.808 117.762 121.011C117.451 121.215 117.215 121.515 117.055 121.912C116.894 122.298 116.813 122.775 116.813 123.343C116.813 123.869 116.888 124.33 117.039 124.726C117.189 125.112 117.425 125.413 117.746 125.627C118.068 125.842 118.486 125.949 119.001 125.949C119.472 125.949 119.858 125.858 120.159 125.675C120.459 125.493 120.663 125.268 120.77 125H123.134C123.005 125.59 122.753 126.115 122.378 126.576C122.003 127.037 121.531 127.396 120.963 127.653C120.394 127.911 119.74 128.039 119.001 128.039ZM126.61 127.734L123.973 118.921H126.626L129.103 127.734H126.61ZM127.414 127.734V125.595H130.004V127.734H127.414ZM128.363 127.734L130.502 118.921H132.979L130.695 127.734H128.363ZM138.334 128.039C137.584 128.039 136.919 127.911 136.34 127.653C135.772 127.396 135.295 127.053 134.909 126.624C134.533 126.185 134.244 125.697 134.04 125.161C133.847 124.614 133.751 124.056 133.751 123.488V123.166C133.751 122.577 133.847 122.014 134.04 121.478C134.244 120.931 134.533 120.443 134.909 120.014C135.284 119.585 135.75 119.248 136.308 119.001C136.876 118.744 137.519 118.615 138.238 118.615C139.181 118.615 139.975 118.829 140.618 119.258C141.272 119.677 141.771 120.229 142.114 120.915C142.457 121.59 142.628 122.33 142.628 123.134V124.003H134.828V122.539H141.068L140.232 123.215C140.232 122.689 140.157 122.239 140.007 121.864C139.857 121.488 139.632 121.204 139.331 121.011C139.042 120.808 138.677 120.706 138.238 120.706C137.788 120.706 137.407 120.808 137.096 121.011C136.785 121.215 136.549 121.515 136.388 121.912C136.227 122.298 136.147 122.775 136.147 123.343C136.147 123.869 136.222 124.33 136.372 124.726C136.522 125.112 136.758 125.413 137.08 125.627C137.402 125.842 137.82 125.949 138.334 125.949C138.806 125.949 139.192 125.858 139.492 125.675C139.792 125.493 139.996 125.268 140.103 125H142.468C142.339 125.59 142.087 126.115 141.712 126.576C141.336 127.037 140.865 127.396 140.296 127.653C139.728 127.911 139.074 128.039 138.334 128.039ZM144.334 127.734V118.921H146.376V122.7H146.231C146.231 121.799 146.344 121.049 146.569 120.448C146.805 119.848 147.159 119.398 147.63 119.098C148.102 118.797 148.676 118.647 149.351 118.647H149.464C150.493 118.647 151.276 118.985 151.812 119.66C152.359 120.325 152.632 121.338 152.632 122.7V127.734H150.059V122.555C150.059 122.084 149.92 121.698 149.641 121.397C149.362 121.097 148.987 120.947 148.515 120.947C148.033 120.947 147.641 121.102 147.341 121.413C147.051 121.714 146.907 122.11 146.907 122.604V127.734H144.334ZM157.8 128.007C156.782 128.007 155.999 127.68 155.452 127.026C154.905 126.362 154.632 125.364 154.632 124.035V118.921H157.205V124.164C157.205 124.635 157.339 125.011 157.607 125.289C157.875 125.568 158.234 125.707 158.685 125.707C159.146 125.707 159.521 125.563 159.81 125.273C160.1 124.984 160.245 124.592 160.245 124.099V118.921H162.818V127.734H160.775V124.019H160.952C160.952 124.909 160.834 125.654 160.599 126.254C160.373 126.844 160.036 127.284 159.585 127.573C159.135 127.863 158.577 128.007 157.913 128.007H157.8ZM169.227 128.039C168.477 128.039 167.812 127.911 167.233 127.653C166.665 127.396 166.188 127.053 165.802 126.624C165.427 126.185 165.137 125.697 164.933 125.161C164.74 124.614 164.644 124.056 164.644 123.488V123.166C164.644 122.577 164.74 122.014 164.933 121.478C165.137 120.931 165.427 120.443 165.802 120.014C166.177 119.585 166.643 119.248 167.201 119.001C167.769 118.744 168.413 118.615 169.131 118.615C170.074 118.615 170.868 118.829 171.511 119.258C172.165 119.677 172.664 120.229 173.007 120.915C173.35 121.59 173.521 122.33 173.521 123.134V124.003H165.721V122.539H171.961L171.125 123.215C171.125 122.689 171.05 122.239 170.9 121.864C170.75 121.488 170.525 121.204 170.224 121.011C169.935 120.808 169.57 120.706 169.131 120.706C168.681 120.706 168.3 120.808 167.989 121.011C167.678 121.215 167.442 121.515 167.281 121.912C167.121 122.298 167.04 122.775 167.04 123.343C167.04 123.869 167.115 124.33 167.265 124.726C167.415 125.112 167.651 125.413 167.973 125.627C168.295 125.842 168.713 125.949 169.227 125.949C169.699 125.949 170.085 125.858 170.385 125.675C170.686 125.493 170.889 125.268 170.996 125H173.361C173.232 125.59 172.98 126.115 172.605 126.576C172.229 127.037 171.758 127.396 171.189 127.653C170.621 127.911 169.967 128.039 169.227 128.039Z" fill="#2E2A17"/>
<g clip-path="url(#clip6_302_898)">
<path fill-rule="evenodd" clip-rule="evenodd" d="M199.606 117.129L204.328 123.621H194.885L199.606 117.129Z" fill="#4A0AD2" stroke="#4A0AD2" stroke-width="0.473018" stroke-linejoin="round"/>
<path d="M200.957 120.782H198.254C197.993 120.782 197.781 120.994 197.781 121.255V127.464C197.781 127.725 197.993 127.937 198.254 127.937H200.957C201.218 127.937 201.43 127.725 201.43 127.464V121.255C201.43 120.994 201.218 120.782 200.957 120.782Z" fill="#4A0AD2" stroke="#4A0AD2" stroke-width="0.473018"/>
</g>
<path d="M220.212 121.366V123.769H211.914V121.366H220.212ZM217.385 118.206V127.02H214.766V118.206H217.385ZM230.007 123.503V125.665H221.293L221.127 123.952L225.991 116.128H228.203L225.8 120.06L223.804 123.503H230.007ZM228.785 116.128V128.234H225.983V116.128H228.785ZM237.466 116.128V128.234H234.664V119.287L231.903 120.094V117.965L237.208 116.128H237.466ZM241.365 126.92C241.365 126.521 241.509 126.188 241.798 125.922C242.086 125.651 242.457 125.515 242.912 125.515C243.372 125.515 243.743 125.651 244.026 125.922C244.314 126.188 244.458 126.521 244.458 126.92C244.458 127.319 244.314 127.655 244.026 127.926C243.743 128.192 243.372 128.325 242.912 128.325C242.457 128.325 242.086 128.192 241.798 127.926C241.509 127.655 241.365 127.319 241.365 126.92ZM254.744 126.072V128.234H246.296V126.405L250.187 122.314C250.531 121.92 250.808 121.568 251.019 121.258C251.229 120.942 251.382 120.656 251.476 120.401C251.576 120.146 251.626 119.916 251.626 119.711C251.626 119.362 251.573 119.071 251.468 118.838C251.368 118.6 251.218 118.42 251.019 118.298C250.825 118.176 250.584 118.115 250.295 118.115C250.007 118.115 249.755 118.198 249.539 118.364C249.322 118.531 249.153 118.758 249.031 119.046C248.915 119.334 248.857 119.659 248.857 120.019H246.046C246.046 119.276 246.227 118.597 246.587 117.982C246.953 117.366 247.46 116.876 248.108 116.51C248.757 116.139 249.508 115.953 250.362 115.953C251.254 115.953 252.003 116.092 252.607 116.369C253.211 116.646 253.666 117.048 253.97 117.574C254.281 118.095 254.436 118.725 254.436 119.462C254.436 119.883 254.37 120.288 254.236 120.676C254.103 121.064 253.912 121.449 253.663 121.832C253.413 122.208 253.108 122.596 252.748 122.996C252.393 123.395 251.989 123.819 251.534 124.268L249.971 126.072H254.744ZM258.568 122.838L256.34 122.314L257.072 116.128H264.148V118.306H259.358L259.084 120.709C259.217 120.631 259.442 120.54 259.757 120.435C260.079 120.324 260.434 120.268 260.822 120.268C261.42 120.268 261.95 120.36 262.41 120.543C262.876 120.72 263.269 120.983 263.591 121.333C263.912 121.676 264.153 122.1 264.314 122.605C264.48 123.109 264.563 123.686 264.563 124.334C264.563 124.855 264.477 125.36 264.306 125.848C264.139 126.33 263.882 126.765 263.532 127.153C263.189 127.535 262.754 127.84 262.227 128.068C261.7 128.289 261.077 128.4 260.356 128.4C259.818 128.4 259.295 128.317 258.785 128.151C258.275 127.984 257.815 127.746 257.404 127.436C257 127.12 256.678 126.74 256.44 126.297C256.207 125.848 256.093 125.346 256.099 124.792H258.918C258.934 125.085 259.004 125.34 259.126 125.557C259.248 125.773 259.411 125.942 259.616 126.064C259.827 126.18 260.068 126.238 260.34 126.238C260.617 126.238 260.847 126.183 261.03 126.072C261.213 125.961 261.357 125.809 261.462 125.615C261.567 125.421 261.642 125.199 261.687 124.95C261.731 124.695 261.753 124.426 261.753 124.143C261.753 123.844 261.72 123.575 261.653 123.336C261.592 123.098 261.492 122.896 261.354 122.73C261.215 122.558 261.035 122.427 260.813 122.339C260.597 122.25 260.337 122.206 260.032 122.206C259.627 122.206 259.308 122.275 259.076 122.414C258.843 122.552 258.674 122.693 258.568 122.838ZM266.06 119.096V118.456C266.06 117.996 266.16 117.577 266.359 117.2C266.559 116.823 266.858 116.521 267.257 116.294C267.657 116.067 268.153 115.953 268.746 115.953C269.355 115.953 269.86 116.067 270.259 116.294C270.658 116.521 270.955 116.823 271.149 117.2C271.348 117.577 271.448 117.996 271.448 118.456V119.096C271.448 119.545 271.348 119.958 271.149 120.335C270.955 120.712 270.658 121.014 270.259 121.241C269.865 121.468 269.369 121.582 268.771 121.582C268.166 121.582 267.665 121.468 267.266 121.241C266.867 121.014 266.564 120.712 266.359 120.335C266.16 119.958 266.06 119.545 266.06 119.096ZM267.856 118.456V119.096C267.856 119.262 267.889 119.42 267.956 119.57C268.022 119.72 268.122 119.842 268.255 119.936C268.394 120.024 268.563 120.069 268.762 120.069C268.967 120.069 269.134 120.024 269.261 119.936C269.389 119.842 269.483 119.72 269.544 119.57C269.61 119.42 269.644 119.262 269.644 119.096V118.456C269.644 118.278 269.61 118.115 269.544 117.965C269.483 117.815 269.386 117.696 269.253 117.608C269.12 117.513 268.951 117.466 268.746 117.466C268.552 117.466 268.388 117.513 268.255 117.608C268.122 117.696 268.022 117.815 267.956 117.965C267.889 118.115 267.856 118.278 267.856 118.456ZM271.806 125.906V125.266C271.806 124.811 271.905 124.395 272.105 124.018C272.31 123.641 272.612 123.339 273.011 123.112C273.416 122.885 273.915 122.771 274.508 122.771C275.118 122.771 275.619 122.885 276.013 123.112C276.412 123.339 276.709 123.641 276.903 124.018C277.102 124.395 277.202 124.811 277.202 125.266V125.906C277.202 126.36 277.102 126.776 276.903 127.153C276.709 127.53 276.415 127.832 276.021 128.059C275.628 128.287 275.131 128.4 274.533 128.4C273.929 128.4 273.424 128.287 273.02 128.059C272.615 127.832 272.31 127.53 272.105 127.153C271.905 126.776 271.806 126.36 271.806 125.906ZM273.61 125.266V125.906C273.61 126.078 273.651 126.238 273.735 126.388C273.818 126.538 273.929 126.66 274.067 126.754C274.206 126.843 274.358 126.887 274.524 126.887C274.779 126.887 274.968 126.843 275.09 126.754C275.217 126.66 275.301 126.538 275.339 126.388C275.384 126.238 275.406 126.078 275.406 125.906V125.266C275.406 125.094 275.373 124.933 275.306 124.783C275.24 124.634 275.14 124.514 275.007 124.426C274.874 124.331 274.707 124.284 274.508 124.284C274.308 124.284 274.142 124.331 274.009 124.426C273.876 124.514 273.776 124.634 273.71 124.783C273.643 124.933 273.61 125.094 273.61 125.266ZM275.206 117.865L269.295 127.328L267.989 126.671L273.901 117.209L275.206 117.865Z" fill="#4A0AD2"/>
<path d="M38.4411 180.512C36.7723 180.512 35.3844 180.274 34.2776 179.797C33.1707 179.303 32.3363 178.614 31.7744 177.728C31.2124 176.826 30.9314 175.77 30.9314 174.561H34.6863C34.6863 175.038 34.814 175.489 35.0694 175.915C35.3248 176.323 35.7335 176.655 36.2955 176.911C36.8574 177.149 37.5726 177.268 38.4411 177.268C39.599 177.268 40.4845 177.064 41.0975 176.655C41.7276 176.247 42.0426 175.702 42.0426 175.021C42.0426 174.425 41.7787 173.939 41.2508 173.565C40.7229 173.173 39.88 172.918 38.722 172.798L37.4194 172.696C35.5973 172.526 34.1499 171.981 33.0771 171.061C32.0043 170.125 31.4679 168.805 31.4679 167.102C31.4679 165.927 31.7318 164.948 32.2597 164.165C32.7876 163.364 33.5453 162.768 34.533 162.377C35.5207 161.968 36.7042 161.764 38.0835 161.764C39.565 161.764 40.8081 161.994 41.8127 162.453C42.8174 162.913 43.5752 163.577 44.0861 164.446C44.614 165.314 44.8779 166.37 44.8779 167.613H41.1231C41.1231 167.119 41.0039 166.685 40.7655 166.31C40.5441 165.919 40.2121 165.604 39.7693 165.365C39.3266 165.127 38.7646 165.008 38.0835 165.008C37.4875 165.008 36.9766 165.093 36.5509 165.263C36.1252 165.433 35.8016 165.68 35.5803 166.004C35.3589 166.31 35.2482 166.677 35.2482 167.102C35.2482 167.63 35.444 168.107 35.8357 168.533C36.2274 168.941 36.8744 169.197 37.777 169.299L39.0797 169.401C41.1231 169.571 42.7578 170.125 43.9839 171.061C45.21 171.998 45.823 173.318 45.823 175.021C45.823 176.196 45.5335 177.192 44.9545 178.009C44.3756 178.826 43.5326 179.448 42.4258 179.874C41.3359 180.299 40.0077 180.512 38.4411 180.512ZM36.6275 183.705V179.976H39.9737V183.705H36.6275ZM36.5254 163.015V159.286H39.8715V163.015H36.5254ZM55.0789 161.227C56.4582 161.227 57.6417 161.457 58.6294 161.917C59.617 162.36 60.4174 162.998 61.0304 163.833C61.6605 164.65 62.1203 165.595 62.4097 166.668C62.7163 167.741 62.8695 168.89 62.8695 170.116V171.189C62.8695 174.288 62.0777 176.63 60.494 178.213C58.9104 179.78 56.5774 180.563 53.4953 180.563C52.8652 180.563 52.2436 180.546 51.6306 180.512C51.0176 180.478 50.4216 180.427 49.8426 180.359V176.86C50.4046 176.911 51.0091 176.962 51.6562 177.013C52.3032 177.047 52.9674 177.064 53.6485 177.064C55.0108 177.064 56.0836 176.843 56.8669 176.4C57.6502 175.94 58.2037 175.259 58.5272 174.356C58.8508 173.454 59.0125 172.339 59.0125 171.01V169.069L59.9321 168.456C59.915 169.733 59.6511 170.806 59.1402 171.674C58.6464 172.526 57.9568 173.164 57.0713 173.59C56.1858 174.016 55.1641 174.229 54.0061 174.229C52.6949 174.229 51.5625 173.973 50.6089 173.462C49.6553 172.935 48.9231 172.202 48.4122 171.266C47.9013 170.329 47.6459 169.222 47.6459 167.945C47.6459 166.6 47.9524 165.425 48.5655 164.42C49.1785 163.399 50.0384 162.615 51.1453 162.07C52.2692 161.508 53.5804 161.227 55.0789 161.227ZM55.2066 164.701C54.4574 164.701 53.8188 164.837 53.2909 165.11C52.7801 165.382 52.3799 165.757 52.0904 166.234C51.8179 166.694 51.6817 167.239 51.6817 167.869C51.6817 168.516 51.8179 169.078 52.0904 169.554C52.3628 170.014 52.746 170.38 53.2398 170.653C53.7507 170.908 54.3722 171.036 55.1045 171.036C55.7686 171.036 56.3731 170.925 56.918 170.704C57.48 170.465 57.9227 170.116 58.2462 169.657C58.5698 169.18 58.7316 168.584 58.7316 167.869C58.7316 167.256 58.5953 166.711 58.3229 166.234C58.0674 165.757 57.6758 165.382 57.1479 165.11C56.62 164.837 55.9729 164.701 55.2066 164.701ZM72.155 180.895C70.7075 180.895 69.4474 180.632 68.3746 180.104C67.3188 179.559 66.51 178.826 65.948 177.907C65.3861 176.987 65.1051 175.949 65.1051 174.791H69.1409C69.1409 175.574 69.4049 176.213 69.9327 176.706C70.4606 177.183 71.2014 177.422 72.155 177.422C72.785 177.422 73.3214 177.302 73.7642 177.064C74.2069 176.826 74.5475 176.502 74.7859 176.093C75.0243 175.668 75.1435 175.191 75.1435 174.663C75.1435 173.846 74.8796 173.173 74.3517 172.645C73.8408 172.117 73.1086 171.853 72.155 171.853C71.6441 171.853 71.1929 171.93 70.8012 172.083C70.4266 172.236 70.103 172.424 69.8306 172.645L67.9404 169.452L73.5854 165.774L73.3555 165.34H65.8714V161.764H78.4385V165.646L71.9251 169.784L69.8817 169.222C70.2222 169.12 70.5798 169.044 70.9545 168.992C71.3461 168.924 71.7633 168.89 72.2061 168.89C73.6535 168.89 74.8966 169.129 75.9353 169.605C76.9741 170.082 77.7744 170.755 78.3364 171.623C78.9153 172.475 79.2048 173.471 79.2048 174.612V174.918C79.2048 176.059 78.9153 177.081 78.3364 177.984C77.7744 178.886 76.9656 179.601 75.9098 180.129C74.871 180.64 73.6194 180.895 72.155 180.895ZM81.9082 180.41V176.579C81.9082 175.778 82.0359 175.08 82.2913 174.484C82.5638 173.888 82.9895 173.36 83.5685 172.901C84.1475 172.424 84.9137 171.981 85.8674 171.572L88.8814 170.27C89.6477 169.946 90.2097 169.546 90.5673 169.069C90.9419 168.592 91.1292 167.988 91.1292 167.256C91.1292 166.506 90.8993 165.893 90.4395 165.416C89.9798 164.94 89.3071 164.701 88.4216 164.701C87.5362 164.701 86.8635 164.948 86.4038 165.442C85.944 165.936 85.7141 166.6 85.7141 167.434H81.6528C81.6528 166.259 81.9082 165.204 82.4191 164.267C82.9299 163.313 83.6877 162.564 84.6924 162.019C85.6971 161.474 86.9402 161.202 88.4216 161.202C89.9031 161.202 91.1377 161.466 92.1254 161.994C93.1301 162.522 93.8878 163.228 94.3987 164.114C94.9266 164.999 95.1905 165.995 95.1905 167.102V167.409C95.1905 168.839 94.7989 170.023 94.0156 170.959C93.2322 171.879 92.0232 172.696 90.3885 173.411L87.3999 174.714C86.8891 174.935 86.523 175.165 86.3016 175.404C86.0972 175.642 85.9951 175.966 85.9951 176.374V177.652L84.9989 176.809H95.2161V180.41H81.9082ZM99.8352 184.778L96.6934 183.552L99.3754 175.736L102.849 177.013L99.8352 184.778ZM113.256 180.895C111.775 180.895 110.506 180.657 109.45 180.18C108.395 179.686 107.535 179.022 106.871 178.188C106.224 177.354 105.738 176.391 105.415 175.302C105.108 174.195 104.955 173.028 104.955 171.802V170.346C104.955 168.643 105.253 167.102 105.849 165.723C106.445 164.344 107.356 163.245 108.582 162.428C109.808 161.611 111.366 161.202 113.256 161.202C115.147 161.202 116.696 161.611 117.905 162.428C119.131 163.245 120.042 164.344 120.638 165.723C121.234 167.102 121.532 168.643 121.532 170.346V171.802C121.532 173.028 121.371 174.195 121.047 175.302C120.74 176.391 120.255 177.354 119.591 178.188C118.944 179.022 118.093 179.686 117.037 180.18C115.998 180.657 114.738 180.895 113.256 180.895ZM113.256 177.038C114.636 177.038 115.657 176.562 116.322 175.608C117.003 174.637 117.343 173.139 117.343 171.113C117.343 168.967 116.994 167.426 116.296 166.489C115.615 165.536 114.602 165.059 113.256 165.059C111.877 165.059 110.847 165.536 110.166 166.489C109.485 167.426 109.144 168.95 109.144 171.061C109.144 173.105 109.476 174.612 110.14 175.583C110.821 176.553 111.86 177.038 113.256 177.038ZM126.633 180.41L133.172 165.57L132.891 165.187H123.823V161.764H137.949V164.42L131.078 180.41H126.633ZM123.823 168.201V161.764H127.221V168.201H123.823ZM148.253 180.895C146.772 180.895 145.503 180.657 144.447 180.18C143.392 179.686 142.532 179.022 141.867 178.188C141.22 177.354 140.735 176.391 140.412 175.302C140.105 174.195 139.952 173.028 139.952 171.802V170.346C139.952 168.643 140.25 167.102 140.846 165.723C141.442 164.344 142.353 163.245 143.579 162.428C144.805 161.611 146.363 161.202 148.253 161.202C150.143 161.202 151.693 161.611 152.902 162.428C154.128 163.245 155.039 164.344 155.635 165.723C156.231 167.102 156.529 168.643 156.529 170.346V171.802C156.529 173.028 156.367 174.195 156.044 175.302C155.737 176.391 155.252 177.354 154.588 178.188C153.941 179.022 153.089 179.686 152.034 180.18C150.995 180.657 149.735 180.895 148.253 180.895ZM148.253 177.038C149.633 177.038 150.654 176.562 151.318 175.608C152 174.637 152.34 173.139 152.34 171.113C152.34 168.967 151.991 167.426 151.293 166.489C150.612 165.536 149.598 165.059 148.253 165.059C146.874 165.059 145.844 165.536 145.163 166.489C144.481 167.426 144.141 168.95 144.141 171.061C144.141 173.105 144.473 174.612 145.137 175.583C145.818 176.553 146.857 177.038 148.253 177.038ZM159.203 180.41V175.838H163.699V180.41H159.203ZM166.494 180.41V176.579C166.494 175.778 166.622 175.08 166.877 174.484C167.15 173.888 167.576 173.36 168.155 172.901C168.734 172.424 169.5 171.981 170.453 171.572L173.468 170.27C174.234 169.946 174.796 169.546 175.153 169.069C175.528 168.592 175.715 167.988 175.715 167.256C175.715 166.506 175.485 165.893 175.026 165.416C174.566 164.94 173.893 164.701 173.008 164.701C172.122 164.701 171.45 164.948 170.99 165.442C170.53 165.936 170.3 166.6 170.3 167.434H166.239C166.239 166.259 166.494 165.204 167.005 164.267C167.516 163.313 168.274 162.564 169.278 162.019C170.283 161.474 171.526 161.202 173.008 161.202C174.489 161.202 175.724 161.466 176.711 161.994C177.716 162.522 178.474 163.228 178.985 164.114C179.513 164.999 179.777 165.995 179.777 167.102V167.409C179.777 168.839 179.385 170.023 178.602 170.959C177.818 171.879 176.609 172.696 174.975 173.411L171.986 174.714C171.475 174.935 171.109 175.165 170.888 175.404C170.683 175.642 170.581 175.966 170.581 176.374V177.652L169.585 176.809H179.802V180.41H166.494ZM189.479 161.227C190.858 161.227 192.042 161.457 193.029 161.917C194.017 162.36 194.817 162.998 195.43 163.833C196.06 164.65 196.52 165.595 196.81 166.668C197.116 167.741 197.269 168.89 197.269 170.116V171.189C197.269 174.288 196.478 176.63 194.894 178.213C193.31 179.78 190.977 180.563 187.895 180.563C187.265 180.563 186.643 180.546 186.03 180.512C185.417 180.478 184.821 180.427 184.242 180.359V176.86C184.804 176.911 185.409 176.962 186.056 177.013C186.703 177.047 187.367 177.064 188.048 177.064C189.411 177.064 190.483 176.843 191.267 176.4C192.05 175.94 192.603 175.259 192.927 174.356C193.251 173.454 193.412 172.339 193.412 171.01V169.069L194.332 168.456C194.315 169.733 194.051 170.806 193.54 171.674C193.046 172.526 192.357 173.164 191.471 173.59C190.586 174.016 189.564 174.229 188.406 174.229C187.095 174.229 185.962 173.973 185.009 173.462C184.055 172.935 183.323 172.202 182.812 171.266C182.301 170.329 182.046 169.222 182.046 167.945C182.046 166.6 182.352 165.425 182.965 164.42C183.578 163.399 184.438 162.615 185.545 162.07C186.669 161.508 187.98 161.227 189.479 161.227ZM189.606 164.701C188.857 164.701 188.219 164.837 187.691 165.11C187.18 165.382 186.78 165.757 186.49 166.234C186.218 166.694 186.082 167.239 186.082 167.869C186.082 168.516 186.218 169.078 186.49 169.554C186.763 170.014 187.146 170.38 187.64 170.653C188.151 170.908 188.772 171.036 189.504 171.036C190.168 171.036 190.773 170.925 191.318 170.704C191.88 170.465 192.323 170.116 192.646 169.657C192.97 169.18 193.131 168.584 193.131 167.869C193.131 167.256 192.995 166.711 192.723 166.234C192.467 165.757 192.076 165.382 191.548 165.11C191.02 164.837 190.373 164.701 189.606 164.701Z" fill="#2E2A17"/>
</g>
<path d="M295.899 79.9213H9.25049V73.8695C9.25382 70.7075 10.1713 67.6764 11.8017 65.4412C13.432 63.206 15.6421 61.9493 17.947 61.9467H287.203C289.508 61.9493 291.718 63.206 293.348 65.4412C294.978 67.6764 295.896 70.7075 295.899 73.8695V79.9213Z" fill="#6E1FD1"/>
<path d="M25.3735 73.9425C27.0643 73.9425 28.435 72.5718 28.435 70.881C28.435 69.1901 27.0643 67.8195 25.3735 67.8195C23.6827 67.8195 22.312 69.1901 22.312 70.881C22.312 72.5718 23.6827 73.9425 25.3735 73.9425Z" fill="white"/>
<path d="M36.9936 73.9427C38.6845 73.9427 40.0551 72.572 40.0551 70.8812C40.0551 69.1904 38.6845 67.8197 36.9936 67.8197C35.3028 67.8197 33.9321 69.1904 33.9321 70.8812C33.9321 72.572 35.3028 73.9427 36.9936 73.9427Z" fill="white"/>
<path d="M48.6157 73.9425C50.3065 73.9425 51.6772 72.5718 51.6772 70.881C51.6772 69.1901 50.3065 67.8195 48.6157 67.8195C46.9249 67.8195 45.5542 69.1901 45.5542 70.881C45.5542 72.5718 46.9249 73.9425 48.6157 73.9425Z" fill="white"/>
</g>
<defs>
<filter id="filter0_d_302_898" x="5.46635" y="58.1625" width="299.893" height="192.991" filterUnits="userSpaceOnUse" color-interpolation-filters="sRGB">
<feFlood flood-opacity="0" result="BackgroundImageFix"/>
<feColorMatrix in="SourceAlpha" type="matrix" values="0 0 0 0 0 0 0 0 0 0 0 0 0 0 0 0 0 0 127 0" result="hardAlpha"/>
<feOffset dx="2.83811" dy="2.83811"/>
<feGaussianBlur stdDeviation="3.31112"/>
<feComposite in2="hardAlpha" operator="out"/>
<feColorMatrix type="matrix" values="0 0 0 0 0 0 0 0 0 0 0 0 0 0 0 0 0 0 0.25 0"/>
<feBlend mode="normal" in2="BackgroundImageFix" result="effect1_dropShadow_302_898"/>
<feBlend mode="normal" in="SourceGraphic" in2="effect1_dropShadow_302_898" result="shape"/>
</filter>
<clipPath id="clip0_302_898">
<rect width="291.19" height="228.071" fill="white" transform="translate(98.1777 51.5402)"/>
</clipPath>
<clipPath id="clip1_302_898">
<rect x="161.562" y="223.148" width="267.728" height="142.851" rx="13.2445" fill="white"/>
</clipPath>
<clipPath id="clip2_302_898">
<rect width="11.3524" height="11.3524" fill="white" transform="translate(330.781 250.824)"/>
</clipPath>
<clipPath id="clip3_302_898">
<rect width="268.13" height="40.2194" fill="white" transform="translate(161.143 325.503)"/>
</clipPath>
<clipPath id="clip4_302_898">
<rect x="18.7104" y="89.3817" width="267.728" height="142.851" rx="13.2445" fill="white"/>
</clipPath>
<clipPath id="clip5_302_898">
<rect width="268.634" height="36.0535" fill="white" transform="translate(18.7305 197.65)"/>
</clipPath>
<clipPath id="clip6_302_898">
<rect width="11.3524" height="11.3524" fill="white" transform="translate(193.93 117.058)"/>
</clipPath>
</defs>
</svg>
